<?xml version="1.0" encoding="utf-8"?>
<!-- Generator: Adobe Illustrator 22.0.1, SVG Export Plug-In . SVG Version: 6.00 Build 0)  -->
<svg version="1.1" id="logo" xmlns="http://www.w3.org/2000/svg" xmlns:xlink="http://www.w3.org/1999/xlink" x="0px" y="0px"
	 viewBox="0 0 240.7 173.2" style="enable-background:new 0 0 240.7 173.2;" xml:space="preserve">
<style type="text/css">
	.st0{fill:url(#SVGID_1_);}
	.st1{fill:url(#SVGID_2_);}
	.st2{fill:#494949;}
	.st3{fill:url(#SVGID_3_);}
	.st4{fill:url(#SVGID_4_);}
	.st5{opacity:0.9;}
	.st6{fill:#FFFFFF;}
	.st7{fill:#FCFCFC;}
	.st8{fill:url(#SVGID_5_);}
	.st9{fill:#F9DB46;}
	.st10{fill:#FC6681;}
	.st11{fill:#4C83D3;}
	.st12{fill:#66443B;}
	.st13{opacity:5.000000e-02;fill:#4C83D3;}
	.st14{fill:#6C63FF;}
	.st15{fill:none;stroke:#F4F5F9;stroke-width:0.5307;stroke-miterlimit:10;}
	.st16{fill:none;stroke:#535461;stroke-width:1.0614;stroke-miterlimit:10;}
	.st17{fill:#FFD037;}
	.st18{fill:none;stroke:#D5D6E0;stroke-width:1.0614;stroke-miterlimit:10;}
	.st19{fill:#4695BC;}
	.st20{opacity:0.1;enable-background:new    ;}
	.st21{fill:#D2D2D8;}
	.st22{fill:#F1F2FB;}
	.st23{fill:#E8EAF8;}
	.st24{opacity:0.1;fill:none;stroke:#000000;stroke-width:2.1228;stroke-miterlimit:10;enable-background:new    ;}
	.st25{fill:#3D6AB2;}
	.st26{fill:url(#SVGID_6_);}
	.st27{fill:#FDC2CC;}
	.st28{fill:#5F5D7E;}
	.st29{opacity:0.15;enable-background:new    ;}
	.st30{fill:#D39999;}
	.st31{fill:#865A61;}
	.st32{fill:#FAFBFC;}
	.st33{fill:none;stroke:#4C83D3;stroke-miterlimit:10;}
	.st34{opacity:0.1;fill:#6C63FF;enable-background:new    ;}
	.st35{fill:#444053;}
	.st36{opacity:0.7;}
	.st37{opacity:0.3;fill:#6C63FF;enable-background:new    ;}
	.st38{opacity:0.3;enable-background:new    ;}
	.st39{fill:url(#SVGID_7_);}
	.st40{fill:#A5636D;}
	.st41{opacity:5.000000e-02;enable-background:new    ;}
	.st42{fill:#BEBED0;}
	.st43{fill:#5C5C8E;}
	.st44{fill:none;}
	.st45{opacity:0.1;}
	.st46{fill:#F7CDDD;}
	.st47{fill:#4C3E42;}
	.st48{opacity:0.1;fill:#FFFFFF;enable-background:new    ;}
	.st49{fill:#EFC8C4;}
	.st50{fill:#727A9C;}
	.st51{fill:#3ACC6C;}
	.st52{fill:#65617D;}
	.st53{fill:#9D9CB5;}
	.st54{fill:url(#SVGID_8_);}
	.st55{fill:url(#SVGID_9_);}
	.st56{fill:url(#SVGID_10_);}
	.st57{fill:#F5F5F5;}
	.st58{fill:url(#SVGID_11_);}
	.st59{fill:url(#SVGID_12_);}
	.st60{fill:url(#SVGID_13_);}
	.st61{fill:#7CFCFF;}
	.st62{fill:url(#SVGID_14_);}
	.st63{fill:#FFFFA5;}
	.st64{fill:url(#SVGID_15_);}
	.st65{fill:#FF69B4;}
	.st66{fill:url(#SVGID_16_);}
	.st67{fill:#4D8AF0;}
	.st68{fill:#BE7C5E;}
	.st69{fill:#333333;}
	.st70{fill:#E0E0E0;}
	.st71{fill:#F55F44;}
	.st72{opacity:0.1;fill:#333333;enable-background:new    ;}
	.st73{fill:url(#SVGID_17_);}
	.st74{fill:url(#SVGID_18_);}
	.st75{fill:url(#SVGID_19_);}
	.st76{fill:url(#SVGID_20_);}
	.st77{fill:url(#SVGID_21_);}
	.st78{fill:url(#SVGID_22_);}
	.st79{fill:url(#SVGID_23_);}
	.st80{opacity:3.000000e-02;fill:none;stroke:#FFFFFF;stroke-width:0.7405;stroke-miterlimit:10;enable-background:new    ;}
	.st81{fill:#3F3D56;}
	.st82{fill:url(#SVGID_24_);}
	.st83{fill:url(#SVGID_25_);}
	.st84{fill:url(#SVGID_26_);}
	.st85{fill:url(#SVGID_27_);}
	.st86{fill:url(#SVGID_28_);}
	.st87{fill:url(#SVGID_29_);}
	.st88{fill:url(#SVGID_30_);}
	.st89{fill:url(#SVGID_31_);}
	.st90{fill:url(#SVGID_32_);}
	.st91{fill:url(#SVGID_33_);}
	.st92{fill:url(#SVGID_34_);}
	.st93{fill:url(#SVGID_35_);}
	.st94{fill:url(#SVGID_36_);}
	.st95{fill:url(#SVGID_37_);}
	.st96{fill:url(#SVGID_38_);}
	.st97{fill:url(#SVGID_39_);}
	.st98{fill:url(#SVGID_40_);}
	.st99{fill:url(#SVGID_41_);}
	.st100{fill:url(#SVGID_42_);}
	.st101{fill:url(#SVGID_43_);}
	.st102{fill:url(#SVGID_44_);}
	.st103{fill:url(#SVGID_45_);}
	.st104{fill:url(#SVGID_46_);}
	.st105{fill:#EE8E9E;}
	.st106{fill:#E8EAF2;}
	.st107{fill:#303D5C;}
	.st108{fill:url(#SVGID_47_);}
	.st109{fill:#EFB7B9;}
	.st110{opacity:0.2;fill:#6C63FF;enable-background:new    ;}
	.st111{fill:url(#SVGID_48_);}
	.st112{fill:url(#SVGID_49_);}
	.st113{fill:url(#SVGID_50_);}
	.st114{fill:url(#SVGID_51_);}
	.st115{fill:url(#SVGID_52_);}
	.st116{fill:url(#SVGID_53_);}
	.st117{fill:url(#SVGID_54_);}
	.st118{fill:url(#SVGID_55_);}
	.st119{fill:url(#SVGID_56_);}
	.st120{fill:url(#SVGID_57_);}
	.st121{fill:url(#SVGID_58_);}
	.st122{fill:url(#SVGID_59_);}
	.st123{fill:url(#SVGID_60_);}
	.st124{fill:url(#SVGID_61_);}
	.st125{fill:url(#SVGID_62_);}
	.st126{fill:url(#SVGID_63_);}
	.st127{fill:url(#SVGID_64_);}
	.st128{fill:url(#SVGID_65_);}
	.st129{fill:url(#SVGID_66_);}
	.st130{fill:url(#SVGID_67_);}
	.st131{fill:url(#SVGID_68_);}
	.st132{fill:url(#SVGID_69_);}
	.st133{fill:url(#SVGID_70_);}
	.st134{fill:url(#SVGID_71_);}
	.st135{fill:none;stroke:#3F3D56;stroke-width:0.7405;stroke-miterlimit:10;}
	.st136{fill:#F2F2F2;}
	.st137{fill:#47465A;}
	.st138{fill:#7A799C;}
	.st139{fill:#9493B6;}
	.st140{fill:#FF6584;}
	.st141{fill:#FBBEBE;}
	.st142{fill:url(#SVGID_72_);}
	.st143{fill:url(#SVGID_73_);}
	.st144{fill:url(#SVGID_74_);}
	.st145{fill:url(#SVGID_75_);}
	.st146{fill:url(#SVGID_76_);}
	.st147{fill:url(#SVGID_77_);}
	.st148{fill:url(#SVGID_78_);}
	.st149{fill:url(#SVGID_79_);}
	.st150{fill:url(#SVGID_80_);}
	.st151{fill:url(#SVGID_81_);}
	.st152{fill:url(#SVGID_82_);}
	.st153{fill:url(#SVGID_83_);}
	.st154{fill:url(#SVGID_84_);}
	.st155{fill:url(#SVGID_85_);}
	.st156{fill:url(#SVGID_86_);}
	.st157{fill:url(#SVGID_87_);}
	.st158{fill:url(#SVGID_88_);}
	.st159{fill:url(#SVGID_89_);}
	.st160{fill:url(#SVGID_90_);}
	.st161{fill:url(#SVGID_91_);}
	.st162{fill:url(#SVGID_92_);}
	.st163{fill:url(#SVGID_93_);}
	.st164{fill:url(#SVGID_94_);}
	.st165{fill:url(#SVGID_95_);}
	.st166{fill:url(#SVGID_96_);}
	.st167{fill:url(#SVGID_97_);}
	.st168{fill:url(#SVGID_98_);}
	.st169{fill:url(#SVGID_99_);}
	.st170{fill:url(#SVGID_100_);}
	.st171{fill:url(#SVGID_101_);}
	.st172{fill:url(#SVGID_102_);}
	.st173{fill:#FFCF35;}
	.st174{fill:#FFB344;}
	.st175{fill:#983262;}
	.st176{fill:#662E57;}
	.st177{fill:#FF6838;}
	.st178{fill:#AE4E32;}
	.st179{fill:#0074A3;}
	.st180{fill:#005C83;}
	.st181{fill:#933D2A;}
	.st182{fill:#590F38;}
	.st183{fill:#3F0829;}
	.st184{fill:#EFEFEF;}
	.st185{fill:#338DEF;}
	.st186{fill:#54A0FF;}
	.st187{fill:#00263F;}
	.st188{fill:#FFDC00;}
	.st189{fill:#FFD863;}
	.st190{fill:#FFC000;}
	.st191{fill:#414952;}
	.st192{fill:#23272B;}
	.st193{fill:#E9EDF5;}
	.st194{fill:#19CFFC;}
	.st195{fill:#B5EFFF;}
	.st196{fill:#96E8FF;}
	.st197{fill:#F03049;}
	.st198{fill:#D1093A;}
	.st199{fill:#FF7D81;}
	.st200{fill:#FF636E;}
	.st201{display:none;fill:url(#SVGID_103_);}
	.st202{display:none;}
	.st203{display:inline;}
	.st204{display:inline;fill:#66443B;}
</style>
<g>
	<rect x="146.6" y="11.1" class="st37" width="17" height="6.7"/>
	<rect x="175.5" class="st37" width="17" height="6.7"/>
	<rect x="176.3" y="20" class="st37" width="17" height="6.7"/>
	<rect x="121.4" y="27.4" class="st37" width="17" height="6.7"/>
	<rect x="116.3" y="53.3" class="st37" width="17" height="6.7"/>
	<rect x="142.2" y="53.3" class="st37" width="17" height="6.7"/>
	<polyline class="st135" points="175.2,3.5 163.9,14.3 176.4,23.3 	"/>
	<line class="st135" x1="146.7" y1="14.3" x2="130" y2="27.5"/>
	<polyline class="st135" points="124.5,53.8 130,33.9 150.5,53.2 	"/>
	<rect x="31.1" y="17.8" class="st37" width="17" height="6.7"/>
	<rect x="59.2" y="6.7" class="st37" width="17" height="6.7"/>
	<rect x="60.7" y="26.7" class="st37" width="17" height="6.7"/>
	<rect x="5.2" y="34.1" class="st37" width="17" height="6.7"/>
	<rect y="60" class="st37" width="17" height="6.7"/>
	<rect x="25.9" y="60" class="st37" width="17" height="6.7"/>
	<polyline class="st135" points="59.2,10.1 47.9,20.9 60.4,29.9 	"/>
	<line class="st135" x1="30.7" y1="20.9" x2="14" y2="34.1"/>
	<polyline class="st135" points="8.5,60.4 14,40.5 34.5,59.8 	"/>
	<line class="st135" x1="77.8" y1="30" x2="97" y2="30"/>
	<rect x="88.1" y="26.7" class="st14" width="20" height="6.7"/>
	<line class="st135" x1="108.9" y1="30" x2="121.4" y2="30"/>
	<line class="st135" x1="88.3" y1="29.8" x2="76.4" y2="10.1"/>
	<ellipse class="st136" cx="147" cy="152.3" rx="93.7" ry="20.9"/>
	<polygon class="st137" points="190.4,83.8 181.3,129.6 179.3,129.6 179.1,129.3 178.5,128.3 186.4,85.5 187.6,85 	"/>
	<polygon class="st20" points="187.6,84.9 179.1,129.1 178.5,128.1 186.4,85.4 	"/>
	<polygon class="st137" points="204.2,146 201.8,146.8 201.3,146.9 200.5,145.3 187.6,86.3 188.9,86 191.8,85.4 	"/>
	<polygon class="st20" points="201.8,146.8 201.3,146.9 200.5,145.3 187.6,86.3 188.9,86 	"/>
	<polygon class="st137" points="92.2,83.7 90.2,143 87.8,143.5 87.6,143.6 87,142.3 88.3,84.2 89.5,84.1 	"/>
	<polygon class="st20" points="89.5,84.1 87.8,143.5 87.6,143.6 87,142.3 88.3,84.2 	"/>
	<polygon class="st137" points="104.6,164 102.1,164.4 101.8,164.5 101.1,162.9 89.1,85.4 89.5,85.3 91.3,84.7 	"/>
	<polygon class="st20" points="102.1,164.4 101.8,164.5 101.1,162.9 89.1,85.4 89.5,85.3 	"/>
	<path class="st138" d="M156.9,78.9l9.1,11.7c0.6,0.8,1.7,1.2,2.7,1.1l37.5-4.4c1.5-0.2,2.6-1.4,2.6-2.9v-8.7L156.9,78.9z"/>
	<path class="st137" d="M187.4,80.7h2.2v0v3.7c0.3,0.5-0.1,0.9-0.7,0.7l0,0h-0.7c-0.5,0.2-0.9-0.2-0.9-0.7l0,0V80.7L187.4,80.7z"/>
	<path class="st138" d="M89.5,86.3L98.6,98c0.6,0.8,1.7,1.2,2.7,1.1l37.5-4.4c1.5-0.2,2.6-1.4,2.6-2.9v-8.7L89.5,86.3z"/>
	<path class="st137" d="M120,88.1h2.2v0.1v3.7c0.3,0.5-0.2,0.9-0.7,0.7l0,0h-0.7c-0.5,0.2-0.9-0.2-0.9-0.7l0,0V88.1L120,88.1z"/>
	<path class="st137" d="M99.6,92.2l111.6-13c0.9-0.1,1.5-0.9,1.4-1.8c-0.1-0.5-0.4-1-0.9-1.3l-20-10c-3.9-2-8.3-2.8-12.7-2.3
		L79.9,73.9c-1,0.1-1.8,1-1.7,2.1c0,0.4,0.2,0.8,0.5,1.1l11.5,11.8C92.7,91.4,96.2,92.6,99.6,92.2z"/>
	<path class="st137" d="M223.6,77.5l-1.2-0.7c0,0-1.3,0.9-2.3,4.9s2,0,2,0l1.3-2.7L223.6,77.5z"/>
	<path class="st137" d="M210.8,114.1c0,0-1.2,5.7-1.8,7.3c-0.3,0.8-1.6,1.5-3.1,2c-1.3,0.5-2.7,0.8-4.1,1.1
		c-1.6,0.2-22.1-3-32.1-5.2c-6.7-1.5-7.6-3.1-7.4-4.1c0-0.3,0.2-0.5,0.4-0.7c0,0,9.9-6.7,13.4-9.9c3.5-3.2,10.4-0.7,17.9,0.7
		C201.5,106.6,210.8,114.1,210.8,114.1z"/>
	<path class="st137" d="M222.6,76.8c0,0,4.6,3-10.9,9.2c0,0-8.4,4.8-7.3,24.4c0.1,0.9,0.3,1.7,0.8,2.5c1.6,2.6,5,9.3-0.7,10.1v1.5
		c0,0,10.4-5.2,11.5-9.6c1.1-4.4,4.9-29,6.8-31.3C224.5,81.4,225.8,77.8,222.6,76.8z"/>
	<path class="st20" d="M205.9,123.5c-1.3,0.5-2.7,0.8-4.1,1.1c-1.6,0.2-22.1-3-32.1-5.2c-6.7-1.5-7.6-3.1-7.4-4.1
		c4.4,1.5,18.8,6.3,23.9,6.7c6.1,0.5,17.8,1.8,18.7,0.9C205.2,122.5,205.6,122.9,205.9,123.5z"/>
	<path class="st137" d="M152.1,162.9l8.9-40.9c0,0,1.6-4.3,5.3-4.1l3.4,1.7c0,0-5.6-1.3-6.9,3c-1.2,4.3-9,40.3-9,40.3H152.1z"/>
	<polygon class="st137" points="173.6,144.4 177.2,119.2 178.8,119.2 175.1,144.4 	"/>
	<path class="st137" d="M207.9,168.1l-3.4-39c0,0,0-3.3,1.7-4.9s7.2-6.2,7.2-6.2s1.4-0.3,2.5,2.9s8.9,35.2,8.9,35.2l-1.5,0.7
		l-9.7-36.9l-6.7,6.3c0,0-1.3,2.4-0.7,4.5c0.7,2.2,3.1,37.4,3.1,37.4H207.9z"/>
	<polygon class="st137" points="197.4,123.7 205.9,126.1 207.8,124.3 202.9,123.7 	"/>
	<path class="st138" d="M122.1,54.9l1.4,20.6l30-2.9l-1.2-20.1c-0.1-1.1-1-2-2.1-1.9c0,0,0,0,0,0l-26.2,2.2
		C122.8,52.8,122,53.8,122.1,54.9z"/>
	<polygon class="st138" points="163.5,78.5 133.6,81.8 132.4,81.9 123.7,76.2 123.7,75 153.4,72.3 	"/>
	<polygon class="st20" points="133.6,81.8 132.4,81.9 123.7,76.2 123.7,75.1 	"/>
	<polygon class="st139" points="124.1,54.7 125.1,73 151.5,70.6 150.6,52.7 	"/>
	<polygon class="st20" points="139.8,78.1 143,80.3 152.7,79.3 149.4,77.3 	"/>
	<polygon class="st139" points="126.7,75.5 130.8,78.5 156.7,76 152.1,73 	"/>
	<rect x="172.5" y="47.4" class="st140" width="19.3" height="19.3"/>
	<rect x="172.5" y="47.4" class="st20" width="19.3" height="19.3"/>
	<path class="st141" d="M179.3,56.5c0,0,2.7,7.3,0,8.7c-2.7,1.3,9.7,0,9.7,0l3.5-2.8c0,0-7.9-2.2-6.7-7.4S179.3,56.5,179.3,56.5z"/>
	<path class="st20" d="M179.3,56.5c0,0,2.7,7.3,0,8.7c-2.7,1.3,9.7,0,9.7,0l3.5-2.8c0,0-7.9-2.2-6.7-7.4S179.3,56.5,179.3,56.5z"/>
	<path class="st141" d="M157.1,129.8c0,0,10.1,14.3,8.4,18.2s-0.8,6.4-4.2,7.8c-3.4,1.3-4.3,3.8-1.3,3.7c2.9-0.1,6.7-0.9,7.3-1.9
		c0.6-1,1.9-5.8,3.8-6.5s5.5-3.3,2.9-6.4c-2.6-3.1-9.1-14.7-8.6-15.9C166,127.5,157.1,129.8,157.1,129.8z"/>
	<path class="st139" d="M178.3,101.6c0,0-20.9,1.3-26.3,6.4c-5.4,5.1,4.7,23.9,5.8,24.2c1.1,0.2,9.9-0.7,9.5-3.1
		c-0.3-2.5-6.3-12.6-6.3-12.6s7.8-2.8,12-3.5s9-3.8,9-3.8L178.3,101.6z"/>
	<path class="st141" d="M168.7,98.4c0,0,0.3,12.5,3.5,12.9c3.1,0.4,0-9.5,0-9.5l-0.1-3.8L168.7,98.4z"/>
	<path class="st14" d="M178.3,65.7c0,0-5.8-1.7-7,2.8c-1.1,4.5-1.5,20-1.5,20l-2,12.4c0,0,3.7-1.1,4.5-0.6l4.7-6L178.3,65.7z"/>
	<path class="st20" d="M178.3,65.7c0,0-5.8-1.7-7,2.8c-1.1,4.5-1.5,20-1.5,20l-2,12.4c0,0,3.7-1.1,4.5-0.6l4.7-6L178.3,65.7z"/>
	<path class="st141" d="M186.2,132.1c0,0,3.9,7.7,6.3,7.6c2.4-0.1,4.6-1.6,5.7,3c1.1,4.6-0.2,3.4,1.1,6.1c1.3,2.7,1.6,7.4-1,8.5
		s-4.9,1.2-5.1,0c-0.1-1.2,2.2-1.2-0.4-5.6c-2.7-4.4-8.4-12.4-10.8-13.1C179.7,137.8,186.2,132.1,186.2,132.1z"/>
	<path class="st139" d="M196.5,97c0,0,8.1,13.5,2.8,17.4c-5.3,3.9-21,11.5-21,11.5s8.4,5.7,8.9,7.6s-4,7.1-5.6,7.2
		c-1.6,0.1-6.2-5.2-11.1-6.5c-4.9-1.3-8-11-2.6-14.6c5.4-3.6,10.4-9.5,10.4-9.5l-1.6-8.6L196.5,97z"/>
	<path class="st141" d="M189.4,52c0,4.8-4.9,8.7-9.7,8.7c-4.8,0-8.7-3.9-8.7-8.7c0-4.8,3.9-8.7,8.7-8.7
		C184.6,43.4,189.4,47.2,189.4,52z"/>
	<path class="st14" d="M182,64.5c0,0,7.8-3.4,7.8-3.8c0-0.4,4.5,1,5.5,1.9c1,0.9,1.6,0.8,2.2,2.6s-3.4,18.5-3.4,18.5
		s2.2,12.9,3.5,14.2c1.2,1.2-10,3-10,3s-7.4,1.3-8.7,1.9c-1.2,0.6-3.5,1.3-3,0s2.4-2.4-0.9-4c0,0,1.1-5.5,0-8s-6.3-11.5-2.1-18
		s6.1-8.9,6.1-8.9S180.4,65.2,182,64.5z"/>
	<path class="st141" d="M184.4,95.2c0,0-8.8,3.9-11.4,4.2c-2.6,0.4-10.6,2.4-6.2,4.2c4.4,1.8,11-0.9,11-0.9l9.3-3.9L184.4,95.2z"/>
	<path class="st20" d="M193.9,64.1c0,0,3.2-1.6,4.1,3.9c0.9,5.5,4,22.9,0,25.5s-13.4,6.7-13.4,6.7s-5.5-3.7-2.9-5.1s8.8-5.2,9.7-6.5
		c0.9-1.3,1.8-16.4,0.2-18.9C190,67.4,193.9,64.1,193.9,64.1z"/>
	<path class="st14" d="M193.7,62.8c0,0,4.5-0.2,5.4,5.3s4,22.9,0,25.5s-13.4,6.7-13.4,6.7s-5.5-3.7-2.9-5.1s8.8-5.2,9.7-6.5
		c0.9-1.3-0.7-15.4-2.2-17.9C188.6,68.4,193.7,62.8,193.7,62.8z"/>
	<path class="st140" d="M177.7,37.5c-1.4,0.2-2.9,0.7-3.6,1.9c-0.3,0.6-0.4,1.3-0.7,1.9c-0.7,1.7-2.5,2.8-3.7,4.2
		c-1.6,1.8-2.5,4.5-1.5,6.8c0.4,0.9,1,1.6,1.5,2.4c1.3,2.3,1.4,5.1,1.4,7.7l0.1,5.2c0,0.8,0,1.6-0.2,2.4c-0.2,0.8-0.8,1.5-1.5,1.7
		c1.7,0.6,3.6-0.1,4.6-1.6c0.2,1.3-0.3,2.7-1.2,3.6c2.1-0.5,3.8-2,4.9-3.8c1.1-1.8,1.6-3.9,1.8-6c0.1-1.1,0.2-2.3-0.2-3.3
		c-0.2-0.7-0.7-1.4-1.1-2.1c-1.1-1.7-2-3.6-2.3-5.6c-0.3-2,0-4.2,1.3-5.8c1-1.2,2.5-1.9,4.1-1.9c1.6,0.1,3,0.9,3.8,2.3
		c0.3,0.6,0.7,1.3,1.3,1.1c0.1,0,0.2-0.1,0.3-0.2c0.7-0.3,1.5,0.3,1.8,1c0.9,2.2-0.8,4.5-1,6.9c-0.2,2.2,1,4.2,2.5,5.9
		c2.5,2.8,5.8,4.8,9.4,5.8c-0.5-0.1-1-0.4-1.4-0.9c1.5,0.1,3-0.1,4.4-0.4c-1.6-1.2-3.2-2.4-4.5-3.9c-1.3-1.5-2.4-3.3-2.6-5.2
		c-0.4-2.6,0.6-5.5-0.5-7.9c-1-2.2-3.6-3.4-4.5-5.7c-0.9-2.3-1.6-4.3-4-5.3C183.6,37.9,180.7,37.1,177.7,37.5z"/>
</g>
</svg>
