<?xml version="1.0" encoding="utf-8"?>
<!-- Generator: Adobe Illustrator 22.0.1, SVG Export Plug-In . SVG Version: 6.00 Build 0)  -->
<svg version="1.1" id="logo" xmlns="http://www.w3.org/2000/svg" xmlns:xlink="http://www.w3.org/1999/xlink" x="0px" y="0px"
	 viewBox="0 0 483.5 333.3" style="enable-background:new 0 0 483.5 333.3;" xml:space="preserve">
<style type="text/css">
	.st0{fill:url(#SVGID_1_);}
	.st1{fill:url(#SVGID_2_);}
	.st2{fill:#494949;}
	.st3{fill:url(#SVGID_3_);}
	.st4{fill:url(#SVGID_4_);}
	.st5{opacity:0.9;}
	.st6{fill:#FFFFFF;}
	.st7{fill:#FCFCFC;}
	.st8{fill:url(#SVGID_5_);}
	.st9{fill:#F9DB46;}
	.st10{fill:#FC6681;}
	.st11{fill:#4C83D3;}
	.st12{fill:#66443B;}
	.st13{opacity:5.000000e-02;fill:#4C83D3;}
	.st14{fill:#6C63FF;}
	.st15{fill:none;stroke:#F4F5F9;stroke-width:0.5307;stroke-miterlimit:10;}
	.st16{fill:none;stroke:#535461;stroke-width:1.0614;stroke-miterlimit:10;}
	.st17{fill:#FFD037;}
	.st18{fill:none;stroke:#D5D6E0;stroke-width:1.0614;stroke-miterlimit:10;}
	.st19{fill:#4695BC;}
	.st20{opacity:0.1;enable-background:new    ;}
	.st21{fill:#D2D2D8;}
	.st22{fill:#F1F2FB;}
	.st23{fill:#E8EAF8;}
	.st24{opacity:0.1;fill:none;stroke:#000000;stroke-width:2.1228;stroke-miterlimit:10;enable-background:new    ;}
	.st25{fill:#3D6AB2;}
	.st26{fill:url(#SVGID_6_);}
	.st27{fill:#FDC2CC;}
	.st28{fill:#5F5D7E;}
	.st29{opacity:0.15;enable-background:new    ;}
	.st30{fill:#D39999;}
	.st31{fill:#865A61;}
	.st32{fill:#FAFBFC;}
	.st33{fill:none;stroke:#4C83D3;stroke-miterlimit:10;}
	.st34{opacity:0.1;fill:#6C63FF;enable-background:new    ;}
	.st35{fill:#444053;}
	.st36{opacity:0.7;}
	.st37{opacity:0.3;fill:#6C63FF;enable-background:new    ;}
	.st38{opacity:0.3;enable-background:new    ;}
	.st39{fill:url(#SVGID_7_);}
	.st40{fill:#A5636D;}
	.st41{opacity:5.000000e-02;enable-background:new    ;}
	.st42{fill:#BEBED0;}
	.st43{fill:#5C5C8E;}
	.st44{fill:none;}
	.st45{opacity:0.1;}
	.st46{fill:#F7CDDD;}
	.st47{fill:#4C3E42;}
	.st48{opacity:0.1;fill:#FFFFFF;enable-background:new    ;}
	.st49{fill:#EFC8C4;}
	.st50{fill:#727A9C;}
	.st51{fill:#3ACC6C;}
	.st52{fill:#65617D;}
	.st53{fill:#9D9CB5;}
	.st54{fill:url(#SVGID_8_);}
	.st55{fill:url(#SVGID_9_);}
	.st56{fill:url(#SVGID_10_);}
	.st57{fill:#F5F5F5;}
	.st58{fill:url(#SVGID_11_);}
	.st59{fill:url(#SVGID_12_);}
	.st60{fill:url(#SVGID_13_);}
	.st61{fill:#7CFCFF;}
	.st62{fill:url(#SVGID_14_);}
	.st63{fill:#FFFFA5;}
	.st64{fill:url(#SVGID_15_);}
	.st65{fill:#FF69B4;}
	.st66{fill:url(#SVGID_16_);}
	.st67{fill:#4D8AF0;}
	.st68{fill:#BE7C5E;}
	.st69{fill:#333333;}
	.st70{fill:#E0E0E0;}
	.st71{fill:#F55F44;}
	.st72{opacity:0.1;fill:#333333;enable-background:new    ;}
	.st73{fill:url(#SVGID_17_);}
	.st74{fill:url(#SVGID_18_);}
	.st75{fill:url(#SVGID_19_);}
	.st76{fill:url(#SVGID_20_);}
	.st77{fill:url(#SVGID_21_);}
	.st78{fill:url(#SVGID_22_);}
	.st79{fill:url(#SVGID_23_);}
	.st80{opacity:3.000000e-02;fill:none;stroke:#FFFFFF;stroke-width:0.7405;stroke-miterlimit:10;enable-background:new    ;}
	.st81{fill:#3F3D56;}
	.st82{fill:url(#SVGID_24_);}
	.st83{fill:url(#SVGID_25_);}
	.st84{fill:url(#SVGID_26_);}
	.st85{fill:url(#SVGID_27_);}
	.st86{fill:url(#SVGID_28_);}
	.st87{fill:url(#SVGID_29_);}
	.st88{fill:url(#SVGID_30_);}
	.st89{fill:url(#SVGID_31_);}
	.st90{fill:url(#SVGID_32_);}
	.st91{fill:url(#SVGID_33_);}
	.st92{fill:url(#SVGID_34_);}
	.st93{fill:url(#SVGID_35_);}
	.st94{fill:url(#SVGID_36_);}
	.st95{fill:url(#SVGID_37_);}
	.st96{fill:url(#SVGID_38_);}
	.st97{fill:url(#SVGID_39_);}
	.st98{fill:url(#SVGID_40_);}
	.st99{fill:url(#SVGID_41_);}
	.st100{fill:url(#SVGID_42_);}
	.st101{fill:url(#SVGID_43_);}
	.st102{fill:url(#SVGID_44_);}
	.st103{fill:url(#SVGID_45_);}
	.st104{fill:url(#SVGID_46_);}
	.st105{fill:#EE8E9E;}
	.st106{fill:#E8EAF2;}
	.st107{fill:#303D5C;}
	.st108{fill:url(#SVGID_47_);}
	.st109{fill:#EFB7B9;}
	.st110{opacity:0.2;fill:#6C63FF;enable-background:new    ;}
	.st111{fill:url(#SVGID_48_);}
	.st112{fill:url(#SVGID_49_);}
	.st113{fill:url(#SVGID_50_);}
	.st114{fill:url(#SVGID_51_);}
	.st115{fill:url(#SVGID_52_);}
	.st116{fill:url(#SVGID_53_);}
	.st117{fill:url(#SVGID_54_);}
	.st118{fill:url(#SVGID_55_);}
	.st119{fill:url(#SVGID_56_);}
	.st120{fill:url(#SVGID_57_);}
	.st121{fill:url(#SVGID_58_);}
	.st122{fill:url(#SVGID_59_);}
	.st123{fill:url(#SVGID_60_);}
	.st124{fill:url(#SVGID_61_);}
	.st125{fill:url(#SVGID_62_);}
	.st126{fill:url(#SVGID_63_);}
	.st127{fill:url(#SVGID_64_);}
	.st128{fill:url(#SVGID_65_);}
	.st129{fill:url(#SVGID_66_);}
	.st130{fill:url(#SVGID_67_);}
	.st131{fill:url(#SVGID_68_);}
	.st132{fill:url(#SVGID_69_);}
	.st133{fill:url(#SVGID_70_);}
	.st134{fill:url(#SVGID_71_);}
	.st135{fill:none;stroke:#3F3D56;stroke-width:0.7405;stroke-miterlimit:10;}
	.st136{fill:#F2F2F2;}
	.st137{fill:#47465A;}
	.st138{fill:#7A799C;}
	.st139{fill:#9493B6;}
	.st140{fill:#FF6584;}
	.st141{fill:#FBBEBE;}
	.st142{fill:url(#SVGID_72_);}
	.st143{fill:url(#SVGID_73_);}
	.st144{fill:url(#SVGID_74_);}
	.st145{fill:url(#SVGID_75_);}
	.st146{fill:url(#SVGID_76_);}
	.st147{fill:url(#SVGID_77_);}
	.st148{fill:url(#SVGID_78_);}
	.st149{fill:url(#SVGID_79_);}
	.st150{fill:url(#SVGID_80_);}
	.st151{fill:url(#SVGID_81_);}
	.st152{fill:url(#SVGID_82_);}
	.st153{fill:url(#SVGID_83_);}
	.st154{fill:url(#SVGID_84_);}
	.st155{fill:url(#SVGID_85_);}
	.st156{fill:url(#SVGID_86_);}
	.st157{fill:url(#SVGID_87_);}
	.st158{fill:url(#SVGID_88_);}
	.st159{fill:url(#SVGID_89_);}
	.st160{fill:url(#SVGID_90_);}
	.st161{fill:url(#SVGID_91_);}
	.st162{fill:url(#SVGID_92_);}
	.st163{fill:url(#SVGID_93_);}
	.st164{fill:url(#SVGID_94_);}
	.st165{fill:url(#SVGID_95_);}
	.st166{fill:url(#SVGID_96_);}
	.st167{fill:url(#SVGID_97_);}
	.st168{fill:url(#SVGID_98_);}
	.st169{fill:url(#SVGID_99_);}
	.st170{fill:url(#SVGID_100_);}
	.st171{fill:url(#SVGID_101_);}
	.st172{fill:url(#SVGID_102_);}
	.st173{fill:#FFCF35;}
	.st174{fill:#FFB344;}
	.st175{fill:#983262;}
	.st176{fill:#662E57;}
	.st177{fill:#FF6838;}
	.st178{fill:#AE4E32;}
	.st179{fill:#0074A3;}
	.st180{fill:#005C83;}
	.st181{fill:#933D2A;}
	.st182{fill:#590F38;}
	.st183{fill:#3F0829;}
	.st184{fill:#EFEFEF;}
	.st185{fill:#338DEF;}
	.st186{fill:#54A0FF;}
	.st187{fill:#00263F;}
	.st188{fill:#FFDC00;}
	.st189{fill:#FFD863;}
	.st190{fill:#FFC000;}
	.st191{fill:#414952;}
	.st192{fill:#23272B;}
	.st193{fill:#E9EDF5;}
	.st194{fill:#19CFFC;}
	.st195{fill:#B5EFFF;}
	.st196{fill:#96E8FF;}
	.st197{fill:#F03049;}
	.st198{fill:#D1093A;}
	.st199{fill:#FF7D81;}
	.st200{fill:#FF636E;}
	.st201{display:none;fill:url(#SVGID_103_);}
	.st202{display:none;}
	.st203{display:inline;}
	.st204{display:inline;fill:#66443B;}
</style>
<g>
	<path class="st34" d="M149.3,16.8c16.4-14.8,42.2-17.8,65.6-16.6C288.5,3.9,355,39.8,412.4,80.4c20.8,14.7,41.3,30.5,54.8,50.8
		c27.5,41.2,19.3,98.3-18.9,132.2c-13,11.5-28.8,20.4-45,28.3c-28.8,14-59.8,25.1-92.5,28.3c-23.3,2.3-46.9,0.4-70-2.7
		c-64.7-8.9-128.2-28.5-181.5-62c-23.4-14.7-45.4-33-55-56.8s-3.5-53.9,20.4-68c9.9-5.8,21.7-8.5,33.2-10.9
		c17-3.6,34.3-7.2,49.6-14.6c15.8-7.6,34.6-22.4,31.5-39.3C135.6,47.5,132.9,31.6,149.3,16.8z"/>
	<path class="st14" d="M107.4,187.4c0,0,4.3-3.1,8.8-1.2c0,0-1.3,2.7-6.9,2.6L107.4,187.4z"/>
	<path class="st14" d="M106.9,187.6c0,0-1.2,5.2,2.4,8.6c0,0,2-2.2-0.3-7.3L106.9,187.6z"/>
	<path class="st14" d="M101.1,182.8c0,0,0.2-4.4,10.1-3.3c0,0,0.2,2.8-3.3,4.3C104.6,185.3,102.9,184.2,101.1,182.8z"/>
	<path class="st14" d="M100.5,182.8c0,0-4.1,1.5,0,10.7c0,0,2.7-0.7,3.1-4.4S102.4,184.1,100.5,182.8z"/>
	<path class="st14" d="M94.7,176.8c0,0-0.8-7.2,9.3-6.8c0,0,1,6.5-7.5,8.5L94.7,176.8z"/>
	<path class="st14" d="M87.7,168.9c0,0,1.1-8.2,11.3-6.2c0,0,0.3,7.1-9.6,8.1L87.7,168.9z"/>
	<path class="st14" d="M82.5,160.7c0,0,2-8.1,12.1-6.1c0,0-2.1,7.3-11.4,7.5L82.5,160.7z"/>
	<path class="st14" d="M77.5,152.6c0,0,2-8.4,11.7-6.2c0,0-2.9,8-11,7.6L77.5,152.6z"/>
	<path class="st14" d="M74.2,144.9c0,0,1.4-10.2,10.5-8.3c0,0-2.3,9.3-9.8,9.7L74.2,144.9z"/>
	<path class="st14" d="M71.1,135.6c0,0,1.7-10.3,10.9-7.7c0,0-3.2,9.8-10.3,9L71.1,135.6z"/>
	<path class="st14" d="M69,126.9c0,0,2.9-10.3,10-10.3c0,0-3,10.9-9.3,12.3L69,126.9z"/>
	<path class="st14" d="M67.5,118.3c0,0,3.2-12.4,8.9-11.7c0,0-2.1,9.5-8.7,13.6L67.5,118.3z"/>
	<path class="st14" d="M66.5,108.1c0,0,3-10.4,8.7-11c0,0-1.9,10.1-8.4,13.6L66.5,108.1z"/>
	<path class="st14" d="M65.5,98.6c0,0,3.8-10.4,7.6-10.8c0,0-1.5,10.1-7.1,12.4L65.5,98.6z"/>
	<path class="st14" d="M64.7,89.8c0,0,2.2-11.2,5.9-12.3c0,0-0.2,9.1-5.5,13.1L64.7,89.8z"/>
	<path class="st14" d="M62.8,78.2c0,0,2.4-9,5.4-10.4c0,0-0.2,10.5-4.6,12.6L62.8,78.2z"/>
	<path class="st14" d="M61.3,70.6L60.2,55c0,0,6.1,11.6,1.7,18.3L61.3,70.6z"/>
	<path class="st14" d="M56.4,55.2c0,0-4.5-11.3-5.5-11.9c0,0,8.3,7.1,7.9,16.6L56.4,55.2z"/>
	<path class="st14" d="M94.4,176.8c0,0-7.2-0.7-6.6,9.5c0,0,6.5,0.8,8.3-7.7L94.4,176.8z"/>
	<path class="st14" d="M87.3,168.7c0,0-8.3,0.3-7.2,10.6c0,0,7,1,8.9-8.7L87.3,168.7z"/>
	<path class="st14" d="M82.4,161.4c0,0-7.7-3.2-12.1,6.1c0,0,7.1,2.7,12.9-4.6L82.4,161.4z"/>
	<path class="st14" d="M77.3,152.7c0,0-7.9-3.5-12,5.6c0,0,8.1,2.5,12.7-4.2L77.3,152.7z"/>
	<path class="st14" d="M74.3,145.1c0,0-7.7-6.8-13.3,0.6c0,0,7.8,5.5,13.7,1L74.3,145.1z"/>
	<path class="st14" d="M71.5,135.3c0,0-7.7-7-13.3,0.8c0,0,8.6,5.6,13.7,0.7L71.5,135.3z"/>
	<path class="st14" d="M70,126.6c0,0-6.1-8.8-12.8-6.6c0,0,6.3,9.4,12.8,8.7L70,126.6z"/>
	<path class="st14" d="M67.7,118.3c0,0-6.2-11.2-11.6-9c0,0,4.5,8.6,11.9,10.9L67.7,118.3z"/>
	<path class="st14" d="M66.9,107.5c0,0-6.3-8.7-11.8-7.4c0,0,5.2,8.9,12.5,10L66.9,107.5z"/>
	<path class="st14" d="M66.1,98.4c0,0-5-9.9-8.8-9.8c0,0,2.6,9.9,8.5,11.5L66.1,98.4z"/>
	<path class="st14" d="M64.8,89.5c0,0-5.5-10-9.4-9.9c0,0,3,8.6,9.2,10.8L64.8,89.5z"/>
	<path class="st14" d="M63.7,78.8c0,0-4.2-8.3-7.4-9.1c0,0,2.3,10.2,7,11.4L63.7,78.8z"/>
	<path class="st14" d="M60.9,70.3l-9.1-12.7c0,0,2.7,12.8,10.4,15.2L60.9,70.3z"/>
	<path class="st14" d="M54.4,56.4c0,0-10.2-6.5-10.6-7.6c0,0,5.4,9.4,14.9,10.8L54.4,56.4z"/>
	<path class="st14" d="M53.7,53.3c0,0-11.9-10.6-14.8-10.4c0,0,9.5,0.1,15.1,9.8L53.7,53.3z"/>
	<path class="st35" d="M63.6,80.4l-0.4,0.1c-2.8-16.8-6.3-26.6-9.9-27.7l0.1-0.4C57.2,53.6,60.7,63.3,63.6,80.4z"/>
	<path class="st35" d="M68.3,120.6l-0.6,0.1c-0.2-1.6-0.4-3.2-0.5-4.8c-1.1-13.9-2.6-26.7-4.1-36.2l0.3-0.5
		c1.6,9.6,3.3,22.7,4.4,36.6C68,117.4,68.1,119,68.3,120.6z"/>
	<path class="st35" d="M119.5,195c-0.1,0-11.4-4.6-23.4-15.9c-7-6.7-12.9-14.4-17.5-22.9c-5.7-10.6-9.5-23.8-11.1-36.7l0.7,0.3
		c3.6,28.9,17.5,48.3,28.5,58.7c11.9,11.3,23,15.8,23.1,15.8L119.5,195z"/>
	<g class="st36">
		<path class="st14" d="M124.9,160.9c0,0,5.1-1.7,8.8,1.5c0,0-2,2.2-7.3,0.5L124.9,160.9z"/>
		<path class="st14" d="M124.4,160.9c0,0-2.7,4.6-0.3,8.9c0,0,2.5-1.5,1.9-7.1L124.4,160.9z"/>
		<path class="st14" d="M120.3,154.7c0,0,1.5-4.2,10.6-0.2c0,0-0.7,2.7-4.4,3.1C122.8,158,121.6,156.5,120.3,154.7z"/>
		<path class="st14" d="M119.7,154.5c0,0-4.4,0.2-3.2,10.2c0,0,2.8,0.1,4.3-3.3C122.2,157.9,121.1,156.2,119.7,154.5z"/>
		<path class="st14" d="M115.9,147c0,0,1.3-7.1,10.9-3.8c0,0-1,6.5-9.6,5.9L115.9,147z"/>
		<path class="st14" d="M111.6,137.4c0,0,3.5-7.5,12.6-2.5c0,0-1.8,6.8-11.5,4.9L111.6,137.4z"/>
		<path class="st14" d="M109.1,128c0,0,4.3-7.1,13.4-2.2c0,0-4.2,6.3-13.1,3.8L109.1,128z"/>
		<path class="st14" d="M106.7,118.8c0,0,4.4-7.4,13.1-2.5c0,0-5.2,6.7-12.8,4L106.7,118.8z"/>
		<path class="st14" d="M105.9,110.5c0,0,4.3-9.3,12.5-4.8c0,0-4.9,8.2-12.2,6.4L105.9,110.5z"/>
		<path class="st14" d="M105.6,100.6c0,0,4.7-9.3,12.7-4.1c0,0-6,8.4-12.5,5.6L105.6,100.6z"/>
		<path class="st14" d="M106,91.7c0,0,5.9-9,12.6-6.9c0,0-6.1,9.5-12.6,9L106,91.7z"/>
		<path class="st14" d="M107.4,83.1c0,0,6.7-10.9,12-8.5c0,0-4.9,8.4-12.3,10.4L107.4,83.1z"/>
		<path class="st14" d="M109.5,73c0,0,6-9,11.5-7.9c0,0-4.9,9.1-12.1,10.5L109.5,73z"/>
		<path class="st14" d="M111.3,63.6c0,0,6.8-8.8,10.4-8c0,0-4.4,9.3-10.5,9.7L111.3,63.6z"/>
		<path class="st14" d="M113.2,54.9c0,0,5.4-10,9.3-10c0,0-2.9,8.6-9.1,10.9L113.2,54.9z"/>
		<path class="st14" d="M114.8,43.4c0,0,5-7.8,8.2-8.4c0,0-3.3,9.9-8.1,10.6L114.8,43.4z"/>
		<path class="st14" d="M115.7,35.7l3.5-15.2c0,0,2.4,12.9-3.9,18L115.7,35.7z"/>
		<path class="st14" d="M115.5,19.5c0,0-1-12.1-1.7-13c0,0,5.8,9.2,2.6,18.2L115.5,19.5z"/>
		<path class="st14" d="M115.7,146.9c0,0-6.7-2.8-9.1,7.1c0,0,6,2.7,10.2-4.8L115.7,146.9z"/>
		<path class="st14" d="M111.3,137c0,0-8-2.2-10.1,8c0,0,6.4,3,11.1-5.7L111.3,137z"/>
		<path class="st14" d="M108.8,128.6c0,0-6.4-5.4-13.4,2.2c0,0,6,4.7,13.6-0.6L108.8,128.6z"/>
		<path class="st14" d="M106.5,118.8c0,0-6.5-5.6-13.2,1.8c0,0,7,4.8,13.4-0.3L106.5,118.8z"/>
		<path class="st14" d="M105.9,110.7c0,0-5.3-8.8-12.9-3.4c0,0,5.8,7.6,12.8,5L105.9,110.7z"/>
		<path class="st14" d="M106.1,100.5c0,0-5.3-9-13-3.2c0,0,6.5,8,12.8,4.7L106.1,100.5z"/>
		<path class="st14" d="M107,91.6c0,0-3.2-10.2-10.3-10c0,0,3.3,10.8,9.6,12.1L107,91.6z"/>
		<path class="st14" d="M107.6,83.1c0,0-2.6-12.5-8.4-12c0,0,1.7,9.6,8.1,13.9L107.6,83.1z"/>
		<path class="st14" d="M110,72.6c0,0-3.4-10.2-9.1-10.6c0,0,2.3,10.1,9,13.3L110,72.6z"/>
		<path class="st14" d="M112,63.6c0,0-1.8-10.9-5.4-12c0,0-0.5,10.2,4.7,13.6L112,63.6z"/>
		<path class="st14" d="M113.4,54.8c0,0-2.3-11.2-6-12.2c0,0,0.3,9.1,5.6,13L113.4,54.8z"/>
		<path class="st14" d="M115.5,44.2c0,0-1.5-9.2-4.3-10.9c0,0-0.8,10.4,3.3,13L115.5,44.2z"/>
		<path class="st14" d="M115.3,35.3l-4.9-14.9c0,0-1.3,13,5.4,17.6L115.3,35.3z"/>
		<path class="st14" d="M113.3,20c0,0-7.8-9.3-7.9-10.4c0,0,2.4,10.6,11,14.7L113.3,20z"/>
		<path class="st14" d="M113.6,16.9c0,0-8.2-13.6-11-14.4c0,0,9,2.9,11.4,13.9L113.6,16.9z"/>
		<path class="st35" d="M114.9,45.7l-0.4-0.1c2.3-16.8,1.9-27.3-1.2-29.4l0.2-0.3C116.8,18.2,117.3,28.5,114.9,45.7z"/>
		<path class="st35" d="M107.5,85.5l-0.6-0.1c0.3-1.6,0.6-3.1,1-4.7c3.1-13.6,5.5-26.2,6.8-35.8l0.5-0.3c-1.3,9.6-3.6,22.7-6.7,36.3
			C108.1,82.3,107.8,83.9,107.5,85.5z"/>
		<path class="st35" d="M134.2,171.7c-0.1-0.1-9.5-7.8-17.6-22.2c-4.7-8.4-8.1-17.6-9.9-27.1c-2.3-11.9-2-25.6,0.4-38.4l0.6,0.5
			c-5.2,28.7,2.4,51.3,9.7,64.5c8,14.3,17.3,21.9,17.4,22L134.2,171.7z"/>
	</g>
	<path class="st14" d="M424.5,315.6c0,0-17.7-1.1-15.6,11.3c0,0-0.4,2.2,1.6,3.2c0,0,0-0.9,1.8-0.6c0.6,0.1,1.3,0.1,1.9,0.1
		c0.9-0.1,1.7-0.4,2.4-1l0,0c0,0,5-2.1,6.9-10.2c0,0,1.4-1.8,1.4-2.2l-3,1.3c0,0,1,2.2,0.2,3.9c0,0-0.1-3.9-0.7-3.8
		c-0.1,0-1.6,0.7-1.6,0.7s1.8,3.8,0.4,6.5c0,0,0.5-4.6-1-6.2l-2.1,1.2c0,0,2.1,3.9,0.7,7c0,0,0.4-4.8-1.1-6.7l-1.9,1.5
		c0,0,1.9,3.8,0.8,6.4c0,0-0.2-5.6-1.2-6.1c0,0-1.7,1.5-1.9,2.1c0,0,1.3,2.8,0.5,4.2c0,0-0.5-3.8-0.9-3.8c0,0-1.7,2.5-1.8,4.2
		c0,0,0.1-2.5,1.4-4.4c-1,0.2-1.8,0.6-2.5,1.3c0,0,0.3-1.8,2.9-1.9c0,0,1.4-1.9,1.7-2c0,0-2.7-0.2-4.3,0.5c0,0,1.4-1.7,4.8-0.9
		l1.9-1.5c0,0-3.5-0.5-5,0.1c0,0,1.7-1.5,5.5-0.4l2-1.2c0,0-3-0.6-4.8-0.4c0,0,1.9-1,5.4,0.1l1.5-0.7c0,0-2.2-0.4-2.8-0.5
		c-0.6-0.1-0.7-0.2-0.7-0.2c1.4-0.2,2.8-0.1,4.1,0.5C421.4,316.9,424.5,315.8,424.5,315.6z"/>
	<ellipse class="st34" cx="412.3" cy="331.2" rx="12.5" ry="2.1"/>
	<path class="st14" d="M458.4,282.9c0,0-10-0.6-8.8,6.4c-0.1,0.7,0.2,1.5,0.9,1.8c0,0,0-0.5,1-0.3c0.4,0.1,0.7,0.1,1.1,0.1
		c0.5,0,1-0.2,1.3-0.5l0,0c0,0,2.8-1.2,3.9-5.7c0,0,0.8-1,0.8-1.3l-1.7,0.7c0,0,0.6,1.2,0.1,2.2c0,0-0.1-2.2-0.4-2.1
		c-0.1,0-0.9,0.4-0.9,0.4s1,2.1,0.2,3.7c0,0,0.3-2.6-0.6-3.5l-1.2,0.7c0,0,1.2,2.2,0.4,4c0,0,0.2-2.7-0.6-3.8l-1.1,0.8
		c0,0,1.1,2.2,0.4,3.6c0,0-0.1-3.2-0.7-3.4c-0.4,0.3-0.8,0.7-1.1,1.2c0,0,0.7,1.6,0.3,2.4c0,0-0.3-2.1-0.5-2.1c0,0-0.9,1.4-1,2.4
		c0-0.9,0.3-1.8,0.8-2.5c-0.5,0.1-1,0.4-1.4,0.7c0,0,0.1-1,1.7-1.1c0,0,0.8-1.1,1-1.1c0,0-1.5-0.1-2.4,0.3c0,0,0.8-0.9,2.7-0.5
		l1.1-0.9c0,0-2-0.3-2.8,0c0,0,1-0.8,3.1-0.2l1.2-0.7c-0.9-0.2-1.8-0.3-2.7-0.2c0,0,1.1-0.6,3,0.1l0.8-0.4c0,0-1.3-0.2-1.6-0.3
		c-0.4,0-0.4-0.1-0.4-0.1c0.8-0.1,1.6,0,2.3,0.3C456.7,283.7,458.4,283,458.4,282.9z"/>
	<ellipse class="st34" cx="451.5" cy="291.7" rx="7.1" ry="1.2"/>
	<path class="st14" d="M399.5,289c0,0-12-0.7-10.6,7.7c-0.2,0.9,0.3,1.8,1.1,2.2c0,0,0-0.6,1.2-0.4c0.4,0.1,0.9,0.1,1.3,0.1
		c0.6,0,1.2-0.3,1.6-0.7l0,0c0,0,3.4-1.4,4.7-6.9c0,0,1-1.2,0.9-1.5l-2,0.9c0,0,0.7,1.5,0.1,2.7c0,0-0.1-2.6-0.5-2.6
		c-0.1,0-1.1,0.5-1.1,0.5s1.2,2.6,0.3,4.4c0,0,0.3-3.1-0.7-4.2l-1.4,0.8c0,0,1.4,2.6,0.4,4.8c0,0,0.2-3.3-0.7-4.6l-1.3,1
		c0,0,1.3,2.6,0.5,4.4c0,0-0.1-3.8-0.8-4.1c0,0-1.1,1-1.3,1.4c0,0,0.9,1.9,0.3,2.9c0,0-0.3-2.6-0.6-2.6c0,0-1.1,1.7-1.3,2.9
		c0.1-1.1,0.4-2.1,1-3c-0.7,0.1-1.3,0.4-1.7,0.9c0,0,0.2-1.2,2-1.3c0,0,0.9-1.3,1.2-1.4c0,0-1.8-0.2-2.9,0.3c0,0,1-1.1,3.3-0.6
		l1.3-1c0,0-2.4-0.3-3.4,0c0,0,1.2-1,3.8-0.3l1.4-0.8c0,0-2-0.4-3.3-0.3c0,0,1.3-0.7,3.7,0.1l1-0.4c0,0-1.5-0.3-1.9-0.3
		s-0.5-0.2-0.5-0.2c0.9-0.2,1.9,0,2.8,0.3C397.5,289.9,399.6,289.1,399.5,289z"/>
	<ellipse class="st34" cx="391.2" cy="299.6" rx="8.5" ry="1.4"/>
	<path class="st20" d="M298.8,293.3l-42,16.2l-61.4,23.7c-2.3-4.3-5.7-10.2-10-17.2c-14.5-24.1-38.6-61.5-60-94.5
		c-24.1-37.1-44.9-68.4-44.9-68.4l15-4.4l122.7-35.6L298.8,293.3z"/>
	<path class="st6" d="M299.6,290.4l-42,16.2l-61.4,23.7c-2.3-4.3-5.7-10.2-10-17.2c-14.5-24.1-38.6-61.5-60-94.5
		c-24.1-37.1-44.9-68.4-44.9-68.4l15-4.4l122.7-35.6L299.6,290.4z"/>
	<path class="st20" d="M299.6,290.4l-42,16.2c-23.4,4.9-47.4,7.1-71.3,6.6c-14.5-24.1-38.6-61.5-60-94.5L96.5,146l122.7-35.6
		L299.6,290.4z"/>
	<path class="st14" d="M330.9,280.3c0,0-65.2,38.6-162.6,29.9L90.7,121l37.2-6.4l128.6-22.1l73,184.2L330.9,280.3z"/>
	<path class="st20" d="M329.4,276.6c-15.4,0.8-33.1,0.7-51-1.4c-19.3-2.3-38.8-7-55.5-15.6c-13.9-7.2-25.9-15-36.3-24.4
		c-27-24.3-43.8-59.1-58.8-120.7l128.6-22.1L329.4,276.6z"/>
	<path class="st6" d="M377.3,266.1c0,0-48.1,9.4-97,3.6c-19.3-2.3-38.8-7-55.5-15.6c-13.9-7.2-25.9-15-36.3-24.4
		c-33.5-30.1-51.1-76.3-69.4-169.4c0,0,79.9,19.3,158.9-23C278.1,37.4,304.7,203.6,377.3,266.1z"/>
	<path class="st20" d="M280.3,269.7c-19.3-2.3-38.8-7-55.5-15.6c-13.9-7.2-25.9-15-36.3-24.4c28.5-2.3,32.6-17.9,32.6-17.9
		C242.2,245.4,280.3,269.7,280.3,269.7z"/>
	<path class="st37" d="M161,94.6c0,0,42.9,4.9,83.1-17.7l2.8,8.8c0,0-38.4,19.2-85.9,19.2V94.6z"/>
	<path class="st38" d="M161,138.2c0,0,42.7-3.4,90.2-26.4l1.6,3.7c0,0-17.5,22-91.8,27.8V138.2z"/>
	<path class="st38" d="M166,155.2c0,0,42.7-3.4,90.2-26.4l1.6,3.7c0,0-17.5,22-91.8,27.8V155.2z"/>
	<path class="st38" d="M170,173.6c0,0,42.7-3.4,90.2-26.4l1.6,3.7c0,0-17.5,22-91.8,27.8V173.6z"/>
	<path class="st38" d="M176,189.3c0,0,42.7-3.4,90.2-26.4l1.6,3.7c0,0-17.5,22-91.8,27.8V189.3z"/>
	<path class="st20" d="M181,206.3c0,0,42.7-3.4,90.2-26.4l1.6,3.7c0,0-17.5,22-91.8,27.8L181,206.3z"/>
	
		<rect x="259.4" y="102" transform="matrix(0.9466 -0.3223 0.3223 0.9466 -20.7322 91.4227)" class="st37" width="12.6" height="12.6"/>
	
		<rect x="266.2" y="119.8" transform="matrix(0.9466 -0.3223 0.3223 0.9466 -26.0958 94.5602)" class="st37" width="12.6" height="12.6"/>
	
		<rect x="277.1" y="154" transform="matrix(0.9466 -0.3223 0.3223 0.9466 -36.5322 99.8944)" class="st37" width="12.6" height="12.6"/>
	
		<rect x="283.4" y="172.3" transform="matrix(0.9466 -0.3223 0.3223 0.9466 -42.112 102.8874)" class="st37" width="12.6" height="12.6"/>
	
		<rect x="271.8" y="138.2" transform="matrix(0.9466 -0.3223 0.3223 0.9466 -31.7486 97.3303)" class="st37" width="12.6" height="12.6"/>
	
		<linearGradient id="SVGID_1_" gradientUnits="userSpaceOnUse" x1="102.5852" y1="-477.6258" x2="102.5852" y2="-274.7608" gradientTransform="matrix(1 0 0 -1 256.1 -181.7023)">
		<stop  offset="0" style="stop-color:#808080;stop-opacity:0.25"/>
		<stop  offset="0.54" style="stop-color:#808080;stop-opacity:0.12"/>
		<stop  offset="1" style="stop-color:#808080;stop-opacity:0.1"/>
	</linearGradient>
	<path class="st0" d="M407,188.4l-0.5-0.4c1.2-0.2,2.3-0.3,2.3-0.3s-4-14.4-10.7-19.2c-3.3-2.4-6.1-6.3-8.1-9.7
		c-3.6-6.1-7.6-12-12-17.6l-1.2-1.5l-0.5-0.7c0.7-1.1,1.6-2.2,1.5-3.4c0,0,0,0,0,0c0-0.1,0-0.1,0-0.2c0-0.2,0-0.3-0.1-0.5l0,0.1
		c-0.6-1.7-2.8-2.4-4.4-3.3c-3.8-2.1-5.4-6.8-6.2-11.1c-0.6-3.4-1.2-7.2-3.8-9.3c-1.7-1.4-4-1.9-5.7-3.2c-1.6-1.3-2.5-3.3-3.5-5.1
		c-1.7-3.1-3.9-5.9-6.8-7.7c-2.9-1.8-6.7-2.5-9.9-1.3c-1.2,0.5-2.4,1.2-3.6,1.7c-3,1.3-6.5,1.1-9.5,2.4c-3.7,1.6-6.1,5.3-8.3,8.7
		c-1.1,1.8-2.9,4.4-3.9,7c0-0.1,0-0.6,0-0.7c-0.5,1.2-0.8,2.4-0.8,3.6c0,0.5,0,1.1,0.2,1.6c0.5,1.7,1.8,2.6,3.4,3.3
		c0.1,0.5,0.2,1.1,0.4,1.6c1.5,4.9,5.2,8.7,10.1,10.3c0.1,0.1,0.3,0.1,0.4,0.1c0.1,0.3,0.3,0.6,0.5,0.9c1.3,1.7,4,1.2,5.8,0
		c0.1,0,0.1-0.1,0.2-0.2c0,0.2,0,0.5,0.1,0.7c0,0.2,0.1,0.4,0.1,0.6c1.6,8.5,5.6,13.1,5.6,13.1s0.4,0.6,1,1.5
		c-0.3,4.7,1.8,9,4.3,12.3c-2.1,1.2-6.7,3.7-9.6,3.4c0,0-10.5,1.4-11.7,0.7c-0.2-0.1-0.3,0-0.5,0.3c-2.9-1.8-12.1-6.8-12.9-0.3
		c-0.7,5.9,7.7,6.6,11.7,6.7c-0.2,1.7-0.3,3.1-0.3,3.1l17.2-1.2l8.9-1.3c-1,1.3-2.1,2.5-3.2,3c0,0-8.1,6.5-9.5,6.6
		c-0.2,0-0.3,0.2-0.2,0.5c-3.4,0-14,0.5-11.1,6.4c2.7,5.3,10.2,1.6,13.6-0.4c0.8,1.6,1.5,2.8,1.5,2.8l13.9-9.9l3-2.5
		c1,0,2-0.2,3-0.6c0,0,0,0.1,0,0.1c0.1,0.3,0.2,0.6,0.2,1c0.8,4.8-2,16.1-2,16.1s-6.2,15.9-3.2,18c3,2.2,0.8,11.3,0.8,11.3
		c0.5,0.9,1.1,1.7,1.8,2.5l0,0c0.3,0.4,0.7,0.7,1,1c-0.1,0.4-0.3,0.8-0.3,1.2c-0.5,1.9-0.3,4,0.5,5.8c2.1,5,0.8,12.2,0.8,12.2
		l-4,27.3c-1.9-0.3-4.4-0.5-5.4,0c-1.4,0.8-1,4.9,2.4,6.6c-1,0.8-2.2,1.3-3.4,1.6c-2.9,0.7-5,1.1-6.4,1.4c-0.1,0-7.1-1.5-8.9-0.5
		c-1.8,1-0.9,6.7,4.2,8.1c5,1.4,23.6,3.3,29,2.5l0.3-0.1c4.6-0.9,0.6-6.9,0.1-7.6c0-0.2-0.1-0.5-0.1-0.8c-0.1-0.6-0.1-1.3-0.2-2.1
		c5.1,0.5,10.1,0.7,12.4,0.3c0.1,0,0.2,0,0.3-0.1c4-0.8,0.5-6.1,0-6.7c0-0.2,0-0.3-0.1-0.5v-0.5c0,0,0.1-0.3,0.1-0.4
		c0-0.1,0-0.2,0-0.3c0-0.1,0-0.2,0-0.3c0-0.2,0.9-0.6,0.9-0.6v-0.3l-2-0.5V275l1-0.8c0,0,0-0.1,0-0.2c0-0.2,0-0.4,0-0.6
		c0-0.1,0-0.2,0-0.3c0-0.2,0-0.4,0-0.7c0-0.1,0-0.1,0-0.2c0-0.3,0-0.6,0-0.9l0-0.3c0-0.2,0-0.4,0.1-0.6c0-0.1,0-0.2,0-0.3
		c0-0.3,0.1-0.6,0.1-0.9c0-0.1,0-0.2,0-0.3c0-0.2,0.1-0.4,0.1-0.7c0-0.1,0-0.2,0.1-0.3c0.1-0.2,0.1-0.5,0.2-0.7c0-0.1,0-0.1,0-0.2
		c0.1-0.3,0.2-0.6,0.2-0.9c0-0.1,0.1-0.2,0.1-0.3c0.1-0.2,0.1-0.4,0.2-0.6l0.1-0.3c0.1-0.3,0.2-0.6,0.4-0.8c0-0.1,0.1-0.1,0.1-0.2
		c0.1-0.2,0.2-0.4,0.3-0.6l0.1-0.2c0.2-0.3,0.3-0.5,0.5-0.8c4.6-6.6,5.8-19.2,5.7-22c-0.1-2.8,0.5-8.5,1.4-9.3
		c0.6-0.6,3.8-5,5.7-8.4c0.3-0.6,0.6-1.2,0.9-1.7c1.4-0.5,2.3-0.8,2.3-0.8l0,0l0,0c-0.5-1.8-0.7-3.6-0.7-5.4c0-3.6,1-8.3,5.1-12.1
		c6-5.6,6.8-11.2,6.9-13.3c0-0.2,0,0.1,0-0.1C407,188.6,407,188.4,407,188.4z"/>
	<path class="st40" d="M391,223.2c-1.6,2.9-3.4,5.7-5.4,8.3c-0.8,0.8-1.4,6.5-1.3,9.2c0.1,2.7-1,15.2-5.4,21.7
		c-4.4,6.5-2.1,17.7-2.1,17.7l-7,2.5h-8.4l-5.8-1.7l-1.5-4.2c0,0,2-0.3,7.1-1.5c2.9-0.6,5-3,5.3-6l3.6-24.9c0,0,1.1-6.3-0.7-10.6
		c-1-2.5-0.8-5.3,0.6-7.6l0.1-0.2c0,0,5.5-4.3,11.1-7.1c5-2.4,10-3.5,11.4,0.7C392.5,220.1,391.9,221.5,391,223.2z"/>
	<path class="st41" d="M391,223.2c-1.6,2.9-3.4,5.7-5.4,8.3c-0.8,0.8-1.4,6.5-1.3,9.2c0.1,2.7-1,15.2-5.4,21.7
		c-3.1,4.6-2.9,11.5-2.5,15.2c0.2,1.5,0.4,2.5,0.4,2.5l-7,2.5h-8.4l-5.8-1.7l-1.5-4.2c0,0,0.5-0.1,1.7-0.3c1.2-0.2,2.9-0.6,5.5-1.2
		c2.9-0.6,5-3,5.2-6l3.6-24.9c0,0,1.1-6.3-0.7-10.6c-1-2.5-0.8-5.3,0.6-7.6l0.1-0.2c0,0,5.5-4.3,11.1-7.1c5-2.4,10-3.5,11.4,0.7
		C392.5,220.1,391.9,221.5,391,223.2z"/>
	<path class="st20" d="M376.7,280.1l-7,2.5h-8.4l-5.8-1.7l-1.5-4.2c0,0,0.5-0.1,1.7-0.3c-0.2,1.6,0.9,3.1,2.4,3.4l3.3,0.1
		c0.5,0,0.9,0,1.4,0c4.6,0,9.2-0.8,13.6-2.3C376.5,279.1,376.7,280.1,376.7,280.1z"/>
	<path class="st42" d="M361.3,280.6l-3.3-0.1c0,0-3.1-0.7-2.3-4.1c0,0-5.9-1.3-7.5-0.5c-1.5,0.9-0.8,5.8,3.5,7
		c4.2,1.2,19.9,2.9,24.4,2.2l0.3-0.1c4.1-0.8,0-6.7,0-6.7l0,0C371.5,280,366.4,280.8,361.3,280.6z"/>
	<path class="st40" d="M381.6,224.4c-0.2,0.4-0.5,0.9-0.7,1.4c-2.1,3.8-5.4,8.5-6,9.1c-0.9,0.9-1.6,7.3-1.5,10.4
		c0.1,3.1-1.2,17.2-6.1,24.5c-2.5,3.8-3.1,8.9-3.1,13c0,1.4,0.1,2.8,0.2,4.2c0.2,1.7,0.4,2.8,0.4,2.8l-7.9,2.8h-9.5l-6.6-1.9
		l-1.7-4.8c0,0,0.6-0.1,1.9-0.3s3.3-0.7,6.2-1.4c3.3-0.7,5.7-3.4,5.9-6.7l4-28.1c0,0,1.2-7.1-0.8-12c-0.7-1.8-0.9-3.8-0.5-5.7
		c0.2-1.1,0.7-2.1,1.3-3c0,0,1.5-1.2,3.8-2.8c1-0.7,2.2-1.5,3.5-2.3c5.6-3.5,12.9-7,16.5-4.4c0.8,0.6,1.3,1.4,1.6,2.3
		C382.7,221.9,382.3,223,381.6,224.4z"/>
	<path class="st20" d="M364.9,289.8l-7.9,2.8h-9.5l-6.6-1.9l-1.7-4.8c0,0,0.6-0.1,1.9-0.3c-0.2,1.2,0.3,2.3,1.1,3.1
		c0.7,0.6,1.5,0.9,2.4,0.9l3,0.1c0.5,0,1.1,0,1.6,0c5.2,0,10.4-0.9,15.4-2.6C364.7,288.7,364.9,289.8,364.9,289.8z"/>
	<path class="st42" d="M347.5,290.1l-3-0.1c-0.9,0-1.7-0.3-2.4-0.9c-0.8-0.7-1.4-1.8-1-3.8c0,0-6.7-1.5-8.4-0.5
		c-1.7,1-0.9,6.6,4,7.9c4.7,1.3,22.4,3.3,27.5,2.5l0.3-0.1c4.6-0.9,0-7.6,0-7.6l0,0C359,289.4,353.3,290.3,347.5,290.1z"/>
	<path class="st20" d="M391,223.2c-2.9,1-7.1,2.3-9.4,2.4c-0.2,0-0.5,0-0.7,0l0,0c-1.6-0.2-6.6,0.1-11.2,0.5
		c-1.8,0.2-3.6,0.3-5.1,0.5c-2.2,0.2-3.7,0.4-3.7,0.4v-1.4c1-0.7,2.2-1.5,3.5-2.3c5.6-3.5,12.9-7,16.5-4.4c5-2.4,10-3.5,11.4,0.7
		C392.5,220.1,391.9,221.5,391,223.2z"/>
	<path class="st43" d="M404.8,190.2c-0.1,2.1-0.9,7.6-6.6,13.2c-7.3,7.1-4.2,17.3-4.2,17.3s-8.7,3.4-12.4,3.5c-0.2,0-0.5,0-0.7,0
		c-2.2-0.3-11.1,0.5-16.3,1c-2.2,0.2-3.7,0.4-3.7,0.4v-30.1l40.1-9.7l3.6,3.6C404.8,189.6,404.8,189.9,404.8,190.2z"/>
	<g class="st45">
		<path d="M361.7,225.2l-0.7,0.1v0.3c0,0,1.5-0.2,3.7-0.4c3.7-0.4,9.3-0.9,13-1.1C375.1,223.9,366.6,224.7,361.7,225.2z"/>
		<path d="M404.7,189.3l-3.6-3.6l-2.4,0.6l3,3c0,0.3,0,0.6,0,0.9c-0.1,2.1-0.9,7.6-6.6,13.2c-7.3,7.1-4.2,17.3-4.2,17.3
			s-7.2,2.8-11.3,3.4c0.4,0,0.8,0,1.2,0.1c0.2,0,0.5,0,0.7,0c3.7-0.1,12.4-3.5,12.4-3.5s-3.1-10.2,4.2-17.3
			c5.7-5.6,6.5-11.1,6.6-13.2C404.8,189.9,404.8,189.6,404.7,189.3z"/>
	</g>
	<path class="st40" d="M325,168.9c0,0-12.1-8.4-13-0.8c-0.9,7.6,13,6.5,13,6.5V168.9z"/>
	<path class="st46" d="M345.5,163.4c0,0-6.6,4.3-10.2,4.1c0,0-9.9,1.3-11.1,0.7s-1.9,9.6-1.9,9.6l16.3-1.2l10.5-1.6
		c0,0,5.2-3.2,5.2-5.9C354.3,166.3,345.5,163.4,345.5,163.4z"/>
	<path class="st41" d="M345.5,163.4c0,0-6.6,4.3-10.2,4.1c0,0-9.9,1.3-11.1,0.7s-1.9,9.6-1.9,9.6l16.3-1.2l10.5-1.6
		c0,0,5.2-3.2,5.2-5.9C354.3,166.3,345.5,163.4,345.5,163.4z"/>
	<path class="st40" d="M335.8,185.3c0,0-14.8-0.6-11.5,6.3c3.3,6.9,14.5-1.5,14.5-1.5L335.8,185.3z"/>
	<path class="st43" d="M351,170.6c0,0-12-9-10.3-19.9c1.7-10.9,10.3,8.3,10.3,8.3V170.6z"/>
	<path class="st40" d="M347,121.2c0,3.9-1.5,7.7-4.3,10.5c-0.7,0.7-1.4,1.3-2.2,1.9c-1.5,1.1-3.2,1.8-5,2.3
		c-0.7,0.2-1.4,0.3-2.1,0.4c-0.5,0.1-1,0.1-1.6,0.1c-1.7,0-3.4-0.3-5-0.8c-8.3-2.9-12.4-12.2-8.8-20.4c2.7-6.2,9.4-9.8,16-8.8
		C341.7,107.4,347,113.8,347,121.2L347,121.2z"/>
	<path class="st20" d="M404.8,190.2c-1.4,0.3-3,0.7-3,1.4c0,1.2-18.9,7.6-18.9,7.6s0.7,1.6-1.2,4.5c-1.9,2.8-17.3,19.1-17.3,19.1
		l0.1,0.5l0.2,1.9l0.9,9c0,0-5.9-2.1-7.8-1.9c-0.6,0.1-1.3-0.3-1.9-0.9c0.2-1.1,0.7-2.1,1.3-3c0,0,1.5-1.2,3.8-2.8v-30.1l40.1-9.7
		l3.6,3.6C404.8,189.6,404.8,189.9,404.8,190.2z"/>
	<path class="st46" d="M406.5,188.6c0,0-4.7,0.5-4.7,1.7s-18.9,7.6-18.9,7.6s0.7,1.6-1.2,4.5c-1.9,2.8-17.3,19.1-17.3,19.1l1.2,11.3
		c0,0-5.9-2.1-7.8-1.9c-0.8,0.1-1.8-0.7-2.6-1.6c-0.6-0.8-1.2-1.6-1.7-2.4c0,0,2.1-9-0.7-11.1c-2.8-2.1,3.1-17.7,3.1-17.7
		s2.7-11.1,1.9-15.8c0-0.3-0.1-0.6-0.2-0.9c0,0,0-0.1,0-0.1c-1.7-4.5-19.8-42.7-19.8-42.7c0-1.1,0.1-2.2,0.2-3.2
		c0-0.3,0.1-0.6,0.1-0.9c0.1-0.6,0.2-1.1,0.4-1.7c0.1-0.4,0.2-0.7,0.3-1c0.6-1.4,1.4-2.5,2.7-2.6c0,0,1.4-1.6,4.7-2
		c2.4-0.3,5.9,0,10.6,2c11.1,4.7,13.7,5,13.7,5l5.6,7.3l1.1,1.5c4.2,5.5,8,11.3,11.4,17.3c1.9,3.3,4.5,7.2,7.6,9.6
		C402.7,174.4,406.5,188.6,406.5,188.6z"/>
	<path class="st20" d="M365,161.2c0,0,15.8,3.9,21.9,13.7L365,161.2z"/>
	<path class="st20" d="M369.9,178.5c0,0,3,20,2.2,21.5C371.2,201.5,369.9,178.5,369.9,178.5z"/>
	<path class="st20" d="M368.8,188.8c-1.1,1.5-5.8,13.1-5.8,13.1l1.3,19.5l1.2,11.3c0,0-5.9-2.1-7.8-1.9c-0.8,0.1-1.8-0.7-2.6-1.6
		c1.2-6.6,3.8-20.5,4.3-20.8c0.6-0.4,3.8-11.5,4-14.6c0.2-3.1,4.6-10.1,4.6-10.1S370,187.3,368.8,188.8z"/>
	<path class="st20" d="M364.4,169.6c-0.3,0.9-0.7,6-0.7,6c-0.3,4.5-3.8,6-5.9,6.5c0-0.3-0.1-0.6-0.2-0.9c-1.4-4-19.9-42.8-19.9-42.8
		c0-2,0.3-3.9,0.7-5.8c4-1.2,10.4,0.6,10.4,0.6c1.8-0.2,7.8,11.7,7.8,11.7s4,9.1,4.4,10.4c0.4,1.2,0,3.3,0.2,4s2,1.3,2.3,2.3
		c0.3,1,0.1,2.9,0.3,3.3C364,165.2,364.7,168.8,364.4,169.6z"/>
	<path class="st46" d="M363,168.9c-0.3,0.9-0.7,6-0.7,6c-0.3,3.8-2.7,5.4-4.7,6.2c-0.9,0.3-1.9,0.5-2.8,0.6l-2.8,2.5l-13.2,9.7
		c0,0-4.9-9.1-3.6-9.1c1.3-0.1,9-6.5,9-6.5c2.3-1.3,4.7-5.4,5.8-7.6c-0.1-0.3-0.1-0.5-0.1-0.8c-0.5-4-10.4-19.4-10.4-19.4
		s-3.8-4.5-5.3-12.9c0-0.2-0.1-0.4-0.1-0.6c0-0.3-0.1-0.5-0.1-0.8c-0.2-3.2,2.2-4.4,4.9-4.7l0,0c1.5-0.1,2.9-0.1,4.4,0.1
		c1.4,0.2,2.9,0.5,4.3,0.8c1.2-0.2,4.1,4.8,6,8.3l0,0c1,1.9,1.8,3.4,1.8,3.4s4,9.1,4.4,10.4c0.4,1.2,0,3.3,0.2,4
		c0.2,0.7,2,1.3,2.3,2.3c0.3,1,0.1,2.9,0.3,3.3C362.6,164.5,363.3,168,363,168.9z"/>
	<path class="st20" d="M378.2,148.5c-2.5,2.6-6.6,2.6-9.8,1.3s-6-3.7-9-5.5c-2-1.2-4-2.2-6-3.4l0,0c-0.3-0.2-0.6-0.4-0.8-0.6
		c-2.2-1.6-4.2-3.6-6.5-5c-1.5-1-3.3-1.6-5.2-1.7c-0.9,0-1.7,0.2-2.5,0.5c-0.1,0.1-0.3,0.1-0.4,0.2c-0.8,0.4-1.5,1-2.1,1.6
		c-0.7,0.6-1.3,1.2-2,1.8c0-0.2-0.1-0.4-0.1-0.6c0-0.3-0.1-0.5-0.1-0.8c-0.5,0.1-1,0.1-1.6,0.1c-1.7,0-3.4-0.3-5-0.8
		c0-0.1,0-0.1,0-0.2c-0.6-3-1.6-6.1-4-7.8c-1.4-1-3.6-1.4-5.5-2.1c-2.3-8,2.3-16.4,10.4-18.7c8-2.3,16.4,2.3,18.7,10.4
		c0.9,3.3,0.7,6.8-0.6,10c2.4-0.3,5.9,0,10.6,2c11.1,4.7,13.7,5,13.7,5l5.6,7.3c-0.6,0.9-1.3,1.8-1.3,2.9
		C374.6,146.2,376.6,147.6,378.2,148.5z"/>
	<path class="st47" d="M323.2,126.1c2.4,1.7,3.4,4.8,4,7.8c0.2,0.9,0.3,1.9,0.9,2.6c1.3,1.6,3.8,1.2,5.5,0c1.7-1.2,3-3,4.8-3.8
		c2.5-1.1,5.4-0.3,7.7,1.1s4.2,3.5,6.5,5c2.2,1.5,4.6,2.6,6.8,4c3,1.8,5.8,4.2,9,5.5c3.3,1.3,7.3,1.3,9.8-1.3
		c-1.7-0.9-3.6-2.3-3.5-4.3c0.1-2,2.4-3.5,2.3-5.5s-2.6-2.8-4.3-3.8c-3.6-2.1-5.1-6.7-5.9-10.9c-0.6-3.3-1.1-7-3.6-9.2
		c-1.6-1.4-3.8-1.8-5.4-3.2c-1.5-1.3-2.4-3.2-3.3-5.1c-1.6-3-3.7-5.8-6.5-7.6s-6.3-2.5-9.4-1.3c-1.2,0.5-2.2,1.2-3.4,1.7
		c-2.9,1.3-6.2,1.1-9,2.4c-3.5,1.6-5.8,5.2-7.9,8.6c-1.8,2.9-5.3,8-4.3,11.8C315.1,124.4,320.6,124.2,323.2,126.1z"/>
	<g class="st45">
		<path d="M377.1,137c0-0.2,0-0.3-0.1-0.5c-0.6,1-1.4,2-1.5,3.1c0,0.3,0,0.5,0.1,0.8C376.3,139.4,377.2,138.3,377.1,137z"/>
		<path d="M369.1,145.3c-3.3-1.3-6-3.7-9-5.5c-2.2-1.4-4.6-2.5-6.8-4c-2.2-1.6-4.2-3.6-6.5-5s-5.2-2.3-7.7-1.1
			c-1.9,0.8-3.2,2.6-4.8,3.8s-4.2,1.7-5.5,0c-0.6-0.7-0.7-1.7-0.9-2.6c-0.6-3-1.6-6.1-4-7.8c-2.6-1.8-8.1-1.6-9.1-5.4
			c-0.2-0.7-0.2-1.4-0.1-2.1c-0.6,1.7-1,3.4-0.6,4.9c1,3.8,6.5,3.6,9.1,5.4c2.4,1.7,3.4,4.8,4,7.8c0.2,0.9,0.3,1.9,0.9,2.6
			c1.3,1.6,3.8,1.2,5.5,0c1.7-1.2,3-3,4.8-3.8c2.5-1.1,5.4-0.3,7.7,1.1c2.3,1.4,4.2,3.5,6.5,5c2.2,1.5,4.6,2.6,6.8,4
			c3,1.8,5.8,4.2,9,5.5c3.3,1.3,7.3,1.3,9.8-1.3c-0.6-0.3-1.3-0.8-1.8-1.2C374.1,146.5,371.4,146.2,369.1,145.3z"/>
	</g>
	<path class="st43" d="M295.1,173.9l33.5-12.5c1.6-0.6,3.5,0.2,4.1,1.9c0,0,0,0,0,0l0,0c0.6,1.6-0.2,3.5-1.9,4.1c0,0,0,0,0,0
		l-33.5,12.5l-7.2-0.7L295.1,173.9z"/>
	<path class="st48" d="M331.6,162.3L331.6,162.3c0.6,1.6-0.2,3.5-1.9,4.1l-33.5,12.5l-5.4-0.5l-0.8,0.8l7.2,0.7l33.5-12.5
		c1.6-0.6,2.5-2.4,1.9-4.1v0l0,0c-0.2-0.7-0.7-1.2-1.3-1.6C331.4,161.9,331.5,162.1,331.6,162.3z"/>
	<polygon class="st49" points="295.1,173.9 297.3,179.9 291.4,179.3 290.1,179.1 291.9,177.3 	"/>
	<path class="st50" d="M291.9,177.3c0.1,0.1,0.3,0.2,0.3,0.4c0.1,0.2,0.1,0.4,0,0.6c-0.1,0.1-0.2,0.2-0.3,0.2
		c-0.3,0.2-0.5,0.5-0.5,0.8l-1.3-0.1L291.9,177.3z"/>
	<path class="st51" d="M265.8,109.2l-5.6-2.8c-0.3-0.2-0.5-0.6-0.3-0.9c0,0,0,0,0,0l0.6-1.2c0.2-0.3,0.6-0.5,0.9-0.3c0,0,0,0,0,0
		l3.8,1.9l4-8.1c0.2-0.3,0.6-0.5,0.9-0.3l1.2,0.6c0.3,0.2,0.5,0.6,0.3,0.9c0,0,0,0,0,0l-4.9,10C266.6,109.3,266.2,109.4,265.8,109.2
		C265.8,109.2,265.8,109.2,265.8,109.2z"/>
	<path class="st51" d="M278.2,144.5l-5.6-2.8c-0.3-0.2-0.5-0.6-0.3-0.9c0,0,0,0,0,0l0.6-1.2c0.2-0.3,0.6-0.5,0.9-0.3l3.8,1.9l4-8.2
		c0.2-0.3,0.6-0.5,0.9-0.3l1.2,0.6c0.3,0.2,0.5,0.6,0.3,0.9c0,0,0,0,0,0l-4.9,10C278.9,144.5,278.5,144.6,278.2,144.5L278.2,144.5z"
		/>
	<path class="st51" d="M272.6,127.6l-5.7-2.8c-0.3-0.2-0.5-0.6-0.3-0.9l0.6-1.2c0.2-0.3,0.6-0.5,0.9-0.3c0,0,0,0,0,0l3.8,1.9l4-8.2
		c0.2-0.3,0.6-0.5,0.9-0.3c0,0,0,0,0,0l1.2,0.6c0.3,0.2,0.5,0.6,0.3,0.9l-4.9,10C273.4,127.6,273,127.7,272.6,127.6
		C272.6,127.6,272.6,127.6,272.6,127.6L272.6,127.6z"/>
	<path class="st51" d="M283.5,160.4l-5.6-2.8c-0.3-0.2-0.5-0.6-0.3-0.9c0,0,0,0,0,0l0.6-1.2c0.2-0.3,0.6-0.5,0.9-0.3c0,0,0,0,0,0
		l3.8,1.9l4-8.1c0.2-0.3,0.6-0.5,0.9-0.3l1.2,0.6c0.3,0.2,0.5,0.6,0.3,0.9c0,0,0,0,0,0l-4.9,10C284.3,160.4,283.9,160.5,283.5,160.4
		z"/>
	<path class="st51" d="M72.5,268.5c0,0,2.5,3.3-1.1,8.2c-3.6,4.9-6.6,9.1-5.4,12.1c0,0,5.5-9.1,10-9.3S77.4,274,72.5,268.5z"/>
	<path class="st20" d="M72.5,268.5c0.2,0.3,0.4,0.7,0.5,1c4.4,5.1,6.7,9.9,2.5,10c-3.9,0.1-8.6,7.1-9.7,8.9c0,0.1,0.1,0.3,0.1,0.4
		c0,0,5.5-9.1,10-9.3C80.3,279.4,77.4,274,72.5,268.5z"/>
	<path class="st17" d="M77.1,272.6c0,1.1-0.1,2.1-0.3,2.1c-0.2,0-0.3-0.9-0.3-2.1c0-1.2,0.2-0.6,0.3-0.6
		C77,272,77.1,271.5,77.1,272.6z"/>
	<path class="st17" d="M78.7,274c-1,0.5-1.9,0.9-2,0.7c-0.1-0.1,0.7-0.7,1.7-1.3c1-0.6,0.6-0.2,0.7,0S79.7,273.4,78.7,274z"/>
	<path class="st51" d="M59.3,268.5c0,0-2.5,3.3,1.2,8.2c3.6,4.9,6.6,9.1,5.4,12.1c0,0-5.5-9.1-10-9.3S54.4,274,59.3,268.5z"/>
	<path class="st20" d="M59.3,268.5c-0.2,0.3-0.4,0.7-0.5,1c-4.4,5.1-6.7,9.9-2.5,10c3.9,0.1,8.6,7.1,9.7,8.9c0,0.1-0.1,0.3-0.1,0.4
		c0,0-5.5-9.2-10-9.3C51.5,279.4,54.4,274,59.3,268.5z"/>
	<path class="st17" d="M54.7,272.6c0,1.1,0.1,2.1,0.3,2.1c0.2,0,0.3-0.9,0.3-2.1c0-1.2-0.2-0.6-0.3-0.6
		C54.8,272,54.7,271.5,54.7,272.6z"/>
	<path class="st17" d="M53.1,274c1,0.5,1.9,0.9,2,0.7c0.1-0.1-0.7-0.7-1.7-1.3c-1-0.6-0.6-0.2-0.7,0C52.6,273.6,52.1,273.4,53.1,274
		z"/>
	<ellipse class="st34" cx="65.9" cy="309.7" rx="26" ry="4"/>
	<path class="st52" d="M79.3,284.1l-0.1,1l-0.2,1.4l-0.1,0.6l-0.2,1.4l-0.1,0.6l-0.2,1.4l-2,16.3c-0.2,1.5-2.6,2.6-5.4,2.6H60.7
		c-2.9,0-5.3-1.1-5.4-2.6l-2-16.3l-0.2-1.4l-0.1-0.6l-0.2-1.4l-0.1-0.6l-0.2-1.4l-0.1-1c-0.1-0.8,1.2-1.5,2.8-1.5h21.2
		C78.1,282.6,79.4,283.3,79.3,284.1z"/>
	<polygon class="st53" points="79.2,285.6 79,286.6 52.8,286.6 52.6,285.6 	"/>
	<polygon class="st53" points="78.9,287.6 78.8,288.6 53.1,288.6 52.9,287.6 	"/>
	<polygon class="st53" points="78.7,289.6 78.5,290.6 53.3,290.6 53.1,289.6 	"/>
</g>
</svg>
