<?xml version="1.0" encoding="utf-8"?>
<!-- Generator: Adobe Illustrator 22.0.1, SVG Export Plug-In . SVG Version: 6.00 Build 0)  -->
<svg version="1.1" id="logo" xmlns="http://www.w3.org/2000/svg" xmlns:xlink="http://www.w3.org/1999/xlink" x="0px" y="0px"
	 viewBox="0 0 252 178.9" style="enable-background:new 0 0 252 178.9;" xml:space="preserve">
<style type="text/css">
	.st0{fill:url(#SVGID_1_);}
	.st1{fill:url(#SVGID_2_);}
	.st2{fill:#494949;}
	.st3{fill:url(#SVGID_3_);}
	.st4{fill:url(#SVGID_4_);}
	.st5{opacity:0.9;}
	.st6{fill:#FFFFFF;}
	.st7{fill:#FCFCFC;}
	.st8{fill:url(#SVGID_5_);}
	.st9{fill:#F9DB46;}
	.st10{fill:#FC6681;}
	.st11{fill:#4C83D3;}
	.st12{fill:#66443B;}
	.st13{opacity:5.000000e-02;fill:#4C83D3;}
	.st14{fill:#6C63FF;}
	.st15{fill:none;stroke:#F4F5F9;stroke-width:0.5307;stroke-miterlimit:10;}
	.st16{fill:none;stroke:#535461;stroke-width:1.0614;stroke-miterlimit:10;}
	.st17{fill:#FFD037;}
	.st18{fill:none;stroke:#D5D6E0;stroke-width:1.0614;stroke-miterlimit:10;}
	.st19{fill:#4695BC;}
	.st20{opacity:0.1;enable-background:new    ;}
	.st21{fill:#D2D2D8;}
	.st22{fill:#F1F2FB;}
	.st23{fill:#E8EAF8;}
	.st24{opacity:0.1;fill:none;stroke:#000000;stroke-width:2.1228;stroke-miterlimit:10;enable-background:new    ;}
	.st25{fill:#3D6AB2;}
	.st26{fill:url(#SVGID_6_);}
	.st27{fill:#FDC2CC;}
	.st28{fill:#5F5D7E;}
	.st29{opacity:0.15;enable-background:new    ;}
	.st30{fill:#D39999;}
	.st31{fill:#865A61;}
	.st32{fill:#FAFBFC;}
	.st33{fill:none;stroke:#4C83D3;stroke-miterlimit:10;}
	.st34{opacity:0.1;fill:#6C63FF;enable-background:new    ;}
	.st35{fill:#444053;}
	.st36{opacity:0.7;}
	.st37{opacity:0.3;fill:#6C63FF;enable-background:new    ;}
	.st38{opacity:0.3;enable-background:new    ;}
	.st39{fill:url(#SVGID_7_);}
	.st40{fill:#A5636D;}
	.st41{opacity:5.000000e-02;enable-background:new    ;}
	.st42{fill:#BEBED0;}
	.st43{fill:#5C5C8E;}
	.st44{fill:none;}
	.st45{opacity:0.1;}
	.st46{fill:#F7CDDD;}
	.st47{fill:#4C3E42;}
	.st48{opacity:0.1;fill:#FFFFFF;enable-background:new    ;}
	.st49{fill:#EFC8C4;}
	.st50{fill:#727A9C;}
	.st51{fill:#3ACC6C;}
	.st52{fill:#65617D;}
	.st53{fill:#9D9CB5;}
	.st54{fill:url(#SVGID_8_);}
	.st55{fill:url(#SVGID_9_);}
	.st56{fill:url(#SVGID_10_);}
	.st57{fill:#F5F5F5;}
	.st58{fill:url(#SVGID_11_);}
	.st59{fill:url(#SVGID_12_);}
	.st60{fill:url(#SVGID_13_);}
	.st61{fill:#7CFCFF;}
	.st62{fill:url(#SVGID_14_);}
	.st63{fill:#FFFFA5;}
	.st64{fill:url(#SVGID_15_);}
	.st65{fill:#FF69B4;}
	.st66{fill:url(#SVGID_16_);}
	.st67{fill:#4D8AF0;}
	.st68{fill:#BE7C5E;}
	.st69{fill:#333333;}
	.st70{fill:#E0E0E0;}
	.st71{fill:#F55F44;}
	.st72{opacity:0.1;fill:#333333;enable-background:new    ;}
	.st73{fill:url(#SVGID_17_);}
	.st74{fill:url(#SVGID_18_);}
	.st75{fill:url(#SVGID_19_);}
	.st76{fill:url(#SVGID_20_);}
	.st77{fill:url(#SVGID_21_);}
	.st78{fill:url(#SVGID_22_);}
	.st79{fill:url(#SVGID_23_);}
	.st80{opacity:3.000000e-02;fill:none;stroke:#FFFFFF;stroke-width:0.7405;stroke-miterlimit:10;enable-background:new    ;}
	.st81{fill:#3F3D56;}
	.st82{fill:url(#SVGID_24_);}
	.st83{fill:url(#SVGID_25_);}
	.st84{fill:url(#SVGID_26_);}
	.st85{fill:url(#SVGID_27_);}
	.st86{fill:url(#SVGID_28_);}
	.st87{fill:url(#SVGID_29_);}
	.st88{fill:url(#SVGID_30_);}
	.st89{fill:url(#SVGID_31_);}
	.st90{fill:url(#SVGID_32_);}
	.st91{fill:url(#SVGID_33_);}
	.st92{fill:url(#SVGID_34_);}
	.st93{fill:url(#SVGID_35_);}
	.st94{fill:url(#SVGID_36_);}
	.st95{fill:url(#SVGID_37_);}
	.st96{fill:url(#SVGID_38_);}
	.st97{fill:url(#SVGID_39_);}
	.st98{fill:url(#SVGID_40_);}
	.st99{fill:url(#SVGID_41_);}
	.st100{fill:url(#SVGID_42_);}
	.st101{fill:url(#SVGID_43_);}
	.st102{fill:url(#SVGID_44_);}
	.st103{fill:url(#SVGID_45_);}
	.st104{fill:url(#SVGID_46_);}
	.st105{fill:#EE8E9E;}
	.st106{fill:#E8EAF2;}
	.st107{fill:#303D5C;}
	.st108{fill:url(#SVGID_47_);}
	.st109{fill:#EFB7B9;}
	.st110{opacity:0.2;fill:#6C63FF;enable-background:new    ;}
	.st111{fill:url(#SVGID_48_);}
	.st112{fill:url(#SVGID_49_);}
	.st113{fill:url(#SVGID_50_);}
	.st114{fill:url(#SVGID_51_);}
	.st115{fill:url(#SVGID_52_);}
	.st116{fill:url(#SVGID_53_);}
	.st117{fill:url(#SVGID_54_);}
	.st118{fill:url(#SVGID_55_);}
	.st119{fill:url(#SVGID_56_);}
	.st120{fill:url(#SVGID_57_);}
	.st121{fill:url(#SVGID_58_);}
	.st122{fill:url(#SVGID_59_);}
	.st123{fill:url(#SVGID_60_);}
	.st124{fill:url(#SVGID_61_);}
	.st125{fill:url(#SVGID_62_);}
	.st126{fill:url(#SVGID_63_);}
	.st127{fill:url(#SVGID_64_);}
	.st128{fill:url(#SVGID_65_);}
	.st129{fill:url(#SVGID_66_);}
	.st130{fill:url(#SVGID_67_);}
	.st131{fill:url(#SVGID_68_);}
	.st132{fill:url(#SVGID_69_);}
	.st133{fill:url(#SVGID_70_);}
	.st134{fill:url(#SVGID_71_);}
	.st135{fill:none;stroke:#3F3D56;stroke-width:0.7405;stroke-miterlimit:10;}
	.st136{fill:#F2F2F2;}
	.st137{fill:#47465A;}
	.st138{fill:#7A799C;}
	.st139{fill:#9493B6;}
	.st140{fill:#FF6584;}
	.st141{fill:#FBBEBE;}
	.st142{fill:url(#SVGID_72_);}
	.st143{fill:url(#SVGID_73_);}
	.st144{fill:url(#SVGID_74_);}
	.st145{fill:url(#SVGID_75_);}
	.st146{fill:url(#SVGID_76_);}
	.st147{fill:url(#SVGID_77_);}
	.st148{fill:url(#SVGID_78_);}
	.st149{fill:url(#SVGID_79_);}
	.st150{fill:url(#SVGID_80_);}
	.st151{fill:url(#SVGID_81_);}
	.st152{fill:url(#SVGID_82_);}
	.st153{fill:url(#SVGID_83_);}
	.st154{fill:url(#SVGID_84_);}
	.st155{fill:url(#SVGID_85_);}
	.st156{fill:url(#SVGID_86_);}
	.st157{fill:url(#SVGID_87_);}
	.st158{fill:url(#SVGID_88_);}
	.st159{fill:url(#SVGID_89_);}
	.st160{fill:url(#SVGID_90_);}
	.st161{fill:url(#SVGID_91_);}
	.st162{fill:url(#SVGID_92_);}
	.st163{fill:url(#SVGID_93_);}
	.st164{fill:url(#SVGID_94_);}
	.st165{fill:url(#SVGID_95_);}
	.st166{fill:url(#SVGID_96_);}
	.st167{fill:url(#SVGID_97_);}
	.st168{fill:url(#SVGID_98_);}
	.st169{fill:url(#SVGID_99_);}
	.st170{fill:url(#SVGID_100_);}
	.st171{fill:url(#SVGID_101_);}
	.st172{fill:url(#SVGID_102_);}
	.st173{fill:#FFCF35;}
	.st174{fill:#FFB344;}
	.st175{fill:#983262;}
	.st176{fill:#662E57;}
	.st177{fill:#FF6838;}
	.st178{fill:#AE4E32;}
	.st179{fill:#0074A3;}
	.st180{fill:#005C83;}
	.st181{fill:#933D2A;}
	.st182{fill:#590F38;}
	.st183{fill:#3F0829;}
	.st184{fill:#EFEFEF;}
	.st185{fill:#338DEF;}
	.st186{fill:#54A0FF;}
	.st187{fill:#00263F;}
	.st188{fill:#FFDC00;}
	.st189{fill:#FFD863;}
	.st190{fill:#FFC000;}
	.st191{fill:#414952;}
	.st192{fill:#23272B;}
	.st193{fill:#E9EDF5;}
	.st194{fill:#19CFFC;}
	.st195{fill:#B5EFFF;}
	.st196{fill:#96E8FF;}
	.st197{fill:#F03049;}
	.st198{fill:#D1093A;}
	.st199{fill:#FF7D81;}
	.st200{fill:#FF636E;}
	.st201{display:none;fill:url(#SVGID_103_);}
	.st202{display:none;}
	.st203{display:inline;}
	.st204{display:inline;fill:#66443B;}
</style>
<g>
	<path class="st34" d="M252,114.9c0,4.8-0.5,9.7-1.5,14.4c-0.3,1.6-0.7,3.1-1.2,4.7c-0.6,1.9-1.2,3.7-1.9,5.5
		c-0.4,0.9-0.7,1.8-1.2,2.7c0,4.9-0.9,9.8-2.6,14.4c-3.1,8.1-8.7,14.7-15.6,18.6c-4.4,2.4-9.3,3.7-14.2,3.7h-166
		c-8.8,0-17.1-3.1-23.8-8.5c-2-1.6-3.8-3.3-5.5-5.2c-2.3-2.6-4.3-5.5-6-8.6c-3.9-7.1-6.1-15.5-6.1-24.5c-4-8.2-6.4-18-6.4-28.6
		C0,90.2,3.8,78,9.9,68.8c1.3-1.9,2.7-3.7,4.2-5.4c1.5-1.6,3.1-3.2,4.8-4.6c1.4-1.1,2.8-2.1,4.3-3c0.6-0.4,1.2-0.7,1.9-1
		c0.6-0.3,1.1-0.6,1.7-0.8c0.7-0.3,1.4-0.6,2.1-0.8c0.7-0.2,1.4-0.5,2.1-0.7c1-0.3,2-0.5,3-0.7c0.9-0.1,1.7-0.3,2.6-0.3
		c0.7-0.1,1.4-0.1,2.1-0.1c0.1,0,0.2,0,0.4,0c0.8,0,1.5,0,2.3,0.1c0.1-0.2,0.2-0.4,0.2-0.6c0.3-0.7,0.6-1.3,0.9-2c0,0,0,0,0,0
		c0.1-0.1,0.1-0.2,0.2-0.3c0.3-0.5,0.5-1,0.8-1.6c0.1-0.2,0.2-0.5,0.4-0.7c0-0.1,0.1-0.1,0.1-0.2c0.1-0.2,0.3-0.5,0.4-0.7
		c0.7-1.2,1.3-2.4,2.1-3.6c0.1-0.1,0.1-0.2,0.2-0.3c0.1-0.2,0.2-0.4,0.3-0.5c0.3-0.5,0.6-1,0.9-1.4c0.2-0.3,0.4-0.7,0.7-1
		c0.6-0.8,1.1-1.7,1.7-2.5c0.6-0.8,1.2-1.6,1.8-2.4c0.1-0.1,0.2-0.2,0.3-0.3l0.9-1.2l0,0l0.1-0.2l0,0l0.3-0.4c0.5-0.6,1-1.2,1.5-1.8
		c2.5-2.9,5.3-5.7,8.2-8.3c0.1-0.1,0.2-0.2,0.3-0.3c0.5-0.5,1.1-0.9,1.6-1.4c3-2.5,6.2-4.8,9.5-6.9c0.2-0.1,0.5-0.3,0.7-0.4
		c2.9-1.8,6-3.4,9.1-4.8c1.7-0.8,3.4-1.5,5.2-2.2c1.2-0.4,2.3-0.9,3.5-1.3c1.8-0.6,3.7-1.1,5.5-1.6c5.5-1.4,11.1-2.3,16.8-2.6
		c1.7-0.1,3.4-0.2,5.2-0.2c8.5,0,16.9,1.2,25.1,3.7c0.2,0.3,0.5,0.5,0.8,0.5h0.8c0.3,0.1,0.6,0.2,0.9,0.3c1.7,0.6,3.5,1.2,5.2,1.9
		l0.4,0.2c8.1,3.3,15.6,7.9,22.3,13.4c0.5,0.4,1,0.8,1.5,1.3c0.6-0.4,1.2-0.9,1.8-1.3c2.3-1.5,4.8-2.8,7.5-3.7
		c5.4-1.9,11.2-2.1,16.7-0.8c7.1,1.7,13.5,6.1,18.7,12.2c2.1,2.6,4,5.3,5.6,8.2c0.1,0.2,0.2,0.4,0.3,0.6c1.4,2.7,2.6,5.4,3.6,8.2
		c0,0.1,0.1,0.2,0.1,0.3c0.9,2.7,1.7,5.4,2.2,8.2c0,0.1,0.1,0.3,0.1,0.4c0.5,2.7,0.9,5.5,1.1,8.2c0,0.1,0,0.2,0,0.3
		c0.1,1.4,0.1,2.9,0.1,4.3c0,1.3,0,2.6-0.1,3.9c0,0.1,0,0.3,0,0.4c0,0.4,0,0.7-0.1,1.1c1.6,1.5,3.2,3.2,4.6,5
		c0.6,0.8,1.2,1.6,1.8,2.4c1.8,2.6,3.4,5.4,4.7,8.2C249.9,95.7,252,105,252,114.9z"/>
	<path class="st34" d="M229.4,170.7c0,3.2-9.8,6-25.8,8.2H52c-16.2-2.2-26-5.1-26-8.3c0-2.4,5.7-4.7,15.6-6.6l0,0l0.3-0.1
		c2.8-0.5,5.9-1,9.3-1.5l0.3,0l0,0c2.7-0.4,5.6-0.7,8.6-1.1l0.3,0c1.2-0.1,2.4-0.3,3.6-0.4l0,0l0.5,0c8.9-0.9,19-1.6,30-2h0
		c0,0,3.1-0.2,4.7-0.2c1.7-0.1,3.5-0.1,5.3-0.2c1.4,0,4.1,0.4,4.1,0.4h0c0,0,12.7-0.7,19.3-0.7c16.3,0,45.4,1.5,45.4,1.5h0.2
		c2.1,0.1,4.1,0.3,6.1,0.4l1.7,0.1c2.3,0.2,4.5,0.4,6.6,0.5l0,0C213.1,163,229.4,166.6,229.4,170.7z"/>
	<path class="st80" d="M68.1,22.4v6.4c0,0.5-0.4,0.9-0.9,0.9c0,0,0,0,0,0H55.5c2.5-2.9,5.2-5.6,8.1-8.1h3.6
		C67.8,21.5,68.1,21.9,68.1,22.4L68.1,22.4z"/>
	<path class="st6" d="M212.9,22.3V120c0,1.4-1.2,2.6-2.6,2.6H36.3c-1.4,0-2.6-1.2-2.6-2.6V52c0.9-0.1,1.7-0.3,2.6-0.3
		c0.7-0.1,1.4-0.1,2.1-0.1c0.1,0,0.2,0,0.4,0c0.8,0,1.5,0,2.3,0.1c0.1-0.2,0.2-0.4,0.2-0.6c0.3-0.7,0.6-1.3,0.9-2c0,0,0,0,0,0
		c0.1-0.1,0.1-0.2,0.2-0.3c0.3-0.5,0.5-1.1,0.8-1.6c0.1-0.2,0.2-0.5,0.4-0.7c0-0.1,0.1-0.1,0.1-0.2c0.1-0.2,0.3-0.5,0.4-0.7
		c0.7-1.2,1.3-2.4,2.1-3.6c0.1-0.1,0.1-0.2,0.2-0.3c0.1-0.2,0.2-0.4,0.3-0.5c0.3-0.5,0.6-1,0.9-1.4c0.2-0.3,0.4-0.7,0.7-1
		c0.6-0.8,1.1-1.7,1.7-2.5s1.2-1.6,1.8-2.5c0.1-0.1,0.2-0.2,0.3-0.3l0.9-1.2l0,0l0.1-0.2l0,0l0.3-0.4c0.5-0.6,1-1.2,1.5-1.8
		c2.5-3,5.3-5.8,8.2-8.3c0.1-0.1,0.2-0.2,0.3-0.3c0.5-0.5,1.1-1,1.6-1.4h110.9c0.5,0.4,1,0.8,1.5,1.3c0.6-0.4,1.2-0.9,1.8-1.3h31.2
		C211.8,19.7,212.9,20.8,212.9,22.3z"/>
	<path class="st81" d="M203.3,38.2v2.2H47.1c0.3-0.4,0.6-0.9,0.9-1.3c0.2-0.3,0.4-0.6,0.7-0.9H203.3z"/>
	<rect x="167" y="26.3" class="st81" width="2.2" height="92.6"/>
	<rect x="122.6" y="26.3" class="st81" width="2.2" height="92.6"/>
	<rect x="78.1" y="26.3" class="st81" width="2.2" height="92.6"/>
	
		<linearGradient id="SVGID_1_" gradientUnits="userSpaceOnUse" x1="-219.9049" y1="-406.8795" x2="-219.9049" y2="-397.2524" gradientTransform="matrix(1 0 0 -1 267.31 -351.6533)">
		<stop  offset="0" style="stop-color:#808080;stop-opacity:0.25"/>
		<stop  offset="0.54" style="stop-color:#808080;stop-opacity:0.12"/>
		<stop  offset="1" style="stop-color:#808080;stop-opacity:0.1"/>
	</linearGradient>
	<path class="st0" d="M52.2,45.6v9.6h-9.6v-6.8c0,0,0,0,0,0c0.1-0.1,0.1-0.2,0.2-0.3c0.2-0.5,0.5-1.1,0.8-1.6
		c0.1-0.2,0.2-0.5,0.4-0.7c0-0.1,0.1-0.1,0.1-0.2L52.2,45.6z"/>
	<path class="st61" d="M52.2,46.3v8.9h-9.6v-6.7c0.3-0.5,0.5-1,0.8-1.5c0.1-0.2,0.2-0.5,0.4-0.7L52.2,46.3z"/>
	
		<linearGradient id="SVGID_2_" gradientUnits="userSpaceOnUse" x1="-191.0054" y1="-372.3873" x2="-191.0054" y2="-362.7602" gradientTransform="matrix(1 0 0 -1 278.4 -320.1233)">
		<stop  offset="0" style="stop-color:#808080;stop-opacity:0.25"/>
		<stop  offset="0.54" style="stop-color:#808080;stop-opacity:0.12"/>
		<stop  offset="1" style="stop-color:#808080;stop-opacity:0.1"/>
	</linearGradient>
	<rect x="82.6" y="42.6" class="st1" width="9.6" height="9.6"/>
	<rect x="82.6" y="43.4" class="st61" width="9.6" height="8.9"/>
	
		<linearGradient id="SVGID_3_" gradientUnits="userSpaceOnUse" x1="-146.5725" y1="-391.6415" x2="-146.5725" y2="-382.0144" gradientTransform="matrix(1 0 0 -1 278.4 -320.1233)">
		<stop  offset="0" style="stop-color:#808080;stop-opacity:0.25"/>
		<stop  offset="0.54" style="stop-color:#808080;stop-opacity:0.12"/>
		<stop  offset="1" style="stop-color:#808080;stop-opacity:0.1"/>
	</linearGradient>
	<rect x="127" y="61.9" class="st3" width="9.6" height="9.6"/>
	<rect x="127" y="61.9" class="st61" width="9.6" height="8.9"/>
	
		<linearGradient id="SVGID_4_" gradientUnits="userSpaceOnUse" x1="-100.6586" y1="-397.5659" x2="-100.6586" y2="-387.9388" gradientTransform="matrix(1 0 0 -1 278.4 -320.1233)">
		<stop  offset="0" style="stop-color:#808080;stop-opacity:0.25"/>
		<stop  offset="0.54" style="stop-color:#808080;stop-opacity:0.12"/>
		<stop  offset="1" style="stop-color:#808080;stop-opacity:0.1"/>
	</linearGradient>
	<rect x="172.9" y="67.8" class="st4" width="9.6" height="9.6"/>
	<rect x="172.9" y="68.6" class="st61" width="9.6" height="8.9"/>
	
		<linearGradient id="SVGID_5_" gradientUnits="userSpaceOnUse" x1="-88.8099" y1="-403.4903" x2="-88.8099" y2="-393.8632" gradientTransform="matrix(1 0 0 -1 278.4 -320.1233)">
		<stop  offset="0" style="stop-color:#808080;stop-opacity:0.25"/>
		<stop  offset="0.54" style="stop-color:#808080;stop-opacity:0.12"/>
		<stop  offset="1" style="stop-color:#808080;stop-opacity:0.1"/>
	</linearGradient>
	<rect x="184.8" y="73.7" class="st8" width="9.6" height="9.6"/>
	<rect x="184.8" y="74.5" class="st61" width="9.6" height="8.9"/>
	
		<linearGradient id="SVGID_6_" gradientUnits="userSpaceOnUse" x1="-73.2584" y1="-387.1982" x2="-73.2584" y2="-377.5711" gradientTransform="matrix(1 0 0 -1 278.4 -320.1233)">
		<stop  offset="0" style="stop-color:#808080;stop-opacity:0.25"/>
		<stop  offset="0.54" style="stop-color:#808080;stop-opacity:0.12"/>
		<stop  offset="1" style="stop-color:#808080;stop-opacity:0.1"/>
	</linearGradient>
	<rect x="200.3" y="57.4" class="st26" width="9.6" height="9.6"/>
	<rect x="200.3" y="58.2" class="st61" width="9.6" height="8.9"/>
	
		<linearGradient id="SVGID_7_" gradientUnits="userSpaceOnUse" x1="-76.9611" y1="-400.5281" x2="-76.9611" y2="-390.901" gradientTransform="matrix(1 0 0 -1 278.4 -320.1233)">
		<stop  offset="0" style="stop-color:#808080;stop-opacity:0.25"/>
		<stop  offset="0.54" style="stop-color:#808080;stop-opacity:0.12"/>
		<stop  offset="1" style="stop-color:#808080;stop-opacity:0.1"/>
	</linearGradient>
	<rect x="196.6" y="70.8" class="st39" width="9.6" height="9.6"/>
	<rect x="196.6" y="71.5" class="st61" width="9.6" height="8.9"/>
	
		<linearGradient id="SVGID_8_" gradientUnits="userSpaceOnUse" x1="-177.6755" y1="-372.3873" x2="-177.6755" y2="-362.7602" gradientTransform="matrix(1 0 0 -1 278.4 -320.1233)">
		<stop  offset="0" style="stop-color:#808080;stop-opacity:0.25"/>
		<stop  offset="0.54" style="stop-color:#808080;stop-opacity:0.12"/>
		<stop  offset="1" style="stop-color:#808080;stop-opacity:0.1"/>
	</linearGradient>
	<rect x="95.9" y="42.6" class="st54" width="9.6" height="9.6"/>
	<rect x="95.9" y="43.4" class="st61" width="9.6" height="8.9"/>
	
		<linearGradient id="SVGID_9_" gradientUnits="userSpaceOnUse" x1="-223.5894" y1="-396.0848" x2="-223.5894" y2="-386.4577" gradientTransform="matrix(1 0 0 -1 278.4 -320.1233)">
		<stop  offset="0" style="stop-color:#808080;stop-opacity:0.25"/>
		<stop  offset="0.54" style="stop-color:#808080;stop-opacity:0.12"/>
		<stop  offset="1" style="stop-color:#808080;stop-opacity:0.1"/>
	</linearGradient>
	<rect x="50" y="66.3" class="st55" width="9.6" height="9.6"/>
	<rect x="50" y="66.3" class="st63" width="9.6" height="8.9"/>
	
		<linearGradient id="SVGID_10_" gradientUnits="userSpaceOnUse" x1="-183.5999" y1="-386.4577" x2="-183.5999" y2="-376.8306" gradientTransform="matrix(1 0 0 -1 278.4 -320.1233)">
		<stop  offset="0" style="stop-color:#808080;stop-opacity:0.25"/>
		<stop  offset="0.54" style="stop-color:#808080;stop-opacity:0.12"/>
		<stop  offset="1" style="stop-color:#808080;stop-opacity:0.1"/>
	</linearGradient>
	<rect x="90" y="56.7" class="st56" width="9.6" height="9.6"/>
	<rect x="90" y="57.4" class="st63" width="9.6" height="8.9"/>
	
		<linearGradient id="SVGID_11_" gradientUnits="userSpaceOnUse" x1="-132.5022" y1="-380.5333" x2="-132.5022" y2="-370.9062" gradientTransform="matrix(1 0 0 -1 278.4 -320.1233)">
		<stop  offset="0" style="stop-color:#808080;stop-opacity:0.25"/>
		<stop  offset="0.54" style="stop-color:#808080;stop-opacity:0.12"/>
		<stop  offset="1" style="stop-color:#808080;stop-opacity:0.1"/>
	</linearGradient>
	<rect x="141.1" y="50.8" class="st58" width="9.6" height="9.6"/>
	<rect x="141.1" y="51.5" class="st63" width="9.6" height="8.9"/>
	
		<linearGradient id="SVGID_12_" gradientUnits="userSpaceOnUse" x1="-80.6639" y1="-373.8684" x2="-80.6639" y2="-364.2413" gradientTransform="matrix(1 0 0 -1 278.4 -320.1233)">
		<stop  offset="0" style="stop-color:#808080;stop-opacity:0.25"/>
		<stop  offset="0.54" style="stop-color:#808080;stop-opacity:0.12"/>
		<stop  offset="1" style="stop-color:#808080;stop-opacity:0.1"/>
	</linearGradient>
	<rect x="192.9" y="44.1" class="st59" width="9.6" height="9.6"/>
	<rect x="192.9" y="44.9" class="st63" width="9.6" height="8.9"/>
	
		<linearGradient id="SVGID_13_" gradientUnits="userSpaceOnUse" x1="-119.1723" y1="-372.3873" x2="-119.1723" y2="-362.7602" gradientTransform="matrix(1 0 0 -1 278.4 -320.1233)">
		<stop  offset="0" style="stop-color:#808080;stop-opacity:0.25"/>
		<stop  offset="0.54" style="stop-color:#808080;stop-opacity:0.12"/>
		<stop  offset="1" style="stop-color:#808080;stop-opacity:0.1"/>
	</linearGradient>
	<rect x="154.4" y="42.6" class="st60" width="9.6" height="9.6"/>
	<rect x="154.4" y="43.4" class="st63" width="9.6" height="8.9"/>
	
		<linearGradient id="SVGID_14_" gradientUnits="userSpaceOnUse" x1="-119.9128" y1="-391.6415" x2="-119.9128" y2="-382.0144" gradientTransform="matrix(1 0 0 -1 278.4 -320.1233)">
		<stop  offset="0" style="stop-color:#808080;stop-opacity:0.25"/>
		<stop  offset="0.54" style="stop-color:#808080;stop-opacity:0.12"/>
		<stop  offset="1" style="stop-color:#808080;stop-opacity:0.1"/>
	</linearGradient>
	<rect x="153.7" y="61.9" class="st62" width="9.6" height="9.6"/>
	<rect x="153.7" y="61.9" class="st63" width="9.6" height="8.9"/>
	
		<linearGradient id="SVGID_15_" gradientUnits="userSpaceOnUse" x1="-164.3457" y1="-377.5711" x2="-164.3457" y2="-367.944" gradientTransform="matrix(1 0 0 -1 278.4 -320.1233)">
		<stop  offset="0" style="stop-color:#808080;stop-opacity:0.25"/>
		<stop  offset="0.54" style="stop-color:#808080;stop-opacity:0.12"/>
		<stop  offset="1" style="stop-color:#808080;stop-opacity:0.1"/>
	</linearGradient>
	<rect x="109.2" y="47.8" class="st64" width="9.6" height="9.6"/>
	<rect x="109.2" y="47.8" class="st63" width="9.6" height="8.9"/>
	
		<linearGradient id="SVGID_16_" gradientUnits="userSpaceOnUse" x1="-216.9245" y1="-380.5333" x2="-216.9245" y2="-370.9062" gradientTransform="matrix(1 0 0 -1 278.4 -320.1233)">
		<stop  offset="0" style="stop-color:#808080;stop-opacity:0.25"/>
		<stop  offset="0.54" style="stop-color:#808080;stop-opacity:0.12"/>
		<stop  offset="1" style="stop-color:#808080;stop-opacity:0.1"/>
	</linearGradient>
	<rect x="56.7" y="50.8" class="st66" width="9.6" height="9.6"/>
	<rect x="56.7" y="50.8" class="st65" width="9.6" height="8.9"/>
	
		<linearGradient id="SVGID_17_" gradientUnits="userSpaceOnUse" x1="-211.7407" y1="-391.6415" x2="-211.7407" y2="-382.0144" gradientTransform="matrix(1 0 0 -1 278.4 -320.1233)">
		<stop  offset="0" style="stop-color:#808080;stop-opacity:0.25"/>
		<stop  offset="0.54" style="stop-color:#808080;stop-opacity:0.12"/>
		<stop  offset="1" style="stop-color:#808080;stop-opacity:0.1"/>
	</linearGradient>
	<rect x="61.8" y="61.9" class="st73" width="9.6" height="9.6"/>
	<rect x="61.8" y="61.9" class="st65" width="9.6" height="8.9"/>
	
		<linearGradient id="SVGID_18_" gradientUnits="userSpaceOnUse" x1="-171.0106" y1="-393.1226" x2="-171.0106" y2="-383.4955" gradientTransform="matrix(1 0 0 -1 278.4 -320.1233)">
		<stop  offset="0" style="stop-color:#808080;stop-opacity:0.25"/>
		<stop  offset="0.54" style="stop-color:#808080;stop-opacity:0.12"/>
		<stop  offset="1" style="stop-color:#808080;stop-opacity:0.1"/>
	</linearGradient>
	<rect x="102.6" y="63.4" class="st74" width="9.6" height="9.6"/>
	<rect x="102.6" y="63.4" class="st65" width="9.6" height="8.9"/>
	
		<linearGradient id="SVGID_19_" gradientUnits="userSpaceOnUse" x1="-98.437" y1="-373.8684" x2="-98.437" y2="-364.2413" gradientTransform="matrix(1 0 0 -1 278.4 -320.1233)">
		<stop  offset="0" style="stop-color:#808080;stop-opacity:0.25"/>
		<stop  offset="0.54" style="stop-color:#808080;stop-opacity:0.12"/>
		<stop  offset="1" style="stop-color:#808080;stop-opacity:0.1"/>
	</linearGradient>
	<rect x="175.1" y="44.1" class="st75" width="9.6" height="9.6"/>
	<rect x="175.1" y="44.9" class="st65" width="9.6" height="8.9"/>
	
		<linearGradient id="SVGID_20_" gradientUnits="userSpaceOnUse" x1="-90.291" y1="-387.1982" x2="-90.291" y2="-377.5711" gradientTransform="matrix(1 0 0 -1 278.4 -320.1233)">
		<stop  offset="0" style="stop-color:#808080;stop-opacity:0.25"/>
		<stop  offset="0.54" style="stop-color:#808080;stop-opacity:0.12"/>
		<stop  offset="1" style="stop-color:#808080;stop-opacity:0.1"/>
	</linearGradient>
	<rect x="183.3" y="57.4" class="st76" width="9.6" height="9.6"/>
	<rect x="183.3" y="58.2" class="st65" width="9.6" height="8.9"/>
	
		<linearGradient id="SVGID_21_" gradientUnits="userSpaceOnUse" x1="-145.832" y1="-372.3873" x2="-145.832" y2="-362.7602" gradientTransform="matrix(1 0 0 -1 278.4 -320.1233)">
		<stop  offset="0" style="stop-color:#808080;stop-opacity:0.25"/>
		<stop  offset="0.54" style="stop-color:#808080;stop-opacity:0.12"/>
		<stop  offset="1" style="stop-color:#808080;stop-opacity:0.1"/>
	</linearGradient>
	<rect x="127.8" y="42.6" class="st77" width="9.6" height="9.6"/>
	<rect x="127.8" y="43.4" class="st65" width="9.6" height="8.9"/>
	
		<linearGradient id="SVGID_22_" gradientUnits="userSpaceOnUse" x1="-133.9832" y1="-400.5281" x2="-133.9832" y2="-390.901" gradientTransform="matrix(1 0 0 -1 278.4 -320.1233)">
		<stop  offset="0" style="stop-color:#808080;stop-opacity:0.25"/>
		<stop  offset="0.54" style="stop-color:#808080;stop-opacity:0.12"/>
		<stop  offset="1" style="stop-color:#808080;stop-opacity:0.1"/>
	</linearGradient>
	<rect x="139.6" y="70.8" class="st78" width="9.6" height="9.6"/>
	<rect x="139.6" y="71.5" class="st65" width="9.6" height="8.9"/>
	
		<linearGradient id="SVGID_23_" gradientUnits="userSpaceOnUse" x1="2126.4778" y1="-526.8481" x2="2126.4778" y2="-397.3979" gradientTransform="matrix(-1 0 0 -1 2297.4441 -351.6533)">
		<stop  offset="0" style="stop-color:#808080;stop-opacity:0.25"/>
		<stop  offset="0.54" style="stop-color:#808080;stop-opacity:0.12"/>
		<stop  offset="1" style="stop-color:#808080;stop-opacity:0.1"/>
	</linearGradient>
	<path class="st79" d="M196.5,72.9c-0.1-0.5-0.3-1-0.8-1.3c-0.4-0.3-0.8-0.5-1.3-0.8c-0.1-0.1-0.3-0.2-0.4-0.3
		c-0.1-0.1-0.2-0.3-0.2-0.4c-0.3-0.4-0.8-0.6-1.2-0.9c-0.8-0.5-1.1-1.3-1.5-2.2c0-0.1,0-0.1-0.1-0.2c-0.3-0.9-0.6-1.8-1.3-2.4
		c-0.9-0.8-2.4-0.9-3.4-0.2c-0.1,0.1-0.3,0.2-0.5,0.2c-0.2,0-0.3-0.1-0.5-0.2c-0.3-0.2-0.7-0.3-1.1-0.3c-0.2-0.8-0.3-1.6-0.3-2.4v0
		l0,0l0,0l0,0l0,0c0,0,0,0,0,0l0,0c0-0.2,0-0.4,0-0.6h0h0.1c0.2,0,0.3,0,0.5-0.1c0.1,0,0.1,0,0.2-0.1l0,0c0.6-0.3,0.9-0.9,1.1-1.5
		c0.2-0.4,0.3-0.8,0.5-1.2c0-0.1,0-0.1,0-0.2l0,0c0-0.1,0-0.2,0.1-0.3c0,0,0-0.1,0-0.1c0,0,0-0.1,0-0.1l0-0.1l0.1,0.1l0,0l0,0
		l0.2,0.2c1.1,0.8,2.2,1.5,2.7,1.5l0,0c0,0,0.1,0,0.1,0c0.3-0.2-0.3-0.8-1-1.5c-0.1-0.1-0.1-0.1-0.2-0.2c-0.5-0.5-1.1-0.9-1.5-1.2
		l-0.3-0.2c0.4-0.4,0.7-1.1,0.8-1.7c0.1-0.6,0.2-1.2,0.2-1.8v0c0-0.6,0-1.3-0.2-1.9c-0.3-1.2-1-2.4-2.1-3c-0.3-0.2-0.7-0.3-1-0.5
		c-0.1,0-0.1-0.1-0.2-0.1l0,0c-0.1-0.1-0.2-0.1-0.3-0.2c-0.1-0.1-0.1-0.1-0.1-0.2c0,0,0-0.1-0.1-0.1c0-0.1-0.1-0.2-0.2-0.3
		c-0.2-0.2-0.6-0.2-0.9-0.1h0.3h-0.1H183c-1.1,0-2.2-0.6-3.3-0.6c-1.2,0-2.3,0.7-3.3,1.2c-0.2,0.1-0.4,0.2-0.6,0.3
		c-0.2,0.1-0.3,0.2-0.5,0.2l0,0c-0.1,0-0.1,0.1-0.2,0.1l0,0c-0.4,0.3-0.7,0.6-0.9,1.1c-0.2,0.3-0.4,0.6-0.5,0.9
		c0,0.1-0.1,0.3-0.1,0.4c-1.4,1.4-2.2,3.3-2.2,5.3c0,0.1,0,0.2,0,0.3v0c0.1,3.2,2.2,5.9,5.3,6.8l0,0c0.1,0,0.2,0.1,0.3,0.1
		c0,0.1,0.1,0.1,0.1,0.2c0,0.1,0.1,0.3,0.1,0.4l0,0c0,0,0,0,0,0c0.1,0.4,0.2,1.2,0.2,1.6c0,0,0-0.3,0-0.3l0,0l0,0c0,0,0,0,0,0
		c-0.6,0.1-1.1,0.3-1.6,0.6c-0.6,0.4-1.1,1-1.4,1.7c0,0.1,0,0.1,0,0.2c-0.4-0.1-0.8-0.2-1.2-0.2c-0.4,0-0.8,0-1.1,0.3
		c-0.1,0.1-0.2,0.3-0.2,0.4c-0.1,0.1-0.2,0.4-0.3,0.5c-0.3,0.5-1.1,0.4-1.7,0.5c-0.1,0-0.1,0-0.2,0.1l0,0c-0.6,0.2-1.1,0.7-1.7,0.7
		c-0.2,0-0.5,0-0.7,0l0,0c-0.3,0.1-0.5,0.4-0.3,0.6c-0.3-0.1-0.6,0.1-0.8,0.4c-0.2,0.2-0.3,0.5-0.5,0.8c-0.2-0.3-0.5-0.4-0.8-0.3
		c-0.3,0.1-0.6,0.2-0.9,0.3c-0.1,0.1-0.2,0.1-0.4,0.1c-0.2,0-0.3,0-0.5,0c-0.7-0.1-1.5,0-2.2,0.3c-0.6,0.3-1.2-0.2-1.8-0.3
		c-0.2,0-0.5-0.1-0.7-0.2c0,0,0,0,0-0.1c0-0.1-0.1-0.1-0.1-0.2c0-0.1-0.1-0.2-0.1-0.3c-0.3-0.8-1-1.4-1.8-1.7l-0.1,0
		c0-0.1,0.1-0.2,0.1-0.4l0,0l0,0c0.1-1-0.4-2-1.4-2.4c0.1-0.8-0.2-1.6-0.8-2.1c-0.1-0.1-0.3-0.2-0.4-0.3l0,0
		c-0.1-0.1-0.1-0.1-0.1-0.2l0,0c-0.2-0.4-0.4-0.9-0.4-1.4c-0.2-0.3-0.3-0.4-0.5-0.7c-0.2-0.1-0.4-0.1-0.6-0.2V61
		c0-0.4,0-0.7-0.1-1.1c-0.2-0.8-0.5-1.5-1-2.1l0,0c-0.1-0.1-0.1-0.2-0.2-0.3l0,0c-0.1-0.1-0.2-0.2-0.2-0.3c-0.6-0.8-1.2-1.5-2-2
		c-0.3-0.1-0.6-0.3-0.8-0.4l-1.5-0.6c-0.1,0-0.2-0.1-0.3-0.1c-0.4,0-0.5,0.5-0.3,0.8c0,0,0,0.1,0.1,0.1c0.5,0.7,1.5,0.9,1.8,1.6
		c-0.1,0-0.3,0-0.4,0.1c-0.3,0.1-0.6,0.4-0.7,0.7c0,0.1-0.1,0.2-0.1,0.3c-0.1,0.1-0.3,0-0.5,0.1c-0.3,0.1-0.2,0.5-0.2,0.8
		c0,0.3-0.2,0.5-0.3,0.8c-0.1,0.2-0.1,0.4,0,0.6l0,0.1l0,0c0,0,0,0.1,0,0.1c0.1,0.2,0.1,0.4,0.3,0.6c0.3,0.4,0.6,0.7,1,1
		c0.2,0.2,0.5,0.4,0.8,0.6c0.1,0.1,0.1,0.1,0.2,0.1c0,0,0,0,0,0c0,0,0,0.1,0,0.1l0,0l0,0c0,0.1,0,0.2,0,0.3c0,0.1,0,0.1,0.1,0.2l0,0
		c0.1,0.1,0.1,0.1,0.2,0.2c0.6,0.6,1,1.3,1.2,2.1c0,0.2,0,0.3,0,0.5l0,0l0,0c-0.1,0.3-0.2,0.6-0.2,1c0,0.1,0,0.2,0,0.2l0,0
		c0.1,0.4,0.2,0.8,0.3,1.1c0.4,1,0.8,2.1,1.6,2.8c0.2,1.6,0.8,3.2,1.8,4.5c0.8,1.1,1.9,1.9,3.1,2.7c0.3,0.3,0.7,0.5,1.1,0.7
		c0.4,0.1,0.7,0.2,1.1,0.3c3.1,0.6,6.2,1,9.3,1.1l0.4,0h-0.1c0,0.2,0,0.3,0,0.5c0.1,1.6,0.1,3.3,0.1,4.9V86c0,0.1,0,0.2,0,0.3
		c0,0.3,0,0.6-0.1,0.9c-0.1,0.2-0.3,0.5-0.5,0.6c0,0.1-0.1,0.1-0.1,0.2c-0.7,0.9-0.8,2-0.8,3.1v0.3c0,0-0.1,0.3-0.1,0.5
		c0.1,1.5,0.3,2.9,0.5,4.4c0.3,1.4,0.1,2.9,0.3,4.2c0.1,0.5,0.2,0.9,0.3,1.4c0.3,0.7,0.5,1.4,0.8,2.1c0.1,0.2,0.1,0.4,0.2,0.6
		c0,0.1,0,0.1,0,0.2l0,0l0,0c-0.1,0.4-0.3,0.7-0.5,1c-0.3,0.6-0.5,1.2,0,1.9v0.1l0,0c-0.4,0.1-0.4,0.1-0.4,0.2
		c0.1,0.1,0.3,0.1,0.4,0.1c0.6-0.1,1.7-0.2,1.7-0.2l0,0h0.1c0,0.1,0,0.1-0.1,0.2l0,0c-0.1,0.1-0.1,0.2-0.2,0.3l0,0l0,0.1
		c-0.1,0.2-0.3,0.5-0.4,0.8c-0.2,0.4-0.4,0.9-0.5,1.4c0,0.1,0,0.1,0,0.2c0,0.1-0.1,0.3-0.1,0.4c-0.1,0.7-0.2,1.5-0.5,2.2v0.1v0.1v0
		v0c0.3,0.3,0.3,0.7,0.3,1c-0.1,1.2-0.1,2.3-0.3,2.6c-0.1,0.2,0.7,0.7,0.7,0.7v0c0,0-0.7,0.7-0.7,1c0.1,0.3-0.1,1-0.1,1v0l0.7,0.4v0
		v1.7v0v0.3c-0.1,0-0.1,0-0.1,0l0,0c0,0.2,0,0.3,0,0.5c0,0.5,0.8,1.4,0.8,1.4v0.1c0,0,0.3,4.8,0.8,7.1c0,0.1,0.1,0.3,0.1,0.4
		c0.5,2.5,1,5.1,1.5,7.6c0,0.2,0.1,0.4,0.1,0.6c0,0.1,0,0.2,0.1,0.3c0,0.1,0.1,0.2,0.1,0.4c0.4,1.4,1,2.7,2,3.9c0.8,1,1.5,2.1,2,3.3
		c0,0,0,0.1,0,0.1l0,0c0,0.2-0.1,0.5-0.2,0.7l0,0.1c-0.6,2.4-1.3,4.8-1.6,7.3c0,0.2,0,0.4-0.1,0.5c-0.1,0.8-0.2,1.6-0.5,2.4
		c-0.1,0.2-0.2,0.4-0.3,0.6c-0.1,0.2-0.2,0.5-0.2,0.8c0,0,0,0.1,0,0.1c0,0,0,0,0,0c0,0,0,0,0,0l0,0c0,0.3,0.1,0.5,0.2,0.8l0,0
		c-0.1,0-0.1,0.1-0.2,0.1l-0.1,0.1c-0.7,0.6-1.7,0.7-2.6,0.9c-0.9,0.2-1.9,0.7-2.2,1.6c0,0.1,0,0.1,0,0.2c0,0,0,0.1,0,0.1l0,0l0,0
		c0,0.1-0.3,0.3-0.3,0.3v0.3c0,0,0,0,0,0c0.1,0.7,0.4,1.4,1,1.8c0.7,0.5,1.6,0.7,2.5,0.8c0.9,0.1,1.8,0.2,2.6,0.6
		c0.7,0.4,1.3,0.9,2,1.2c0,0,0.1,0,0.1,0l0,0c-0.1,0.1-0.2,0.1-0.3,0.2l-0.2,0.1c-0.7,0.4-1.6,0.7-2.4,0.8c-0.8,0.1-1.8,0.2-2.3,0.9
		l0,0c0,0,0,0,0,0l0,0c0,0,0,0.1,0,0.1v0c0,0,0,0,0,0.1c0,0,0,0,0,0.1c0,0,0,0,0,0c0,0.1,0,0.1,0,0.2c0,0.1,0,0.3,0,0.4
		c0.1,0.4,0.3,0.8,0.6,1c0.4,0.4,0.9,0.6,1.3,0.7c1.1,0.3,2.3,0.5,3.4,0.6l3.4,0.3c0.6,0,1.1,0.1,1.7,0.1c0.4,0,0.8,0.1,1.2,0.1
		c0.4,0,0.7,0,1.1,0h1h0.6l0,0c1-0.3,2-0.4,3-0.5c1-0.1,1.9-0.2,2.8-0.4c0.2,0,0.3-0.1,0.5-0.2c0,0,0,0,0-0.1c0,0,0,0,0,0
		c0,0,0,0,0,0c0,0,0,0,0,0c0,0,0,0-0.5-0.1v0v-0.1c0.5-0.2,0.7-0.6,0.7-0.6v-0.1v-0.1l-0.2-0.3c0-0.2,0-0.5-0.1-0.7l0.3-0.3v-0.1
		c0,0-0.3-0.1-0.3-0.2c0,0,0-0.1,0-0.1l0-0.3c0-0.3-0.1-0.5-0.1-0.8c-0.1-0.5-0.2-1.1-0.3-1.6c-0.2-0.8,0,0,0,0v0
		c0,0-0.1-0.4-0.1-0.5c-0.1-0.6-0.9,0.2-1.4,0.7c-0.1-0.3,0-0.8,0-0.8l0,0v0c-0.1-0.1,0-0.1,0.1-0.2c0.3-0.1,0.5-0.3,0.6-0.5
		c0-0.1,0.1-0.2,0.1-0.3c0-0.1-0.1-0.2-0.1-0.2s0-0.8,0-0.9c-0.1-1.2-0.1-2.5-0.7-3.5c-0.4-0.6-0.9-1.2-1.4-1.7c0-0.1,0-0.3,0-0.4
		c-0.1-1.3-0.1-2.6-0.3-3.9c-0.2-2.4-0.6-4.7-1.1-7c-0.1-0.6-0.3-1.2-0.5-1.9l0,0c-0.3-1.3-0.9-2.4-1.6-3.5
		c-0.1-0.2-0.3-0.4-0.4-0.6c0-0.8-0.1-1.5-0.2-2.3c-0.1-1.1-0.3-2.1-0.5-3.1c0-0.1,0-0.2,0-0.3v-0.9c0-0.1,0-0.3,0-0.4
		c0.1-0.2,0.2-0.4,0.4-0.5c0.3-0.4,0.4-0.9,0.4-1.4c0,0,0,0,0-0.1c0-0.5-0.1-1.1-0.1-1.6c0-0.1,0-0.3,0-0.4v0.4v0l0,0l0,0
		c0,0,0,0,0-0.1c0-0.2,0-0.3,0-0.5c0.1-1.3,0.4-2.7,0.7-4c0.3-1.4,0.7-2.7,1-4l0,0c0.1-0.5,0.3-1.1,0.4-1.6c0-0.2,0.1-0.4,0.1-0.6
		c0.1-0.6,0.3-1.2,0.5-1.7c0.3-0.8,0.9-1.4,1.3-2.2c1.2-1.9,1.9-4.1,1.9-6.4l0,0c0,0,0,0,0,0v0.5c0,0-0.5,0,0,0v-0.4l0,0
		c-0.5-0.1-0.5-0.2-0.5-0.3c0.3,0.1,0.5,0.2,0.8,0.3c0-0.2-0.3-0.5-0.3-0.5v0c0,0,0.1-2,0.1-3c0,0,0.6,0,0.6,0v0c0,0-0.6-0.7-0.6-1
		c0-0.1,0.1-0.3,0.1-0.4c0.1-0.1,0.1-0.1,0.2-0.2l0,0c0.7-0.6,1.4-1.3,1.8-2.2c0.4-0.9,0.5-1.8,0.9-2.7c0.2-0.5,0.5-0.9,0.7-1.4
		c0-0.2-0.1-0.5-0.1-0.5v0l0.7-1.6l0,0v-0.3c-0.6-1.5,0-4.3,0-4.3v0c0,0,0.4-0.5,0.4-0.7c-0.1-0.7-0.5-1.4-0.6-2.1l0,0l0,0
		c0-0.1,0-0.2,0-0.3c0-0.4,0.2-0.9,0.3-1.3c0.7-2,1.5-4.1,1.5-6.1c0,0-0.2,0-0.2,0v-0.1c0-0.6,0-1.1-0.1-1.7
		c-0.1-0.5-0.3-1.1-0.3-1.6c0-0.1,0-0.3,0-0.4c0-0.6,0.3-1.2,0.3-1.8l0,0c0-0.2,0-0.4,0-0.6c0-0.2-0.1-0.4-0.2-0.6l0,0
		c0-0.1-0.1-0.2-0.2-0.3c0.3-0.5,0.6-1.1,0.9-1.7c0.1-0.2,0.2-0.4,0.2-0.7l0,0C196.5,73.2,196.5,73,196.5,72.9z M181.9,167.3
		L181.9,167.3L181.9,167.3c-0.2-0.1-0.5-0.2-0.7-0.2c-0.1,0-0.1,0-0.2,0h0c0-0.2,0.1-0.4,0.1-0.6c0-0.1,0-0.2,0-0.4
		c0-0.1,0-0.1,0-0.2c0,0,0,0,0-0.1c0-0.1,0-0.2,0-0.4c0-0.1,0-0.3,0-0.4l0,0l0,0c0,0,0,0,0-0.1c0,0.1,0.1,0.2,0.1,0.2
		C181.4,166,181.7,166.6,181.9,167.3L181.9,167.3z M187,56.2L187,56.2L187,56.2z"/>
	<path class="st105" d="M177.1,65.2c0,1.1-0.4,2.1-0.5,3.2c3.2,0.2,6.4-1.4,9.5-0.9c-0.9-0.6-1.4-1.6-1.6-2.6
		c-0.4-1.3-0.5-2.7-0.3-4c0-0.1,0-0.1,0-0.2c0.1-0.5,0.4-1.3,0.3-1.7c-0.1-0.6-0.6-0.4-1.1-0.4c-1.4,0.1-2.9,0.3-4.3,0.6
		c-0.4,0.1-4,1-4,0.9c0.6,1,1.2,2.1,1.6,3.2C177,63.8,177.1,64.5,177.1,65.2z"/>
	<path class="st105" d="M145.5,61.8c0.3,0.4,0.6,0.7,1,1c0.2,0.2,0.5,0.4,0.8,0.6c0.5,0.4,1,0.6,1.6,0.6c0.8,0.1,2.4-0.4,2.9-1
		c0.2-0.3,0.3-0.7,0.3-1.1c0-0.5-0.1-1-0.3-1.5c-0.3-0.8-0.7-1.6-1.2-2.2c-0.6-0.8-1.2-1.5-2-2c-0.3-0.1-0.6-0.3-0.8-0.4l-1.5-0.6
		c-0.1,0-0.2-0.1-0.3-0.1c-0.4,0-0.5,0.6-0.2,0.9c0.5,0.7,1.5,0.9,1.8,1.6c-0.5,0-0.9,0.3-1.1,0.8c0,0.1-0.1,0.2-0.1,0.3
		c-0.1,0.1-0.3,0-0.5,0.1c-0.3,0.1-0.1,0.5-0.2,0.8c0,0.3-0.2,0.5-0.3,0.7C145.1,60.9,145.2,61.4,145.5,61.8z"/>
	<path class="st52" d="M189.6,170.7c-0.2-0.2-0.6-0.2-1-0.1c-1.8,0.3-3.7,0.4-5.6,0.5c-0.2-1.1,0.4-2.3,0.7-3.4
		c0-0.3,0.1-0.6,0.2-0.9c0.3-0.5,0.9-0.7,1.4-0.9c1-0.2,2.6-0.6,3.1,0.4C189.1,167.6,189.3,169.4,189.6,170.7z"/>
	<path class="st81" d="M169.1,166.4c0.8,0.5,1.7,0.7,2.6,0.8c0.9,0.1,1.8,0.2,2.7,0.6c0.7,0.4,1.3,0.9,2.1,1.2
		c0.7,0.2,1.4,0.2,2.1,0c0.9-0.2,1.8-0.5,2.2-1.2c0.4-0.6,0.4-1.5,0.3-2.2c-0.1-0.9-0.1-1.7-0.2-2.6c0-0.2-0.1-0.4-0.2-0.6
		c-0.6-0.9-2.1,0.4-2.9,0.4c-1.3,0-2.6-0.7-3.5-1.5c-0.1-0.1-0.2-0.2-0.3-0.2c-0.4-0.2-0.7,0.1-1,0.4c0,0-0.1,0.1-0.1,0.1
		c-0.7,0.6-1.7,0.7-2.6,0.9c-0.9,0.2-1.9,0.7-2.2,1.6c0,0.1,0,0.1,0,0.2C167.9,165,168.4,165.9,169.1,166.4z"/>
	<path class="st41" d="M169.1,166.4c0.8,0.5,1.7,0.7,2.6,0.8c0.9,0.1,1.8,0.2,2.7,0.6c0.7,0.4,1.3,0.9,2.1,1.2
		c0.7,0.2,1.4,0.2,2.1,0c0.9-0.2,1.8-0.5,2.2-1.2c0.4-0.6,0.4-1.5,0.3-2.2c-0.1-0.9-0.1-1.7-0.2-2.6c0-0.2-0.1-0.4-0.2-0.6
		c-0.6-0.9-2.1,0.4-2.9,0.4c-1.3,0-2.6-0.7-3.5-1.5c-0.1-0.1-0.2-0.2-0.3-0.2c-0.4-0.2-0.7,0.1-1,0.4c0,0-0.1,0.1-0.1,0.1
		c-0.7,0.6-1.7,0.7-2.6,0.9c-0.9,0.2-1.9,0.7-2.2,1.6c0,0.1,0,0.1,0,0.2C167.9,165,168.4,165.9,169.1,166.4z"/>
	<path class="st106" d="M169.1,166.7c0.8,0.5,1.7,0.7,2.6,0.8c0.9,0.1,1.8,0.2,2.7,0.6c0.7,0.4,1.3,0.9,2.1,1.2
		c0.7,0.2,1.4,0.2,2.1,0c0.9-0.2,1.7-0.7,2.2-1.5c0.4-0.6,0.4-1.5,0.3-2.2c-0.1-0.9-0.1-1.7-0.2-2.6c0-0.2-0.1-0.4-0.2-0.6
		c-0.6-0.9-2.1,0.4-2.9,0.4c-1.3,0-2.6-0.7-3.5-1.5c-0.1-0.1-0.2-0.2-0.3-0.2c-0.4-0.2-0.7,0.1-1,0.4c0.2,0.6,0.5,1.3,0.9,1.8
		c0.6,0.9,1.7,1.7,2.8,1.7c0.6,0,1.1-0.1,1.7,0.1s1.1,0.7,0.9,1.2c-0.2,0.5-0.9,0.6-1.4,0.7c-0.8,0-1.6,0.1-2.3-0.2
		c-0.4-0.1-0.9-0.4-1.3-0.6c-1.9-0.8-4.2-0.3-5.7-1.6c-0.1-0.1-0.3-0.3-0.5-0.4C167.7,165,168.4,166.2,169.1,166.7z"/>
	<path class="st41" d="M169.1,166.7c0.8,0.5,1.7,0.7,2.6,0.8c0.9,0.1,1.8,0.2,2.7,0.6c0.7,0.4,1.3,0.9,2.1,1.2
		c0.7,0.2,1.4,0.2,2.1,0c0.9-0.2,1.7-0.7,2.2-1.5c0.4-0.6,0.4-1.5,0.3-2.2c-0.1-0.9-0.1-1.7-0.2-2.6c0-0.2-0.1-0.4-0.2-0.6
		c-0.6-0.9-2.1,0.4-2.9,0.4c-1.3,0-2.6-0.7-3.5-1.5c-0.1-0.1-0.2-0.2-0.3-0.2c-0.4-0.2-0.7,0.1-1,0.4c0.2,0.6,0.5,1.3,0.9,1.8
		c0.6,0.9,1.7,1.7,2.8,1.7c0.6,0,1.1-0.1,1.7,0.1s1.1,0.7,0.9,1.2c-0.2,0.5-0.9,0.6-1.4,0.7c-0.8,0-1.6,0.1-2.3-0.2
		c-0.4-0.1-0.9-0.4-1.3-0.6c-1.9-0.8-4.2-0.3-5.7-1.6c-0.1-0.1-0.3-0.3-0.5-0.4C167.7,165,168.4,166.2,169.1,166.7z"/>
	<path class="st107" d="M189.2,110c0.6,2.9,0,5.9-1.6,8.4c-0.4,0.7-0.9,1.3-1.3,2c-0.2,0.5-0.4,1.1-0.5,1.6l-1.4,5.8
		c-0.4,1.6-0.8,3.2-0.6,4.8c0.1,1.1,0.4,2.4-0.3,3.3c-0.2,0.2-0.3,0.4-0.4,0.6c-0.1,0.2-0.1,0.5,0,0.8c0.7,4.2,1.2,8.6,0,12.7
		c-1.2,3.7-1.2,7.8-2.2,11.6c-0.1,0.5-0.3,1-0.6,1.3c-0.3,0.2-0.6,0.4-0.9,0.4c-1.5,0.3-3-0.1-4.4-0.7c-1-0.4-2-1.2-1.9-2.3
		c0-0.5,0.3-0.9,0.5-1.4c0.4-0.9,0.4-1.9,0.5-2.9c0.3-2.5,1-4.8,1.6-7.2c0.6-2.4,1-4.9,0.5-7.3c-1-5-2.6-9.9-4.7-14.5
		c-0.1-0.2-0.2-0.5-0.4-0.6c-0.2-0.2-0.4-0.2-0.6-0.4c-0.2-0.2-0.2-0.5-0.3-0.8c-0.2-0.8-0.8-1.3-1.3-2c-1.1-1.7-0.7-3.9-0.7-5.9
		c0-2-0.2-3.9,0.1-5.9s1.4-3.9,3.3-4.5c0.9-0.3,1.9-0.2,2.9-0.1C179.5,107.2,184.4,108.2,189.2,110z"/>
	<path class="st41" d="M189.2,110c0.6,2.9,0,5.9-1.6,8.4c-0.4,0.7-0.9,1.3-1.3,2c-0.2,0.5-0.4,1.1-0.5,1.6l-1.4,5.8
		c-0.4,1.6-0.8,3.2-0.6,4.8c0.1,1.1,0.4,2.4-0.3,3.3c-0.2,0.2-0.3,0.4-0.4,0.6c-0.1,0.2-0.1,0.5,0,0.8c0.7,4.2,1.2,8.6,0,12.7
		c-1.2,3.7-1.2,7.8-2.2,11.6c-0.1,0.5-0.3,1-0.6,1.3c-0.3,0.2-0.6,0.4-0.9,0.4c-1.5,0.3-3-0.1-4.4-0.7c-1-0.4-2-1.2-1.9-2.3
		c0-0.5,0.3-0.9,0.5-1.4c0.4-0.9,0.4-1.9,0.5-2.9c0.3-2.5,1-4.8,1.6-7.2c0.6-2.4,1-4.9,0.5-7.3c-1-5-2.6-9.9-4.7-14.5
		c-0.1-0.2-0.2-0.5-0.4-0.6c-0.2-0.2-0.4-0.2-0.6-0.4c-0.2-0.2-0.2-0.5-0.3-0.8c-0.2-0.8-0.8-1.3-1.3-2c-1.1-1.7-0.7-3.9-0.7-5.9
		c0-2-0.2-3.9,0.1-5.9s1.4-3.9,3.3-4.5c0.9-0.3,1.9-0.2,2.9-0.1C179.5,107.2,184.4,108.2,189.2,110z"/>
	<path class="st107" d="M168.5,122.3c0,0.8,0.1,1.5,0.3,2.3c0.9,5,1.9,10.1,2.9,15.1c0.1,0.4,0.2,0.9,0.3,1.3c0.4,1.4,1,2.7,1.9,3.8
		c4.2,5.3,4.6,13,6.9,19.3c0.2,0.4,0.3,0.9,0.5,1.3c0.4,1.1,0.9,2.1,1.4,3.2c0.1,0.2,0.2,0.3,0.3,0.4c0.1,0.1,0.3,0.1,0.5,0.1
		c2.1,0,4.1-0.4,6-1.4c0.3-0.1,0.5-0.3,0.6-0.5c0.1-0.2,0.1-0.4,0.1-0.6c-0.1-1.3-0.1-2.6-0.7-3.7c-0.4-0.7-0.9-1.3-1.5-1.8
		c-0.2-4-0.6-7.9-1.4-11.8c-0.4-2-1-4-2.1-5.7c-0.9-1.2-2.1-2.5-1.9-3.9c0.1-0.6,0.3-1.5-0.2-1.9c-0.2-0.2-0.6-0.2-0.7-0.4
		c-0.1-0.1-0.1-0.2-0.1-0.4c-0.1-1,0-2.1,0.2-3.1c0.2-0.7,0.4-1.3,0.5-2s0-1.4-0.5-1.9c0-1.4,0-2.8,0-4.1c0-0.8,0-1.6,0.2-2.3
		c0.1-0.4,0.3-0.7,0.3-1.1c0.3-1.3-0.4-2.9,0.4-3.9c0.4-0.4,0.9-0.6,1.4-1c0.9-0.6,1.5-1.6,1.9-2.7c0.3-1.1,0.4-2.2,0.5-3.3
		c0-0.2,0-0.5,0-0.7c0-0.1,0-0.2-0.1-0.4c-0.3-0.6-1-0.8-1.6-1c-4-1-8.1-1.4-12.2-1.4c-1.5-1-2.4-0.7-3,0.4
		c-0.4,0.7-0.6,1.4-0.9,2.1c-0.3,0.9-0.3,5.9-0.6,6.8C167.4,118.7,168.5,121,168.5,122.3z"/>
	<path class="st14" d="M195.9,77c0.1,0.8-0.3,1.6-0.3,2.3c0,0.7,0.2,1.4,0.3,2c0.5,2.7-0.5,5.3-1.4,7.9c-0.2,0.4-0.3,0.8-0.3,1.3
		c0,0.8,0.4,1.6,0.6,2.4c0.3,1.7-1,3.3-1,5c0,0.8,0.2,1.6,0,2.4c-0.1,0.5-0.5,1-0.7,1.4c-0.4,0.9-0.5,1.8-0.9,2.7
		c-0.7,1.6-2.2,2.6-3.6,3.5c-0.8-0.3-1.7-0.6-2.1-1.3c-0.2-0.4-0.3-0.8-0.4-1.2c-0.3-1.8-0.3-3.6-0.3-5.4c0-1.5,0.1-3.1,0.3-4.6
		c0.3-2,0.9-3.8,1.4-5.8c0.6-2.4,0.9-4.9,1.8-7.2c0.8-2,2-3.9,3.3-5.6c0.5-0.7,0.9-1.6,1.8-1.5C195.1,75.5,195.8,76.1,195.9,77z"/>
	<path class="st41" d="M195.9,77c0.1,0.8-0.3,1.6-0.3,2.3c0,0.7,0.2,1.4,0.3,2c0.5,2.7-0.5,5.3-1.4,7.9c-0.2,0.4-0.3,0.8-0.3,1.3
		c0,0.8,0.4,1.6,0.6,2.4c0.3,1.7-1,3.3-1,5c0,0.8,0.2,1.6,0,2.4c-0.1,0.5-0.5,1-0.7,1.4c-0.4,0.9-0.5,1.8-0.9,2.7
		c-0.7,1.6-2.2,2.6-3.6,3.5c-0.8-0.3-1.7-0.6-2.1-1.3c-0.2-0.4-0.3-0.8-0.4-1.2c-0.3-1.8-0.3-3.6-0.3-5.4c0-1.5,0.1-3.1,0.3-4.6
		c0.3-2,0.9-3.8,1.4-5.8c0.6-2.4,0.9-4.9,1.8-7.2c0.8-2,2-3.9,3.3-5.6c0.5-0.7,0.9-1.6,1.8-1.5C195.1,75.5,195.8,76.1,195.9,77z"/>
	<path class="st20" d="M175.2,59.9c0.6,1,1.2,2.1,1.6,3.2c0.6,0.1,1.2,0.2,1.8,0.2c2.3,0,3.9-1.3,5.3-3c0.1-0.5,0.9-1,0.8-1.4
		c-0.1-0.6-0.6-0.4-1.1-0.4c-1.4,0.1-2.9,0.3-4.3,0.6C178.9,59.1,175.3,60,175.2,59.9z"/>
	<circle class="st105" cx="178.6" cy="55.7" r="7.4"/>
	<path class="st20" d="M169.2,108.6c1.3-0.1,2.6,0,3.9,0c0.8,0,1.6,0.1,2.4,0.2c1,0.2,1.9,0.7,2.8,0.9c1.5,0.4,3.2,0.5,4.7,0.6
		c1,0.1,2.1,0.3,3.1,0.5c0-0.1,0-0.2-0.1-0.4c-0.3-0.6-1-0.8-1.6-1c-4-1-8.1-1.4-12.2-1.4C170.7,107.2,169.9,107.6,169.2,108.6z"/>
	<path class="st14" d="M174.3,67.8c0.3,0.4,0.8,0.8,1.2,0.7c0.2-0.1,0.3-0.1,0.5-0.3c0.9-0.6,1.9-0.7,2.9-0.8c2-0.3,4-0.8,6-1.3
		c0.6-0.2,1.2-0.3,1.8-0.4c1.3,0,2.4,0.8,3.1,1.8c0.8,1,1.3,2.1,2.1,3.1c0.5,0.7,1.2,1.3,1.7,2.1c1.3,1.8,1.6,4.2,1.2,6.5
		c-0.3,2.2-1.2,4.3-2.1,6.4c-0.5,1.2-1,2.4-1.7,3.5c0.3,1.7,0.1,3.6-0.7,5.1c-0.3,0.5-0.6,1-0.7,1.5c0,0.4,0,0.8,0,1.1l0.4,2.7
		c0.1,0.8,0.2,1.6,0.4,2.4c0.3,1.5,0.6,3.1,0,4.4c-0.8,1.6,0,3.7-0.2,5.4c-2.3-0.9-4.7-1.5-7.2-1.7c-1.6-0.2-3.2-0.2-4.7-0.6
		c-1-0.3-1.9-0.7-2.8-0.9c-0.8-0.2-1.6-0.2-2.4-0.2c-1.8-0.1-3.6-0.1-5.3,0.1c-0.1,0-0.3,0-0.4-0.1c0-0.1-0.1-0.1-0.1-0.2
		c0-0.7,0.1-1.3,0.5-1.9c0.2-0.4,0.5-0.8,0.5-1.2c0-0.2-0.1-0.4-0.2-0.6l-0.8-2.1c-0.7-1.7-0.3-3.8-0.7-5.6
		c-0.3-1.4-0.4-2.9-0.5-4.3c-0.1-1.2,0-2.6,0.7-3.6c0.2-0.2,0.4-0.5,0.6-0.8c0.1-0.3,0.2-0.6,0.1-0.9c0-2.5-0.1-5-0.2-7.5
		c0.7-1.2,1.3-2.4,2-3.6c0.8-1.4,1.5-2.8,1.8-4.3c0.2-1,0.2-2.1,0.3-3.1c0-0.3,0.1-0.5,0.3-0.7c0.3-0.3,0.7-0.3,1.1-0.3
		C173.4,67.6,173.8,67.7,174.3,67.8z"/>
	<path class="st20" d="M147.2,63.4c0.5,0.4,1,0.6,1.6,0.6c0.8,0.1,2.4-0.4,2.9-1c0.2-0.3,0.3-0.7,0.3-1.1c-0.1,0-0.2-0.1-0.3-0.1
		c-0.8,0-1.7-0.1-2.5,0.1C148.3,62.1,147.6,62.6,147.2,63.4L147.2,63.4z"/>
	<path class="st14" d="M171.8,79.4c-0.5,0.6-0.9,1.1-1.6,1.5c-0.7,0.4-1.6,0.4-2.4,0.4c-3.4-0.1-6.8-0.4-10.1-1.1
		c-0.4-0.1-0.8-0.2-1.1-0.3c-0.4-0.2-0.8-0.4-1.1-0.7c-1.1-0.8-2.2-1.6-3.1-2.7c-1-1.3-1.6-2.8-1.8-4.4c-0.8-0.7-1.2-1.8-1.6-2.8
		c-0.2-0.4-0.3-0.9-0.4-1.4c0-0.5,0.3-1,0.2-1.4c-0.2-0.8-0.6-1.6-1.2-2.1c-0.1-0.1-0.2-0.2-0.3-0.4c0-0.1,0-0.3,0.1-0.4
		c0.3-0.8,1.1-1.2,1.9-1.4c0.8-0.2,1.7-0.1,2.5-0.1c0.3,0,0.5,0.2,0.8,0.2l0.6,1.5c0.1,0.3,0.2,0.5,0.4,0.7c0.1,0.1,0.3,0.2,0.4,0.3
		c0.6,0.5,0.9,1.3,0.8,2.1c1.1,0.4,1.7,1.6,1.3,2.7c0.9,0.2,1.6,0.8,1.9,1.7c0,0.2,0.1,0.4,0.2,0.5c0.2,0.1,0.4,0.2,0.7,0.2
		c0.6,0,1.2,0.6,1.8,0.3c0.7-0.3,1.4-0.4,2.1-0.3c0.2,0,0.3,0,0.5,0c0.1,0,0.3-0.1,0.4-0.1c0.3-0.2,0.6-0.3,0.9-0.3
		c0.3-0.1,0.6,0.1,0.8,0.3c0.2-0.2,0.3-0.5,0.5-0.8c0.2-0.3,0.5-0.4,0.8-0.4c-0.2-0.2,0-0.5,0.3-0.6c0.3-0.1,0.5,0,0.8,0
		c0.7,0,1.2-0.6,1.9-0.8c0.6-0.1,1.4,0,1.7-0.5c0.1-0.2,0.1-0.5,0.3-0.6c0.1-0.1,0.3-0.1,0.4,0c0.4,0.1,0.9,0.2,1.2,0.4
		c0.6,2.5,0.3,5.1-0.2,7.6C172.9,77.4,172.6,78.4,171.8,79.4z"/>
	<path class="st20" d="M171.8,88.3l3.2,6.4c-0.3-0.6-1.1-0.8-1.6-1.2c-0.7-0.5-1.3-1.3-1.6-2.1c-0.3-0.8-0.5-1.7-0.6-2.6
		c-0.1-0.4-0.2-1,0-1.3C171.5,87.5,171.7,88,171.8,88.3z"/>
	<path class="st20" d="M181,93.8c0.7,0.7,1.6,1.2,2.4,1.9c1.8,1.5,3.2,3.5,4.4,5.5c0.4,0.5,0.7,1.1,0.9,1.7c-0.1,0.1-0.4,0-0.5-0.1
		l-2.5-2.2c-0.3-0.3-0.6-0.5-0.8-0.8c-0.4-0.6-0.6-1.3-1-1.9c-0.4-0.6-1-1.1-1.5-1.5c-0.6-0.5-3.2-2.7-2.6-3.6
		C180.2,92.7,180.6,93.4,181,93.8z"/>
	<path class="st14" d="M175.5,66c0.8-0.5,1.7-0.7,2.6-0.9c0.6-0.1,1.1-0.2,1.7-0.1c0.5,0.1,1,0.3,1.5,0.3c0.7,0,1.4-0.3,2.1-0.4
		s1.5-0.3,2.1,0.2c0.1,0.1,0.3,0.2,0.5,0.2c0.2,0,0.3-0.1,0.5-0.2c1-0.7,2.4-0.7,3.4,0.2c1.4,1.3,1.2,3.8,2.8,4.7
		c0.4,0.3,1,0.4,1.3,0.9c0.1,0.1,0.1,0.3,0.2,0.4c0.1,0.1,0.2,0.2,0.4,0.3c0.5,0.2,0.9,0.5,1.3,0.8c0.4,0.3,0.7,0.8,0.8,1.3
		c0,0.4-0.1,0.7-0.2,1.1c-1.6,3.9-5.5,6.4-9.7,6.2c-0.4,0-0.8-0.1-1-0.3c-0.2-0.2-0.3-0.4-0.4-0.6c-0.7-1.6-2.1-2.7-3-4.2
		c-0.5-0.9-0.9-1.9-1.4-2.8c-0.8-1.3-2.1-2.3-3.3-3.3c-0.7-0.5-1.5-1.1-2.4-1.1c-0.8,0-1.4,0.1-1.1-0.9
		C174.4,66.9,174.9,66.3,175.5,66z"/>
	<path class="st41" d="M175.5,66c0.8-0.5,1.7-0.7,2.6-0.9c0.6-0.1,1.1-0.2,1.7-0.1c0.5,0.1,1,0.3,1.5,0.3c0.7,0,1.4-0.3,2.1-0.4
		s1.5-0.3,2.1,0.2c0.1,0.1,0.3,0.2,0.5,0.2c0.2,0,0.3-0.1,0.5-0.2c1-0.7,2.4-0.7,3.4,0.2c1.4,1.3,1.2,3.8,2.8,4.7
		c0.4,0.3,1,0.4,1.3,0.9c0.1,0.1,0.1,0.3,0.2,0.4c0.1,0.1,0.2,0.2,0.4,0.3c0.5,0.2,0.9,0.5,1.3,0.8c0.4,0.3,0.7,0.8,0.8,1.3
		c0,0.4-0.1,0.7-0.2,1.1c-1.6,3.9-5.5,6.4-9.7,6.2c-0.4,0-0.8-0.1-1-0.3c-0.2-0.2-0.3-0.4-0.4-0.6c-0.7-1.6-2.1-2.7-3-4.2
		c-0.5-0.9-0.9-1.9-1.4-2.8c-0.8-1.3-2.1-2.3-3.3-3.3c-0.7-0.5-1.5-1.1-2.4-1.1c-0.8,0-1.4,0.1-1.1-0.9
		C174.4,66.9,174.9,66.3,175.5,66z"/>
	<path class="st81" d="M171.7,173c0.5,0.5,1.3,0.7,2,0.9c1.6,0.4,3.3,0.5,4.9,0.6l1.6,0.1c1.6,0.1,3.2,0.2,4.7,0.2
		c2,0,3.9-0.2,5.8-0.5c0.3,0,0.5-0.2,0.5-0.4c0-0.1,0-0.1,0-0.2c0-2-0.3-3.9-0.7-5.8c-0.2-0.8-1.6,1-1.7,1.1
		c-0.4,0.4-0.7,0.6-1.3,0.7c-1.6,0.1-3.4-0.9-4.7-1.8c-0.3-0.2-0.6-0.4-0.9-0.5c-0.2-0.1-0.5-0.2-0.7-0.2c-0.8-0.1-1.7,0.1-2.4,0.5
		c-1,0.5-1.8,1.2-2.8,1.7c-0.8,0.4-1.6,0.7-2.5,0.8c-0.9,0.1-1.9,0.2-2.4,0.9l0,0C170.9,171.7,171.1,172.5,171.7,173z"/>
	<path class="st106" d="M171.7,173.3c0.5,0.5,1.3,0.7,2,0.9c1.6,0.4,3.3,0.5,4.9,0.6l1.6,0.1c1.6,0.1,3.2,0.2,4.7,0.2
		c2,0,3.9-0.2,5.8-0.5c0.2,0,0.3-0.1,0.5-0.2c0.1-0.1,0.4-0.5,0.4-0.7c0-2-0.6-3.9-1-5.8c-0.2-0.8-1.6,1-1.7,1.1
		c-0.4,0.4-0.7,0.6-1.3,0.7c-1.6,0.1-3.4-0.9-4.7-1.8c-0.3-0.2-0.6-0.4-0.9-0.5c-0.2-0.1-0.5-0.2-0.7-0.2c0.2,1.2,1.9,2.6,2.8,3
		c1.8,0.9,3.8,0.4,5.8,0.5c0.1,0,0.3,0,0.4,0.1c0.2,0.2,0.2,0.5,0.2,0.8c0,0.5-0.1,1-0.5,1.3c-0.2,0.1-0.4,0.1-0.6,0.1
		c-4.8,0.2-9.6,0-14.4-0.5c-0.8-0.1-1.6-0.2-2.4-0.5c-0.5-0.2-1-0.5-1.4-0.9C170.6,171.5,171.1,172.8,171.7,173.3z"/>
	<path class="st81" d="M175.7,55.6c0,0.8-0.5,2.2,0.9,1.8c0.9-0.2,1.1-1.3,2.2-1c1.1,0.2,1.3,1.6,1.7,2.4c0.6,1.4,1.9,2.4,3.4,2.7
		c0.3,0.1,0.6,0.1,0.9,0c0.7-0.2,1.1-0.9,1.4-1.6c0.2-0.6,0.4-1.1,0.6-1.7c0.1-0.4,0.2-0.9,0.2-1.3l0,0c0-0.3,0-0.6,0-0.9
		c-0.1-1.7-1.1-3.3-2.4-4.5s-2.8-2.1-4.3-2.9c-0.5-0.3-1-0.5-1.6-0.7c-0.6-0.1-1.1-0.1-1.7-0.1c-0.7,0-1.5,0.2-2.1,0.5
		c-0.3,0.1-0.5,0.3-0.8,0.5c-0.3,0.3-0.5,0.7-0.6,1.1c-0.3,1.1,0.4,2.1,1,3C175,53.8,175.6,54.7,175.7,55.6z"/>
	<path class="st20" d="M151.6,72c0.3-0.8,1.6-2.9,1.2-3.6c-0.4,0.5-0.7,1.1-1,1.7C151.6,70.7,151.8,71.5,151.6,72z"/>
	<path class="st20" d="M174.5,53c-0.6-0.9-1.3-1.9-1-3c0.1-0.5,0.4-0.9,0.8-1.2c-0.1,0.2-0.2,0.3-0.2,0.5c-0.3,1.1,0.4,2.1,1,3
		c0.5,0.8,1.2,1.6,1.2,2.6c0,0.8-0.5,2.2,0.9,1.8c0.9-0.2,1.1-1.3,2.2-1c1.1,0.2,1.3,1.6,1.7,2.4c0.6,1.4,1.9,2.4,3.4,2.7
		c0.3,0.1,0.6,0.1,0.9,0c0.2,0,0.3-0.1,0.4-0.2c-0.2,0.4-0.6,0.8-1.1,0.9c-0.3,0.1-0.6,0.1-0.9,0c-1.5-0.3-2.8-1.3-3.4-2.7
		c-0.4-0.9-0.6-2.2-1.7-2.4c-1.1-0.2-1.3,0.8-2.2,1c-1.4,0.4-0.9-1.1-0.9-1.8C175.6,54.7,175,53.8,174.5,53z"/>
	<path class="st20" d="M174.1,51.5c0.1,0.2,0.3,0.4,0.4,0.6c0.3,0.4,0.6,0.7,1,1c0.2,0.2,0.4,0.4,0.7,0.5c0.4,0.3,0.9,0.6,1.4,0.8
		c1.4,0.7,2.9,1.1,4.4,1.6L185,57c0.4,0.3,1,0.8,1.8,1.3c0.1-0.4,0.2-0.9,0.2-1.3l0,0c0-0.3,0-0.6,0-0.9c-0.1-1.7-1.1-3.3-2.4-4.5
		s-2.8-2.1-4.3-2.9c-0.5-0.3-1-0.5-1.6-0.7c-0.6-0.1-1.1-0.1-1.7-0.1c-0.7,0-1.5,0.2-2.1,0.5c-0.3,0.1-0.5,0.3-0.8,0.5
		c-0.2,0.2-0.3,0.5-0.4,0.8C173.6,50.3,173.8,51,174.1,51.5z"/>
	<path class="st14" d="M174.1,51.5c0.1,0.2,0.3,0.4,0.4,0.6c0.3,0.4,0.6,0.7,1,1c0.2,0.2,0.4,0.4,0.7,0.5c0.4,0.3,0.9,0.6,1.4,0.8
		c1.4,0.7,2.9,1.1,4.4,1.6L185,57c1,0.8,4.5,3.3,5.1,3c0.7-0.4-3.1-3-3.1-3l-0.2,0.1c0.5-0.3,0.8-1.1,1-1.8c0.2-1.2,0.3-2.5,0-3.7
		c-0.3-1.2-1-2.4-2.1-3c-0.5-0.3-1.1-0.4-1.5-0.8c-0.1-0.1-0.1-0.1-0.1-0.2c0,0,0-0.1-0.1-0.1c0-0.1-0.1-0.2-0.2-0.3
		c-0.2-0.2-0.6-0.2-0.9-0.1l-0.1,0c-0.1,0-0.1,0-0.2,0c-1.1,0-2.2-0.6-3.3-0.6c-1.2,0-2.3,0.7-3.4,1.2c-0.2,0.1-0.4,0.2-0.6,0.3
		c-0.8,0.4-1.4,0.8-1.7,1.8C173.6,50.4,173.8,51,174.1,51.5z"/>
	<path class="st20" d="M182.7,46.9c-0.1,0.2-0.1,0.5,0.1,0.6c0.1,0.1,0.3,0.2,0.5,0.2c0.1,0,0.2,0,0.4,0c0.2,0,0.3,0,0.5-0.1
		c0,0,0.1,0,0.1-0.1c-0.1-0.1-0.1-0.1-0.1-0.2c0,0-0.1,0-0.2,0c-0.2,0-0.4,0-0.6-0.1c-0.2-0.1-0.4-0.2-0.4-0.4L182.7,46.9z"/>
	<path class="st20" d="M186.9,56.7c-0.2,0.1-0.3,0.2-0.5,0.2c-0.1,0-0.3,0.1-0.4,0.1c-0.3,0-0.7-0.1-1-0.3L186.9,56.7z"/>
	
		<linearGradient id="SVGID_24_" gradientUnits="userSpaceOnUse" x1="2015.4794" y1="-522.4048" x2="2015.4794" y2="-393.0556" gradientTransform="matrix(-1 0 0 -1 2123.3142 -351.6533)">
		<stop  offset="0" style="stop-color:#808080;stop-opacity:0.25"/>
		<stop  offset="0.54" style="stop-color:#808080;stop-opacity:0.12"/>
		<stop  offset="1" style="stop-color:#808080;stop-opacity:0.1"/>
	</linearGradient>
	<path class="st82" d="M94.6,79.9l-0.3-0.6l-0.1,0L94.6,79.9l2,4.4c0,0.1-0.7,0.8-0.6,1.5c0,0.1,0,0.2,0.1,0.3
		c0.1,0.3,0.2,0.4-0.1,0.5v-0.1c0.5-0.1,0.5-0.1,0-0.2v0v0v0c0.5,0,0.5,0,0,0v0l0,0c0.5,0,0.5,0,0.5,0l0,0c0,0,0,0,0.3,0v0l-0.2-0.1
		l0,0l0,0c0,0,0-0.1,0-0.1c0,0,0,0,0,0l0-0.1c0-0.1,0.1-0.1,0.1-0.2s0.1-0.1,0.1-0.2c0.1-0.1,0.2-0.3,0.3-0.4L94.6,79.9z M96.9,87.1
		L96.9,87.1c-0.1,0-0.1,0-0.1,0h0c0,0,0,0,0,0c0,0-0.1,0-0.1-0.1l0,0c-0.1-0.1-0.1-0.2-0.2-0.2c0,0.1,0,0.2,0,0.3
		c0,0.2,0.1,0.3,0.2,0.4c0.1,0.1,0.1,0.1,0.2,0.2l0,0l0,0c0,0,0,0,0,0l0,0c0,0,0,0,0,0c0,0,0,0,0,0c0-0.1,0.1-0.2,0.1-0.3
		C96.9,87.2,96.9,87.2,96.9,87.1C97,87.1,97,87.1,96.9,87.1L96.9,87.1L97,87C97,87,97,87.1,96.9,87.1L96.9,87.1z M96.9,87.1
		L96.9,87.1c-0.1,0-0.1,0-0.1,0h0c0,0,0,0,0,0c0,0-0.1,0-0.1-0.1l0,0c-0.1-0.1-0.1-0.2-0.2-0.2c0,0.1,0,0.2,0,0.3
		c0,0.2,0.1,0.3,0.2,0.4c0.1,0.1,0.1,0.1,0.2,0.2l0,0l0,0c0,0,0,0,0,0l0,0c0,0,0,0,0,0c0,0,0,0,0,0c0-0.1,0.1-0.2,0.1-0.3
		C96.9,87.2,96.9,87.2,96.9,87.1C97,87.1,97,87.1,96.9,87.1L96.9,87.1L97,87C97,87,97,87.1,96.9,87.1L96.9,87.1z M94.6,79.9
		l-0.3-0.6l-0.1,0L94.6,79.9l2,4.4c0,0.1-0.7,0.8-0.6,1.5c0,0.1,0,0.2,0.1,0.3c0.1,0.3,0.2,0.4-0.1,0.5v-0.1
		c0.5-0.1,0.5-0.1,0.5-0.2c0,0,0,0-0.5,0v0l0,0c0.5,0,0.5,0,0,0l0,0v0c0.5,0,0.5,0,0.5,0l0,0c0,0,0,0,0,0l0,0c0,0,0,0,0,0
		c0,0,0,0,0.3,0v0l-0.2-0.1l0,0l0,0c0,0,0-0.1,0-0.1c0,0,0,0,0,0l0-0.1c0-0.1,0.1-0.1,0.1-0.2s0.1-0.1,0.1-0.2
		c0.1-0.1,0.2-0.3,0.3-0.4L94.6,79.9z M96.9,87.1L96.9,87.1c-0.1,0-0.1,0-0.1,0h0c0,0,0,0,0,0c0,0-0.1,0-0.1-0.1l0,0
		c-0.1-0.1-0.1-0.2-0.2-0.2c0,0.1,0,0.2,0,0.3c0,0.2,0.1,0.3,0.2,0.4c0.1,0.1,0.1,0.1,0.2,0.2l0,0l0,0c0,0,0,0,0,0l0,0c0,0,0,0,0,0
		c0,0,0,0,0,0c0-0.1,0.1-0.2,0.1-0.3L96.9,87.1L96.9,87.1C97,87.1,97,87.1,96.9,87.1L96.9,87.1L97,87C97,87,97,87.1,96.9,87.1
		L96.9,87.1z M94.6,79.9l-0.3-0.6l-0.1,0L94.6,79.9l2,4.4c0,0.1-0.7,0.8-0.6,1.5c0,0.1,0,0.2,0.1,0.3c0.1,0.3,0.2,0.4-0.1,0.5v-0.1
		c0.5-0.1,0.5-0.1,0.5-0.2c0,0,0,0-0.5,0v0l0,0c0.5,0,0.5,0,0.5,0l0,0l0,0c0,0,0,0,0,0l0,0c0,0,0,0,0,0l0,0c0,0,0,0,0,0
		c0,0,0,0,0.3,0v0l-0.2-0.1l0,0l0,0c0,0,0-0.1,0-0.1c0,0,0,0,0,0l0-0.1c0-0.1,0.1-0.1,0.1-0.2s0.1-0.1,0.1-0.2
		c0.1-0.1,0.2-0.3,0.3-0.4L94.6,79.9z M96.9,87.1L96.9,87.1c-0.1,0-0.1,0-0.1,0h0c0,0,0,0,0,0c0,0-0.1,0-0.1-0.1l0,0
		c-0.1-0.1-0.1-0.2-0.2-0.2c0,0.1,0,0.2,0,0.3c0,0.2,0.1,0.3,0.2,0.4c0.1,0.1,0.1,0.1,0.2,0.2l0,0l0,0c0,0,0,0,0,0l0,0c0,0,0,0,0,0
		c0,0,0,0,0,0c0-0.1,0.1-0.2,0.1-0.3L96.9,87.1L96.9,87.1C97,87.1,97,87.1,96.9,87.1L96.9,87.1L97,87C97,87,97,87.1,96.9,87.1
		L96.9,87.1z M94.6,79.9l-0.3-0.6l-0.1,0L94.6,79.9l2,4.4c0,0.1-0.7,0.8-0.6,1.5c0,0.1,0,0.2,0.1,0.3c0.1,0.3,0.2,0.4-0.1,0.5v-0.1
		c0.5-0.1,0.5-0.1,0.5-0.2c0,0,0,0-0.5,0v0l0,0c0.5,0,0.5,0,0.5,0l0,0l0,0c0,0,0,0,0,0l0,0c0,0,0,0,0,0l0,0c0,0,0,0,0,0
		c0,0,0,0,0.3,0v0l-0.2-0.1l0,0l0,0c0,0,0-0.1,0-0.1c0,0,0,0,0,0l0-0.1c0-0.1,0.1-0.1,0.1-0.2s0.1-0.1,0.1-0.2
		c0.1-0.1,0.2-0.3,0.3-0.4L94.6,79.9z M96.9,87.1L96.9,87.1c-0.1,0-0.1,0-0.1,0h0c0,0,0,0,0,0c0,0-0.1,0-0.1-0.1l0,0
		c-0.1-0.1-0.1-0.2-0.2-0.2c0,0.1,0,0.2,0,0.3c0,0.2,0.1,0.3,0.2,0.4c0.1,0.1,0.1,0.1,0.2,0.2l0,0l0,0c0,0,0,0,0,0l0,0c0,0,0,0,0,0
		c0,0,0,0,0,0c0-0.1,0.1-0.2,0.1-0.3L96.9,87.1L96.9,87.1C97,87.1,97,87.1,96.9,87.1L96.9,87.1L97,87C97,87,97,87.1,96.9,87.1
		L96.9,87.1z M94.6,79.9l-0.3-0.6l-0.1,0L94.6,79.9l2,4.4c0,0.1-0.7,0.8-0.6,1.5c0,0.1,0,0.2,0.1,0.3c0.1,0.3,0.2,0.4-0.1,0.5v-0.1
		c0.5-0.1,0.5-0.1,0.5-0.2c0,0,0,0-0.5,0v0l0,0c0.5,0,0.5,0,0.5,0l0,0l0,0c0,0,0,0,0,0l0,0c0,0,0,0,0,0l0,0c0,0,0,0,0,0
		c0,0,0,0,0.3,0v0l-0.2-0.1l0,0l0,0c0,0,0-0.1,0-0.1c0,0,0,0,0,0l0-0.1c0-0.1,0.1-0.1,0.1-0.2s0.1-0.1,0.1-0.2
		c0.1-0.1,0.2-0.3,0.3-0.4L94.6,79.9z M96.9,87.1L96.9,87.1c-0.1,0-0.1,0-0.1,0h0c0,0,0,0,0,0c0,0-0.1,0-0.1-0.1l0,0
		c-0.1-0.1-0.1-0.2-0.2-0.2c0,0.1,0,0.2,0,0.3c0,0.2,0.1,0.3,0.2,0.4c0.1,0.1,0.1,0.1,0.2,0.2l0,0l0,0c0,0,0,0,0,0l0,0c0,0,0,0,0,0
		c0,0,0,0,0,0c0-0.1,0.1-0.2,0.1-0.3L96.9,87.1L96.9,87.1C97,87.1,97,87.1,96.9,87.1L96.9,87.1L97,87C97,87,97,87.1,96.9,87.1
		L96.9,87.1z M94.6,79.9l-0.3-0.6l-0.1,0L94.6,79.9l2,4.4c0,0.1-0.7,0.8-0.6,1.5c0,0.1,0,0.2,0.1,0.3c0.1,0.3,0.2,0.4-0.1,0.5v-0.1
		c0.5-0.1,0.5-0.1,0.5-0.2c0,0,0,0-0.5,0v0l0,0c0.5,0,0.5,0,0.5,0l0,0l0,0c0,0,0,0,0,0l0,0c0,0,0,0,0,0l0,0c0,0,0,0,0,0
		c0,0,0,0,0.3,0v0l-0.2-0.1l0,0l0,0c0,0,0-0.1,0-0.1c0,0,0,0,0,0l0-0.1c0-0.1,0.1-0.1,0.1-0.2s0.1-0.1,0.1-0.2
		c0.1-0.1,0.2-0.3,0.3-0.4L94.6,79.9z M96.9,87.1L96.9,87.1c-0.1,0-0.1,0-0.1,0h0c0,0,0,0,0,0c0,0-0.1,0-0.1-0.1l0,0
		c-0.1-0.1-0.1-0.2-0.2-0.2c0,0.1,0,0.2,0,0.3c0,0.2,0.1,0.3,0.2,0.4c0.1,0.1,0.1,0.1,0.2,0.2l0,0l0,0c0,0,0,0,0,0l0,0c0,0,0,0,0,0
		c0,0,0,0,0,0c0-0.1,0.1-0.2,0.1-0.3L96.9,87.1L96.9,87.1C97,87.1,97,87.1,96.9,87.1L96.9,87.1L97,87C97,87,97,87.1,96.9,87.1
		L96.9,87.1z M94.6,79.9l-0.3-0.6l-0.1,0L94.6,79.9l2,4.4c0,0.1-0.7,0.8-0.6,1.5c0,0.1,0,0.2,0.1,0.3c0.1,0.3,0.2,0.4-0.1,0.5v-0.1
		c0.5-0.1,0.5-0.1,0.5-0.2c0,0,0,0-0.5,0v0l0,0c0.5,0,0.5,0,0.5,0l0,0l0,0c0,0,0,0,0,0l0,0c0,0,0,0,0,0l0,0c0,0,0,0,0,0
		c0,0,0,0,0.3,0v0l-0.2-0.1l0,0l0,0c0,0,0-0.1,0-0.1c0,0,0,0,0,0l0-0.1c0-0.1,0.1-0.1,0.1-0.2s0.1-0.1,0.1-0.2
		c0.1-0.1,0.2-0.3,0.3-0.4L94.6,79.9z M96.9,87.1L96.9,87.1c-0.1,0-0.1,0-0.1,0h0c0,0,0,0,0,0c0,0-0.1,0-0.1-0.1l0,0
		c-0.1-0.1-0.1-0.2-0.2-0.2c0,0.1,0,0.2,0,0.3c0,0.2,0.1,0.3,0.2,0.4c0.1,0.1,0.1,0.1,0.2,0.2l0,0l0,0c0,0,0,0,0,0l0,0c0,0,0,0,0,0
		c0,0,0,0,0,0c0-0.1,0.1-0.2,0.1-0.3L96.9,87.1L96.9,87.1C97,87.1,97,87.1,96.9,87.1L96.9,87.1L97,87C97,87,97,87.1,96.9,87.1
		L96.9,87.1z M94.6,79.9l-0.3-0.6l-0.1,0L94.6,79.9l2,4.4c0,0.1-0.7,0.8-0.6,1.5c0,0.1,0,0.2,0.1,0.3c0.1,0.3,0.2,0.4-0.1,0.5v-0.1
		c0.5-0.1,0.5-0.1,0.5-0.2c0,0,0,0-0.5,0v0l0,0c0.5,0,0.5,0,0.5,0l0,0l0,0c0,0,0,0,0,0l0,0c0,0,0,0,0,0l0,0c0,0,0,0,0,0
		c0,0,0,0,0.3,0v0l-0.2-0.1l0,0l0,0c0,0,0-0.1,0-0.1c0,0,0,0,0,0l0-0.1c0-0.1,0.1-0.1,0.1-0.2s0.1-0.1,0.1-0.2
		c0.1-0.1,0.2-0.3,0.3-0.4L94.6,79.9z M96.9,87.1L96.9,87.1c-0.1,0-0.1,0-0.1,0h0c0,0,0,0,0,0c0,0-0.1,0-0.1-0.1l0,0
		c-0.1-0.1-0.1-0.2-0.2-0.2c0,0.1,0,0.2,0,0.3c0,0.2,0.1,0.3,0.2,0.4c0.1,0.1,0.1,0.1,0.2,0.2l0,0l0,0c0,0,0,0,0,0l0,0c0,0,0,0,0,0
		c0,0,0,0,0,0c0-0.1,0.1-0.2,0.1-0.3L96.9,87.1L96.9,87.1C97,87.1,97,87.1,96.9,87.1L96.9,87.1L97,87C97,87,97,87.1,96.9,87.1
		L96.9,87.1z M94.6,79.9l-0.3-0.6l-0.1,0L94.6,79.9l2,4.4c0,0.1-0.7,0.8-0.6,1.5c0,0.1,0,0.2,0.1,0.3c0.1,0.3,0.2,0.4-0.1,0.5v-0.1
		c0.5-0.1,0.5-0.1,0.5-0.2c0,0,0,0-0.5,0v0l0,0c0.5,0,0.5,0,0.5,0l0,0l0,0c0,0,0,0,0,0l0,0c0,0,0,0,0,0l0,0c0,0,0,0,0,0
		c0,0,0,0,0.3,0v0l-0.2-0.1l0,0l0,0c0,0,0-0.1,0-0.1c0,0,0,0,0,0l0-0.1c0-0.1,0.1-0.1,0.1-0.2s0.1-0.1,0.1-0.2
		c0.1-0.1,0.2-0.3,0.3-0.4L94.6,79.9z M96.9,87.1L96.9,87.1c-0.1,0-0.1,0-0.1,0h0c0,0,0,0,0,0c0,0-0.1,0-0.1-0.1l0,0
		c-0.1-0.1-0.1-0.2-0.2-0.2c0,0.1,0,0.2,0,0.3c0,0.2,0.1,0.3,0.2,0.4c0.1,0.1,0.1,0.1,0.2,0.2l0,0l0,0c0,0,0,0,0,0l0,0c0,0,0,0,0,0
		c0,0,0,0,0,0c0-0.1,0.1-0.2,0.1-0.3L96.9,87.1L96.9,87.1C97,87.1,97,87.1,96.9,87.1L96.9,87.1L97,87C97,87,97,87.1,96.9,87.1
		L96.9,87.1z M94.6,79.9l-0.3-0.6l-0.1,0L94.6,79.9l2,4.4c0,0.1-0.7,0.8-0.6,1.5c0,0.1,0,0.2,0.1,0.3c0.1,0.3,0.2,0.4-0.1,0.5v-0.1
		c0.5-0.1,0.5-0.1,0.5-0.2c0,0,0,0-0.5,0v0l0,0c0.5,0,0.5,0,0,0l0,0v0c0.5,0,0.5,0,0.5,0l0,0c0,0,0,0,0,0l0,0c0,0,0,0,0,0
		c0,0,0,0,0.3,0v0l-0.2-0.1l0,0l0,0c0,0,0-0.1,0-0.1c0,0,0,0,0,0l0-0.1c0-0.1,0.1-0.1,0.1-0.2s0.1-0.1,0.1-0.2
		c0.1-0.1,0.2-0.3,0.3-0.4L94.6,79.9z M96.9,87.1L96.9,87.1c-0.1,0-0.1,0-0.1,0h0c0,0,0,0,0,0c0,0-0.1,0-0.1-0.1l0,0
		c-0.1-0.1-0.1-0.2-0.2-0.2c0,0.1,0,0.2,0,0.3c0,0.2,0.1,0.3,0.2,0.4c0.1,0.1,0.1,0.1,0.2,0.2l0,0l0,0c0,0,0,0,0,0c0,0,0,0,0,0
		c0-0.1,0.1-0.2,0.1-0.3L96.9,87.1L96.9,87.1L96.9,87.1L97,87C97,87,97,87.1,96.9,87.1L96.9,87.1z M96.5,86
		C96.5,86,96.5,85.9,96.5,86c0-0.1,0-0.1,0.1-0.1c0,0,0,0,0-0.1c0-0.1,0.1-0.1,0.1-0.2c0-0.1,0.1-0.1,0.1-0.2
		c0.1-0.1,0.2-0.3,0.3-0.4l-2.4-5.1l-0.3-0.6l-0.1,0l0.3,0.6l2.1,4.4c0,0.1-0.7,0.8-0.6,1.5c0,0.1,0,0.2,0.1,0.3
		c0.1,0.3,0.2,0.4-0.1,0.5v-0.1c0.5-0.1,0.5-0.1,0.5-0.2c0,0,0,0-0.5,0v0c0.5,0,0.5,0,0.5-0.1l0,0l0.3-0.1v0v0L96.5,86
		C96.4,86,96.4,86,96.5,86z M129,56c-0.3-0.3-0.6-0.6-1-0.7c-0.4-0.1-0.8,0-1.2,0.3c0.1-0.1,0.6-0.7,1.1-1.3
		c0.5-0.7,0.9-1.3,0.4-1.2c-1,0.2-2.8,2.4-2.8,2.4l-0.4,0.7l0,0l-1.1,1.9l-0.1,0.2c-0.4,0-0.7,0.1-1.1,0.1l-0.1,0.2
		c-0.2,0.3-0.5,0.7-0.6,1.1c-0.1,0.4-1.8,1.2-2.6,1.6s-1.4,1.8-1.4,1.8s-2.4,0.2-3.1,0.9c-0.5,0.4-1.6,0.4-2.3,0.4l0,0l-0.2,0
		c-0.2,0-0.3,0-0.3,0s-0.7-0.7-1.2-0.8c-0.3,0-0.7,0-1,0c0,0-0.3-0.1-0.7-0.2l-0.1,0c-0.1,0-0.2-0.1-0.3-0.1l-0.1,0
		c0,0,0.1-0.1,0.1-0.1c0.1-0.1,0.1-0.2,0.1-0.3l0,0c0.1-0.2,0.1-0.4,0.1-0.6c0-0.2-0.1-0.4-0.2-0.6c-0.1-0.1-0.1-0.2-0.2-0.3
		c-0.3-0.6-0.6-1.2-0.7-1.9l0,0c-0.2-1,0-2.1,0.5-3.1c0.1-0.2,0.3-0.5,0.4-0.7l0.2-0.3l0.2-0.2l0.2-0.2l0,0l0.2-0.2
		c0.2-0.3,0.4-0.7,0.6-1.1c0-0.1,0.1-0.2,0.1-0.2c0,0,0-0.1,0-0.1c0,0,0-0.1,0-0.2c0-0.1,0-0.1,0-0.1c0,0,0-0.1,0-0.1
		c0,0,0-0.1,0-0.1c0,0,0-0.1,0-0.1c0,0,0-0.1,0-0.1l0-0.1c0,0,0-0.1,0-0.1v-0.1l0,0c0-0.1,0-0.1,0-0.2v-0.1c0-0.1,0-0.2,0-0.2
		c0,0,0-0.1,0-0.1s0-0.1,0-0.1s0-0.1,0-0.1s0-0.1,0-0.1l0-0.1c0,0,0-0.1,0-0.1l0-0.1c0,0,0-0.1,0-0.1s0-0.1,0-0.1c0,0,0-0.1,0-0.1
		c0,0,0-0.1,0-0.1c0,0,0-0.1,0-0.1c-0.1-0.3-0.3-0.6-0.5-0.8l-0.3-0.4l0,0l-0.1-0.1c0,0,0,0,0-0.1c0,0,0-0.1-0.1-0.1
		c-0.2-0.3-0.3-0.7-0.4-1c0-0.1-0.1-0.2-0.1-0.3c0,0,0,0,0-0.1c-0.1-0.2-0.1-0.3-0.2-0.5c-0.1-0.1-0.1-0.2-0.2-0.3
		c0,0,0-0.1-0.1-0.1l-0.1-0.2l-0.1-0.1l-0.1-0.2l-0.1-0.1c-0.1-0.1-0.1-0.2-0.2-0.3l0,0c-0.1-0.1-0.2-0.2-0.2-0.3l-0.1-0.1l-0.2-0.2
		l-0.1-0.1l-0.2-0.2l-0.1-0.1c-0.3-0.3-0.6-0.6-0.9-0.9l-0.2-0.2l0,0l-0.6-0.5l-0.2-0.2c-0.1-0.1-0.1-0.1-0.2-0.2
		c-0.5-0.4-1-0.8-1.5-1c-0.7-0.3-1.5-0.3-2.3-0.2c-1.2,0.1-2.4,0.5-3.5,1.2c-0.1,0.1-0.2,0.1-0.2,0.2c-0.5,0.3-0.9,0.7-1.2,1.2
		c-0.1,0.1-0.1,0.1-0.2,0.2s-0.1,0.1-0.1,0.2c-0.5,0.8-0.9,1.7-1.2,2.6c-1.2,3.2-2.4,6.5-2.6,9.8c0,0.1,0,0.1,0,0.2
		c0,0.4,0,0.8,0,1.3l0,0c0,0,0,0,0,0c0,0.1,0,0.2,0,0.2c0.1,1.3,0.3,2.5,0.5,3.8l-0.1,0c-1.5,0.6-1.8,1.8-1.8,1.8c0,0,0,0,0,0l0,0
		c0,0.1,0,0.2,0,0.3c0,0.7-0.2,1.4-0.6,2l-0.1,0.2l0,0c-0.5,0.8-0.6,1.3-0.6,1.7c0,0.1,0,0.3,0.1,0.4v-0.6l0,0v0c0,0,0,0,0,0v0l0,0
		c-0.2,0.5-0.4,1-0.8,1.4c-0.5,0.6-2,6.4-2,6.4c0.1,0.1,0.1,0.3,0.1,0.5l0,0c0,0.1,0,0.3-0.1,0.4l0,0l0,0c-0.1,0.2,0,0.4,0.1,0.6
		l0,0c0.1,0.2,0.2,0.3,0.3,0.5c0,0,0.3-0.1-0.2,0.5l0,0l0,0c-0.2,0.2-0.2,0.6,0,0.8c0.1,0.2,0.3,0.3,0.5,0.5c0,0,4.3,7.5,5.2,8.3
		c0.9,0.8,1.8,2.9,1.8,2.9s0.1-0.1,0.2-0.4c0.1-0.1,0.2-0.2,0.3-0.4l0.3,0.4l0,0l0.6,0.7l-0.2,0.4l0,0c-0.2,0.4-0.4,0.9-0.6,1.3
		c0,0,0,0.1,0,0.1c0,0.1,0.1,0.2,0.1,0.3c-1.1,1.4-3.7,5.4-3.5,10.2v-0.2v0.1v0c0.3,1.7,0.7,3.3,1.5,4.8c0.1,0.5,0.1,1,0.1,1.5l0,0
		c0,0.1,0,0.2-0.1,0.3c0,0.2,0,0.4,0,0.6l0,0c0.1,1.1,0.7,3.1,0.7,3.1v0.5v0v0.5c0,1.8,0,5.4-0.1,6.2c0,0.4-0.1,0.8-0.1,1.1
		c-0.1,0.4-0.1,0.6-0.1,0.6s0,0.1,0,0.4c0,0.1,0,0.2,0,0.3c-0.2,1.4-0.6,5-0.8,8.3c0,0.1,0,0.3,0,0.4c-0.1,1.8-0.3,4.6-0.3,4.6v0.1
		v0.1c0.1,0.3,0.2,0.6,0.2,0.8c0.1,0.8,0.2,1.7,0.3,2.6c0,0.1,0,0.2,0,0.3c0.1,1.7,0.2,4.8,0.2,4.8v0.1v0.2c0,0,0,0,0,0.1
		c0,0,0,0,0,0v0.2v0v0.1v0.2v0.2l0,0v0.1v0c0,0.1,0,0.3,0.1,0.4c0,0.2,0.7,0.3,0.7,0.3v0l0,0c-0.7,0-0.7,0,0,0v0l-0.5,1.5l0.9,7.6
		l0.3,2.4L95,164l2.2-0.4l0,0.2l0.1,0.8l0,0l0.6-0.1c0,0.1,0,0.2,0,0.2c-0.1,1.8-0.1,3.6-0.1,3.7h0c0.7,0,1.8,0.1,1.8,0.1v2.1h1.1
		l-0.1-1.8l0,0.3h0c0,0,2.7-0.5,4-0.7l0.1,0l0.2,0.2l1.5,1.8c0,0,3,0.2,5.6-0.4c2-0.4,4-2.4,4.1-3.1l0,0c0-0.2-0.2-0.3-0.6-0.2
		c-1.4,0.3-3.8,0-5-0.2c-0.3-0.6-1-2.4-1.6-3.8l-0.1-0.2c0.9-0.7,1.6-1.5,1.7-2c0.1-0.3-0.1-0.4-0.5-0.2c-0.5,0.2-1.1,0.2-1.6,0l0,0
		H108c0,0.2,0,0.2,0,0.2c0.4-0.6,0.5-1.4,0.5-2.2c0-0.3-0.1-0.6,0-0.8l0,0v0c-0.2-0.4-0.2-0.7-0.4-1.1c0,0,0,0,0-0.1
		c0-0.1-0.1-0.2-0.1-0.2s0.6-4.2,0.8-7.2c0.1-0.8,0.1-1.6,0-2.3l0,0c0,0,0,0,0,0c0-0.2-0.1-0.4-0.1-0.6c-0.1-0.1-0.1-0.3-0.2-0.4
		c0,0,0,0,0,0c-0.3-1.2,0.3-3.6,0.6-4.3c0.1-0.2,0.2-0.4,0.3-0.6c0.3-0.9,0.6-2,0.6-2.6c0-0.6,0.1-1.1,0.3-1.7
		c1-1.4,1.3-3.4,1.3-4.7c0-0.5,0-1,0-1.5c0-2.2,0.1-4.5,0.3-6.7c0-0.4,0.1-0.9,0.2-1.3c0.1-0.7,0.2-1.3,0.4-2
		c0.4-1.9,0.2-5.4-0.1-8.7c0-0.1,0-0.2,0-0.3c0,0,0,0,0,0c-0.3-3.2-0.8-6.2-1-7.3l0,0c-0.1-0.3-0.1-0.5-0.1-0.5
		c0.2-0.7,0.3-1.5,0.4-2.3l0,0l0,0c0-0.4,0-0.7-0.2-1c-0.1-0.1-0.1-0.2-0.1-0.3l0,0c0,0,0,0,0,0c-0.1-0.4-0.1-0.8,0-1.2l0,0
		c0-0.1,0.1-0.4,0.1-0.4v0c0,0,0,0,0,0l0-0.3c0-0.2,0-0.3,0.1-0.4c0.1,0,0.1-0.1,0.2-0.1c0.1-0.1,0.2-0.1,0.3-0.2
		c1-0.9,1.1-3.1,0.9-5.3c0,0,0,0,0,0c0,0,0,0,0,0s-0.5-3.7-0.9-5.6l0,0c0,0,0,0,0,0C112,86,112,86,112,86s0-1.6-0.1-3.1
		c0,0,0.3,0,0.3,0s0-0.1,0-0.1c-0.1-1.2-0.2-2.3-0.5-2.5c-0.1-0.1-0.2-0.5-0.3-0.9c0,0,0-0.1,0-0.1c0,0,0,0,0,0
		c-0.1-1-0.1-2.1,0-3.1c0.5-0.8,0.8-1.7,0.8-2.7l0,0c0-0.2,0-0.3,0-0.5c0,0,0-0.1,0-0.1c0-0.1,0-0.1,0-0.2c0-0.2-0.1-0.4-0.1-0.6
		c0.2,0,0.4-0.1,0.6-0.1l0.2,0l0,0c2.8-0.7,7.2-2.8,8.1-3.1c1.2-0.4,1.6-2.2,1.6-2.2s0.1-0.1,0.3-0.3c0.9-0.9,1.7-1.9,2.4-2.9l0,0
		c0.3-0.5,0.6-1.1,0.8-1.7l0,0c0.1-0.3,0.2-0.6,0.2-0.9c0-0.1,0-0.2,0-0.3v0c0,0,0,0,0,0l0.2-0.2l0,0l0,0c0.9-0.9,2.3-2.2,2.7-3.2
		C129.2,56.6,129.2,56.2,129,56z M100.8,133.6c0,0.5-0.1,0.9-0.1,1.3l0,0l0,0c-0.1,0.8-0.1,1.3-0.1,1.3c-0.1,0-0.1,0.1-0.2,0.2
		c-0.1,0.1-0.2,0.3-0.2,0.5l-0.1-1.3C100.1,135.6,100.5,134.7,100.8,133.6z M93.1,79.5c0,0,0-0.1,0-0.1l0,0l0.2,0l0,0
		c0.2,0,0.4-0.1,0.6-0.1l0.1,0.2l0.3,0.6l2.1,4.4c0,0.1-0.7,0.8-0.6,1.5c0,0.1,0,0.2,0.1,0.3c0.1,0.3,0.2,0.4,0.4,0.5l0,0
		c0.1,0,0.2,0,0.3-0.1c-0.1,0.1-0.2,0.3-0.2,0.4l0,0l0,0c0,0.1,0,0.2,0,0.3c0,0.2,0.1,0.3,0.2,0.4c0.1,0.1,0.1,0.1,0.2,0.2l0,0
		c0.1,0.1,0.1,0.3,0.1,0.4l0,0c0,0,0,0,0,0l0,0c0,0,0,0.1,0,0.1c0,0,0,0,0,0.1l-0.3-0.1l-0.6-0.2c0.1-0.1,0.2-0.2,0.3-0.2l-1.9-4.2
		c0,0-0.4-1.8-0.9-3.6L93.1,79.5z M97.6,164.1l0-0.2l0-0.1l0.1,0c0,0,0,0,0,0.1C97.6,163.9,97.6,164,97.6,164.1L97.6,164.1z
		 M94.9,79.9l-0.3-0.6l-0.1,0L94.9,79.9l2,4.4c0,0.1-0.7,0.8-0.6,1.5c0,0.1,0,0.2,0.1,0.3c0.1,0.3,0.2,0.4,0.4,0.5c0,0,0,0,0-0.1
		c0-0.1,0-0.1,0-0.2c0,0,0,0,0,0c0,0,0,0,0,0l0,0c0,0,0,0,0,0l0,0c0,0,0,0,0,0c0,0,0,0,0,0l0,0c0,0,0,0,0,0l0,0c0,0,0,0,0,0v0l0,0
		c0,0,0,0,0,0l0-0.1l0,0l0,0c0,0,0-0.1,0-0.1c0,0,0,0,0,0c0,0,0,0,0-0.1c0-0.1,0.1-0.1,0.1-0.2c0-0.1,0.1-0.1,0.1-0.2
		c0.1-0.1,0.2-0.3,0.3-0.4L94.9,79.9z M96.9,87.1L96.9,87.1c-0.1,0-0.1,0-0.1,0h0c0,0,0,0,0,0c0,0-0.1,0-0.1-0.1l0,0
		c-0.1-0.1-0.1-0.2-0.2-0.2c0,0.1,0,0.2,0,0.3c0,0.2,0.1,0.3,0.2,0.4c0.1,0.1,0.1,0.1,0.2,0.2l0,0l0,0c0,0,0,0,0,0c0,0,0,0,0,0
		c0-0.1,0.1-0.2,0.1-0.3L96.9,87.1L96.9,87.1C97,87.1,97,87.1,96.9,87.1L96.9,87.1L97,87C97,87,97,87.1,96.9,87.1L96.9,87.1z
		 M94.6,79.9l-0.3-0.6l-0.1,0L94.6,79.9l2,4.4c0,0.1-0.7,0.8-0.6,1.5c0,0.1,0,0.2,0.1,0.3c0.1,0.3,0.2,0.4-0.1,0.5v-0.1
		c0.5-0.1,0.5-0.1,0.5-0.2c0,0,0,0-0.5,0v0l0,0c0.5,0,0.5,0,0.5,0l0,0l0,0c0,0,0,0,0,0l0,0c0,0,0,0,0,0l0,0c0,0,0,0,0,0
		c0,0,0,0,0.3,0v0l-0.2-0.1l0,0l0,0c0,0,0-0.1,0-0.1c0,0,0,0,0,0l0-0.1c0-0.1,0.1-0.1,0.1-0.2s0.1-0.1,0.1-0.2
		c0.1-0.1,0.2-0.3,0.3-0.4L94.6,79.9z M96.9,87.1L96.9,87.1c-0.1,0-0.1,0-0.1,0h0c0,0,0,0,0,0c0,0-0.1,0-0.1-0.1l0,0
		c-0.1-0.1-0.1-0.2-0.2-0.2c0,0.1,0,0.2,0,0.3c0,0.2,0.1,0.3,0.2,0.4c0.1,0.1,0.1,0.1,0.2,0.2l0,0l0,0c0,0,0,0,0,0l0,0c0,0,0,0,0,0
		c0,0,0,0,0,0c0-0.1,0.1-0.2,0.1-0.3L96.9,87.1L96.9,87.1C97,87.1,97,87.1,96.9,87.1L96.9,87.1L97,87C97,87,97,87.1,96.9,87.1
		L96.9,87.1z M94.6,79.9l-0.3-0.6l-0.1,0L94.6,79.9l2,4.4c0,0.1-0.7,0.8-0.6,1.5c0,0.1,0,0.2,0.1,0.3c0.1,0.3,0.2,0.4-0.1,0.5v-0.1
		c0.5-0.1,0.5-0.1,0.5-0.2c0,0,0,0-0.5,0v0l0,0c0.5,0,0.5,0,0.5,0l0,0l0,0c0,0,0,0,0,0l0,0c0,0,0,0,0,0l0,0c0,0,0,0,0,0
		c0,0,0,0,0.3,0v0l-0.2-0.1l0,0l0,0c0,0,0-0.1,0-0.1c0,0,0,0,0,0l0-0.1c0-0.1,0.1-0.1,0.1-0.2s0.1-0.1,0.1-0.2
		c0.1-0.1,0.2-0.3,0.3-0.4L94.6,79.9z M96.9,87.1L96.9,87.1c-0.1,0-0.1,0-0.1,0h0c0,0,0,0,0,0c0,0-0.1,0-0.1-0.1l0,0
		c-0.1-0.1-0.1-0.2-0.2-0.2c0,0.1,0,0.2,0,0.3c0,0.2,0.1,0.3,0.2,0.4c0.1,0.1,0.1,0.1,0.2,0.2l0,0l0,0c0,0,0,0,0,0l0,0c0,0,0,0,0,0
		c0,0,0,0,0,0c0-0.1,0.1-0.2,0.1-0.3L96.9,87.1L96.9,87.1C97,87.1,97,87.1,96.9,87.1L96.9,87.1L97,87C97,87,97,87.1,96.9,87.1
		L96.9,87.1z M94.6,79.9l-0.3-0.6l-0.1,0L94.6,79.9l2,4.4c0,0.1-0.7,0.8-0.6,1.5c0,0.1,0,0.2,0.1,0.3c0.1,0.3,0.2,0.4-0.1,0.5v-0.1
		c0.5-0.1,0.5-0.1,0.5-0.2c0,0,0,0-0.5,0v0l0,0c0.5,0,0.5,0,0.5,0l0,0l0,0c0,0,0,0,0,0l0,0c0,0,0,0,0,0l0,0c0,0,0,0,0,0
		c0,0,0,0,0.3,0v0l-0.2-0.1l0,0l0,0c0,0,0-0.1,0-0.1c0,0,0,0,0,0l0-0.1c0-0.1,0.1-0.1,0.1-0.2s0.1-0.1,0.1-0.2
		c0.1-0.1,0.2-0.3,0.3-0.4L94.6,79.9z M96.9,87.1L96.9,87.1c-0.1,0-0.1,0-0.1,0h0c0,0,0,0,0,0c0,0-0.1,0-0.1-0.1l0,0
		c-0.1-0.1-0.1-0.2-0.2-0.2c0,0.1,0,0.2,0,0.3c0,0.2,0.1,0.3,0.2,0.4c0.1,0.1,0.1,0.1,0.2,0.2l0,0l0,0c0,0,0,0,0,0l0,0c0,0,0,0,0,0
		c0,0,0,0,0,0c0-0.1,0.1-0.2,0.1-0.3L96.9,87.1L96.9,87.1C97,87.1,97,87.1,96.9,87.1L96.9,87.1L97,87C97,87,97,87.1,96.9,87.1
		L96.9,87.1z M94.6,79.9l-0.3-0.6l-0.1,0L94.6,79.9l2,4.4c0,0.1-0.7,0.8-0.6,1.5c0,0.1,0,0.2,0.1,0.3c0.1,0.3,0.2,0.4-0.1,0.5v-0.1
		c0.5-0.1,0.5-0.1,0.5-0.2c0,0,0,0-0.5,0v0l0,0c0.5,0,0.5,0,0.5,0l0,0l0,0c0,0,0,0,0,0l0,0c0,0,0,0,0,0l0,0c0,0,0,0,0,0
		c0,0,0,0,0.3,0v0l-0.2-0.1l0,0l0,0c0,0,0-0.1,0-0.1c0,0,0,0,0,0l0-0.1c0-0.1,0.1-0.1,0.1-0.2s0.1-0.1,0.1-0.2
		c0.1-0.1,0.2-0.3,0.3-0.4L94.6,79.9z M96.9,87.1L96.9,87.1c-0.1,0-0.1,0-0.1,0h0c0,0,0,0,0,0c0,0-0.1,0-0.1-0.1l0,0
		c-0.1-0.1-0.1-0.2-0.2-0.2c0,0.1,0,0.2,0,0.3c0,0.2,0.1,0.3,0.2,0.4c0.1,0.1,0.1,0.1,0.2,0.2l0,0l0,0c0,0,0,0,0,0l0,0c0,0,0,0,0,0
		c0,0,0,0,0,0c0-0.1,0.1-0.2,0.1-0.3L96.9,87.1L96.9,87.1C97,87.1,97,87.1,96.9,87.1L96.9,87.1L97,87C97,87,97,87.1,96.9,87.1
		L96.9,87.1z M94.6,79.9l-0.3-0.6l-0.1,0L94.6,79.9l2,4.4c0,0.1-0.7,0.8-0.6,1.5c0,0.1,0,0.2,0.1,0.3c0.1,0.3,0.2,0.4-0.1,0.5v-0.1
		c0.5-0.1,0.5-0.1,0.5-0.2c0,0,0,0-0.5,0v0l0,0c0.5,0,0.5,0,0.5,0l0,0l0,0c0,0,0,0,0,0l0,0c0,0,0,0,0,0l0,0c0,0,0,0,0,0
		c0,0,0,0,0.3,0v0l-0.2-0.1l0,0l0,0c0,0,0-0.1,0-0.1c0,0,0,0,0,0l0-0.1c0-0.1,0.1-0.1,0.1-0.2s0.1-0.1,0.1-0.2
		c0.1-0.1,0.2-0.3,0.3-0.4L94.6,79.9z M96.9,87.1L96.9,87.1c-0.1,0-0.1,0-0.1,0h0c0,0,0,0,0,0c0,0-0.1,0-0.1-0.1l0,0
		c-0.1-0.1-0.1-0.2-0.2-0.2c0,0.1,0,0.2,0,0.3c0,0.2,0.1,0.3,0.2,0.4c0.1,0.1,0.1,0.1,0.2,0.2l0,0l0,0c0,0,0,0,0,0l0,0c0,0,0,0,0,0
		c0,0,0,0,0,0c0-0.1,0.1-0.2,0.1-0.3L96.9,87.1L96.9,87.1C97,87.1,97,87.1,96.9,87.1L96.9,87.1L97,87C97,87,97,87.1,96.9,87.1
		L96.9,87.1z M94.6,79.9l-0.3-0.6l-0.1,0L94.6,79.9l2,4.4c0,0.1-0.7,0.8-0.6,1.5c0,0.1,0,0.2,0.1,0.3c0.1,0.3,0.2,0.4-0.1,0.5v-0.1
		c0.5-0.1,0.5-0.1,0.5-0.2c0,0,0,0-0.5,0v0l0,0c0.5,0,0.5,0,0.5,0l0,0l0,0c0,0,0,0,0,0l0,0c0,0,0,0,0,0l0,0c0,0,0,0,0,0
		c0,0,0,0,0.3,0v0l-0.2-0.1l0,0l0,0c0,0,0-0.1,0-0.1c0,0,0,0,0,0l0-0.1c0-0.1,0.1-0.1,0.1-0.2s0.1-0.1,0.1-0.2
		c0.1-0.1,0.2-0.3,0.3-0.4L94.6,79.9z M96.9,87.1L96.9,87.1c-0.1,0-0.1,0-0.1,0h0c0,0,0,0,0,0c0,0-0.1,0-0.1-0.1l0,0
		c-0.1-0.1-0.1-0.2-0.2-0.2c0,0.1,0,0.2,0,0.3c0,0.2,0.1,0.3,0.2,0.4c0.1,0.1,0.1,0.1,0.2,0.2l0,0l0,0c0,0,0,0,0,0l0,0c0,0,0,0,0,0
		c0,0,0,0,0,0c0-0.1,0.1-0.2,0.1-0.3L96.9,87.1L96.9,87.1C97,87.1,97,87.1,96.9,87.1L96.9,87.1L97,87C97,87,97,87.1,96.9,87.1
		L96.9,87.1z M94.6,79.9l-0.3-0.6l-0.1,0L94.6,79.9l2,4.4c0,0.1-0.7,0.8-0.6,1.5c0,0.1,0,0.2,0.1,0.3c0.1,0.3,0.2,0.4-0.1,0.5v-0.1
		c0.5-0.1,0.5-0.1,0.5-0.2c0,0,0,0-0.5,0v0l0,0c0.5,0,0.5,0,0.5,0l0,0l0,0c0,0,0,0,0,0l0,0c0,0,0,0,0,0l0,0c0,0,0,0,0,0
		c0,0,0,0,0.3,0v0l-0.2-0.1l0,0l0,0c0,0,0-0.1,0-0.1c0,0,0,0,0,0l0-0.1c0-0.1,0.1-0.1,0.1-0.2s0.1-0.1,0.1-0.2
		c0.1-0.1,0.2-0.3,0.3-0.4L94.6,79.9z M96.9,87.1L96.9,87.1c-0.1,0-0.1,0-0.1,0h0c0,0,0,0,0,0c0,0-0.1,0-0.1-0.1l0,0
		c-0.1-0.1-0.1-0.2-0.2-0.2c0,0.1,0,0.2,0,0.3c0,0.2,0.1,0.3,0.2,0.4c0.1,0.1,0.1,0.1,0.2,0.2l0,0l0,0c0,0,0,0,0,0l0,0c0,0,0,0,0,0
		c0,0,0,0,0,0c0-0.1,0.1-0.2,0.1-0.3L96.9,87.1L96.9,87.1C97,87.1,97,87.1,96.9,87.1L96.9,87.1L97,87C97,87,97,87.1,96.9,87.1
		L96.9,87.1z M94.6,79.9l-0.3-0.6l-0.1,0L94.6,79.9l2,4.4c0,0.1-0.7,0.8-0.6,1.5c0,0.1,0,0.2,0.1,0.3c0.1,0.3,0.2,0.4-0.1,0.5v-0.1
		c0.5-0.1,0.5-0.1,0.5-0.2c0,0,0,0-0.5,0v0l0,0c0.5,0,0.5,0,0.5,0l0,0l0,0c0,0,0,0,0,0l0,0c0,0,0,0,0,0l0,0c0,0,0,0,0,0
		c0,0,0,0,0.3,0v0l-0.2-0.1l0,0l0,0c0,0,0-0.1,0-0.1c0,0,0,0,0,0l0-0.1c0-0.1,0.1-0.1,0.1-0.2s0.1-0.1,0.1-0.2
		c0.1-0.1,0.2-0.3,0.3-0.4L94.6,79.9z M96.9,87.1L96.9,87.1c-0.1,0-0.1,0-0.1,0h0c0,0,0,0,0,0c0,0-0.1,0-0.1-0.1l0,0
		c-0.1-0.1-0.1-0.2-0.2-0.2c0,0.1,0,0.2,0,0.3c0,0.2,0.1,0.3,0.2,0.4c0.1,0.1,0.1,0.1,0.2,0.2l0,0l0,0c0,0,0,0,0,0l0,0c0,0,0,0,0,0
		c0,0,0,0,0,0c0-0.1,0.1-0.2,0.1-0.3C96.9,87.2,96.9,87.2,96.9,87.1C97,87.1,97,87.1,96.9,87.1L96.9,87.1L97,87
		C97,87,97,87.1,96.9,87.1L96.9,87.1z M94.6,79.9l-0.3-0.6l-0.1,0L94.6,79.9l2,4.4c0,0.1-0.7,0.8-0.6,1.5c0,0.1,0,0.2,0.1,0.3
		c0.1,0.3,0.2,0.4-0.1,0.5v-0.1c0.5-0.1,0.5-0.1,0.5-0.2c0,0,0,0-0.5,0v0l0,0c0.5,0,0.5,0,0,0l0,0v0c0.5,0,0.5,0,0.5,0l0,0
		c0,0,0,0,0,0l0,0c0,0,0,0,0,0c0,0,0,0,0.3,0v0l-0.2-0.1l0,0l0,0c0,0,0-0.1,0-0.1c0,0,0,0,0,0l0-0.1c0-0.1,0.1-0.1,0.1-0.2
		s0.1-0.1,0.1-0.2c0.1-0.1,0.2-0.3,0.3-0.4L94.6,79.9z M96.9,87.1L96.9,87.1c-0.1,0-0.1,0-0.1,0h0c0,0,0,0,0,0c0,0-0.1,0-0.1-0.1
		l0,0c-0.1-0.1-0.1-0.2-0.2-0.2c0,0.1,0,0.2,0,0.3c0,0.2,0.1,0.3,0.2,0.4c0.1,0.1,0.1,0.1,0.2,0.2l0,0l0,0c0,0,0,0,0,0l0,0
		c0,0,0,0,0,0c0,0,0,0,0,0c0-0.1,0.1-0.2,0.1-0.3C96.9,87.2,96.9,87.2,96.9,87.1C97,87.1,97,87.1,96.9,87.1L96.9,87.1L97,87
		C97,87,97,87.1,96.9,87.1L96.9,87.1z"/>
	<path class="st35" d="M105.2,160.7c0,0,3.2,0.4,4.8-0.1c1.5-0.5-0.5,2.3-2.6,3c-1.5,0.4-3,0.7-4.6,0.8l-2.5-2.3l-2.6,0.2l0.5,2.6
		l-0.8,0.1l-0.3-3.4L105.2,160.7z"/>
	<path class="st20" d="M105.2,160.7c0,0,3.2,0.4,4.8-0.1c1.5-0.5-0.5,2.3-2.6,3c-1.5,0.4-3,0.7-4.6,0.8l-2.5-2.3l-2.6,0.2l0.5,2.6
		l-0.8,0.1l-0.3-3.4L105.2,160.7z"/>
	<path class="st35" d="M109.8,167c0-0.4,3.8,0.4,5.8-0.1c1.9-0.5-0.8,2.7-3.5,3.3s-5.6,0.4-5.6,0.4l-2.7-2.9l-3.4-0.1l0.2,3h-0.9
		V167H109.8z"/>
	<path class="st20" d="M109.8,167c0-0.4,3.8,0.4,5.8-0.1c1.9-0.5-0.8,2.7-3.5,3.3s-5.6,0.4-5.6,0.4l-2.7-2.9l-3.4-0.1l0.2,3h-0.9
		V167H109.8z"/>
	<path class="st107" d="M95.6,93.5c0,0-6.6,7.3-2.6,15.6c0,0,0.2,1.5,0.1,1.7c-0.2,0.3,0.6,3.7,0.6,3.7s0.1,6.2,0,7.3
		c-0.1,1.1-0.2,1.6-0.2,1.6s-1.5,11.5-1,14.9c0.5,3.4,0.7,9.5,0.7,9.5l1.9,16.4l10.1-1.9l-4.6-22.5l-0.2-4c0,0,1.9-4.9,1.1-7.4
		c-0.8-2.5,0.2-34,0.2-34L95.6,93.5z"/>
	<path class="st41" d="M95.6,93.5c0,0-6.6,7.3-2.6,15.6c0,0,0.2,1.5,0.1,1.7c-0.2,0.3,0.6,3.7,0.6,3.7s0.1,6.2,0,7.3
		c-0.1,1.1-0.2,1.6-0.2,1.6s-1.5,11.5-1,14.9c0.5,3.4,0.7,9.5,0.7,9.5l1.9,16.4l10.1-1.9l-4.6-22.5l-0.2-4c0,0,1.9-4.9,1.1-7.4
		c-0.8-2.5,0.2-34,0.2-34L95.6,93.5z"/>
	<path class="st107" d="M100.4,128.9c1.2,2.2,0.4,7.6,0.4,7.6c-1.5,1.3-0.7,12.8-0.7,12.8s-1.1,11.3-1.7,12.6
		c-0.7,1.3-0.6,6.7-0.6,6.7c7.7,1.4,12.8-1.6,12.8-1.6s-2.5-5.6-2.5-5.9c0-0.1-0.4,0.3-0.5,0.4c0.1-0.1,0.2-0.3,0.5-0.6
		c1.1-1.5,0-4.3,0-4.3s1.3-9.2,0.7-10s0.1-3.9,0.5-4.7c0.4-0.7,0.8-2.5,0.8-3.2c0-0.6,0.1-1.1,0.3-1.7c1.6-2.3,1.3-6.2,1.3-6.2
		s-0.1-5.5,0.8-9.9c0.9-4.4-1.2-16.7-1.2-16.7s0.7-2.4,0.2-3.3c-0.2-0.4-0.2-1.4-0.1-2.3c0.1-1.1,0.4-2.2,0.4-2.2l-14.4-2.5
		c-0.3,0.5-0.6,1-0.8,1.5c-4.7,8.8-1.5,12-1.5,12l3,9.4C98.1,116.7,99.2,126.7,100.4,128.9z"/>
	<path class="st109" d="M123.2,60.2l2.1,1.7c0,0,0.4-0.3,0.9-0.8c1.3-1.2,3.4-3.3,2.6-4.2c-1.1-1.2-2.1-0.4-2.2-0.4
		c0.1-0.1,2.5-2.7,1.5-2.5c-1,0.2-2.8,2.4-2.8,2.4l-1.5,2.6L123.2,60.2z"/>
	<polygon class="st109" points="95.7,88.6 98.1,89.3 96.3,92.5 94.1,89.8 	"/>
	<circle class="st109" cx="101.4" cy="51.5" r="6.9"/>
	<path class="st109" d="M105.4,54.1c0,0-6.3,9.9-0.3,10.8c5.9,0.9-8,6.9-8,6.9l-5.2-5.3c0,0,5.4-9.4,4.6-13
		C95.6,50,105.4,54.1,105.4,54.1z"/>
	<path class="st20" d="M96.6,95.2c1.4,0.4,2.8,0.8,4.2,1c0,0,7.8,3.4,10.6,2.3c0.1-1.1,0.4-2.2,0.4-2.2l-14.4-2.5
		C97.2,94.3,96.9,94.8,96.6,95.2z"/>
	<path class="st14" d="M89.5,69.2l1.4,2.9l1.6,3.3l0.2,0.5l1.9,4.1l2.4,5.2c0,0-0.8,1-0.6,1.8c0.2,0.7,0.6,0.4,0.7,0.4
		c0,0.1-0.6,0.7-0.1,1c0.5,0.3,0.3,1,0.3,1s-1.9,3.2-2.3,4.4s5.9,2.2,5.9,2.2s8.9,3.9,11.1,2s0-11.1,0-11.1s0-5.3-0.6-5.7
		c-0.6-0.5-0.3-4.1-0.3-4.1c1.5-2.8,0.5-4.4,0.5-4.4l0.4-7.2c0,0-0.7-0.7-1.2-0.8c-0.3,0-0.7,0-1,0c0,0-0.3-0.1-0.7-0.2
		c-0.8-0.2-2.2-0.6-2.7-0.3c-0.7,0.4-5.5-0.6-5.5-0.6c-2-0.3-4.1-0.5-6.2-0.6c-0.7,0-1.4,0-2.1,0.2c-1.7,0.5-2,1.8-2,1.8
		s0.2,1.1-0.6,2.4C89.1,68.6,89.5,69.2,89.5,69.2z"/>
	<path class="st20" d="M123.2,60.2l2.1,1.7c0,0,0.4-0.3,0.9-0.8c0.2-1.8-1.4-2-2.4-2L123.2,60.2z"/>
	<path class="st14" d="M111.1,65.3l0.9,0.1c0,0,2.1,0.3,2.8-0.4s3.1-0.8,3.1-0.8s0.7-1.4,1.4-1.8c0.7-0.4,2.5-1.2,2.6-1.6
		s0.7-1.2,0.7-1.2s3.9-0.9,3.4,2.2c-0.6,3.1-3.8,5.8-3.8,5.8s-0.4,1.7-1.6,2.2c-1.2,0.4-9.1,4.1-10.3,3.2
		C109,71.8,111.1,65.3,111.1,65.3z"/>
	<path class="st20" d="M90,67.3c0.8-1.4,0.6-2.4,0.6-2.4s0.3-1.2,2-1.8c0.3-0.1,0.7-0.2,1-0.2c-1.7,0.5-2,1.8-2,1.8s0.2,1.1-0.6,2.4
		c-0.8,1.4-0.5,1.9-0.5,1.9l1.4,2.9l1.6,3.3l0.2,0.5l1.9,4.1l2.4,5.2c0,0-0.8,1-0.6,1.8c0.2,0.7,0.6,0.4,0.7,0.4
		c0,0.1-0.6,0.7-0.1,1c0.5,0.3,0.3,1,0.3,1s-1.9,3.2-2.3,4.4c-0.4,1.2,5.9,2.2,5.9,2.2s6.2,2.7,9.5,2.5c-2.8,1.1-10.6-2.3-10.6-2.3
		s-6.3-1-5.9-2.2s2.3-4.4,2.3-4.4s0.2-0.7-0.3-1c-0.5-0.3,0.1-1,0.1-1c0,0-0.4,0.4-0.7-0.4c-0.3-0.8,0.6-1.8,0.6-1.8l-2.4-5.2
		l-1.9-4.1l-0.2-0.5l-1.6-3.3l-1.4-2.9C89.5,69.2,89.1,68.6,90,67.3z"/>
	<path class="st14" d="M90.5,68.4l-0.9,0.8c-0.2,0.5-0.4,1-0.8,1.4c-0.5,0.6-1.9,6.3-1.9,6.3c0.1,0.3,0.1,0.6,0,0.8
		c-0.2,0.4,0.4,1.1,0.4,1.1s0.3-0.1-0.2,0.5c-0.5,0.6,0.5,1.3,0.5,1.3s4.3,7.4,5.2,8.2c0.9,0.8,1.8,2.8,1.8,2.8s1.9-2.9,2.3-3
		L95,84.4c0,0-1.3-5.8-2.2-6.8c-0.9-1.1,0.5-4.7,0.5-4.7L90.5,68.4z"/>
	<path class="st20" d="M89.9,79.2c0.8,1,2.2,1.2,3.4,1c0.2,0,0.4,0,0.5-0.1c0.3,0,0.5-0.1,0.8-0.2c0.9-0.3,1.8-0.7,2.6-1.3
		c0.2-0.1,0.4-0.3,0.6-0.3c0.5-0.1,1,0.2,1.2,0.7c0.3,0.4,0.4,0.9,0.7,1.4c0.5,0.8,1.6,1.2,2.6,1.3c1,0,2-0.3,2.9-0.6
		c-0.8-1-1.6-1.9-1.9-3.1c-0.2-0.8-0.2-1.6-0.1-2.4c0.2-3.7,1.5-7.7,4.6-9.8c0.5-0.4,1.2-0.8,1.3-1.4c-0.8-0.2-2.2-0.6-2.7-0.3
		c-0.7,0.4-5.5-0.6-5.5-0.6c-2-0.3-4.1-0.5-6.2-0.6c-0.7,0-1.4,0-2.1,0.2c0.3,1.6,0.5,3.2,0.2,4.7c-0.2,1-0.6,1.9-1,2.8
		c-0.3,0.5-0.6,1-0.9,1.6c-0.8,1.4-1.6,2.9-1.7,4.5C89.1,77.5,89.3,78.5,89.9,79.2z"/>
	<path class="st20" d="M100.3,86.6c-0.4-0.1-0.8-0.2-1.2-0.1c-0.3,0.1-0.7,0.3-0.9,0.5l2.7,0c0.7,0,1.7,0,2.3-0.4
		C102.6,86.2,101,86.7,100.3,86.6z"/>
	<path class="st81" d="M109.6,50.7c0.8,1.2,1,2.7,0.5,4c-0.4,1-1.3,1.8-1.8,2.8c-0.8,1.5-0.7,3.4,0.2,4.9c0.2,0.3,0.3,0.6,0.4,0.9
		c0.1,0.8-0.7,1.4-1.4,1.9c-3,2.2-4.3,6.1-4.6,9.8c-0.1,0.8,0,1.6,0.1,2.4c0.3,1.2,1.1,2.2,1.9,3.1c-1,0.3-1.9,0.6-2.9,0.6
		s-2-0.4-2.6-1.3c-0.3-0.4-0.4-0.9-0.7-1.4c-0.3-0.4-0.8-0.8-1.2-0.7c-0.2,0.1-0.4,0.2-0.6,0.3c-1.2,0.9-2.5,1.4-4,1.6
		c-1.2,0.1-2.6-0.1-3.4-1c-0.6-0.7-0.7-1.7-0.6-2.5c0.3-3.2,3-5.7,3.6-8.8c0.5-2.5-0.4-5.1-0.6-7.7c-0.3-3.8,1.1-7.5,2.5-11.1
		c0.3-0.9,0.7-1.7,1.2-2.5c1.1-1.7,3.1-2.7,5.1-2.9c0.7-0.1,1.5,0,2.2,0.2c0.7,0.3,1.3,0.8,1.9,1.3c1.3,1.1,2.6,2.3,3.4,3.9
		c0.3,0.6,0.5,1.3,0.9,1.9L109.6,50.7z"/>
	<g class="st45">
		<path d="M108.4,49.3c-0.3-0.6-0.5-1.3-0.9-1.9c-0.3-0.6-0.7-1.1-1.1-1.6c0.8,0.7,1.4,1.6,1.9,2.5c0.3,0.6,0.5,1.3,0.8,1.9
			l-0.4-0.4c0.1,0.1,0.2,0.3,0.3,0.5C108.8,50,108.6,49.7,108.4,49.3z"/>
		<path d="M92.2,78.6c1.4-0.2,2.8-0.7,4-1.6c0.2-0.1,0.4-0.3,0.6-0.3c0.5-0.1,1,0.2,1.2,0.7c0.1,0.1,0.1,0.2,0.2,0.3
			c-0.2-0.1-0.4-0.1-0.6-0.1c-0.2,0.1-0.4,0.2-0.6,0.3c-1.2,0.9-2.5,1.4-4,1.6c-1.2,0.1-2.6-0.1-3.4-1c-0.1-0.1-0.2-0.3-0.3-0.4
			C90.2,78.7,91.2,78.8,92.2,78.6z"/>
		<path d="M101.3,80.1c1,0,2-0.3,2.9-0.6c-0.8-1-1.6-1.9-1.9-3.1c-0.2-0.8-0.2-1.6-0.1-2.4c0.2-3.7,1.5-7.7,4.6-9.8
			c0.7-0.5,1.5-1,1.4-1.9c-0.1-0.3-0.2-0.6-0.4-0.9c-0.9-1.5-1-3.3-0.2-4.9c0.5-1,1.3-1.8,1.8-2.8c0.5-1.1,0.4-2.4-0.2-3.5
			c0.1,0.2,0.3,0.3,0.5,0.4c0.1,0.2,0.2,0.3,0.4,0.5c0.6,1.1,0.6,2.4,0.2,3.5c-0.4,1-1.3,1.8-1.8,2.8c-0.8,1.5-0.7,3.4,0.2,4.9
			c0.2,0.3,0.3,0.6,0.4,0.9c0.1,0.8-0.7,1.4-1.4,1.9c-3,2.2-4.3,6.1-4.6,9.8c-0.1,0.8,0,1.6,0.1,2.4c0.3,1.2,1.1,2.2,1.9,3.1
			c-1,0.3-1.9,0.6-2.9,0.6c-1,0-2-0.4-2.6-1.3c0-0.1-0.1-0.1-0.1-0.2C100,79.9,100.6,80,101.3,80.1z"/>
	</g>
	<path class="st110" d="M69.3,31.5V36H49.9c0.6-0.8,1.2-1.6,1.8-2.4c0.1-0.1,0.2-0.2,0.3-0.3l0.9-1.1l0,0l0.1-0.2l0,0l0.3-0.4
		L69.3,31.5z"/>
	<rect x="89.2" y="31.5" class="st110" width="20.7" height="4.4"/>
	<rect x="136.6" y="31.5" class="st110" width="20.7" height="4.4"/>
	<rect x="176.6" y="31.5" class="st110" width="20.7" height="4.4"/>
</g>
</svg>
