<?xml version="1.0" encoding="utf-8"?>
<!-- Generator: Adobe Illustrator 22.0.1, SVG Export Plug-In . SVG Version: 6.00 Build 0)  -->
<svg version="1.1" id="logo" xmlns="http://www.w3.org/2000/svg" xmlns:xlink="http://www.w3.org/1999/xlink" x="0px" y="0px"
	 viewBox="0 0 736.3 468.2" style="enable-background:new 0 0 736.3 468.2;" xml:space="preserve">
<style type="text/css">
	.st5{opacity:1;}
	.st6{fill:rgba(255, 255, 255, .7);}
	.st7{fill:rgba(255, 255, 255, .4);}
	.st8{fill:rgba(255, 255, 255, .4);}
	.st9{fill:rgba(255, 255, 255, .8);}
</style>
<g class="st5">
	<polygon class="st6" points="608.9,0 625.3,28.6 581.6,48.7 535.5,7.7 	"/>
	<polygon class="st6" points="471.8,323.3 465.5,341.6 438.5,337.4 441.3,305.5 	"/>
	<polygon class="st6" points="700.8,156.1 728.1,149.6 736.3,176.5 692.6,198.7 	"/>
	<polygon class="st6" points="217.4,181.1 232.5,159 264.7,171.6 251.9,214.8 	"/>
	<polygon class="st7" points="60.8,159.1 40,147.2 59.1,124.7 102.6,136 	"/>
	<polygon class="st7" points="73.4,283.4 89.9,311.9 46.1,332 0,291.1 	"/>
	<polygon class="st7" points="265.1,326.6 258.8,344.9 231.8,340.7 234.6,308.8 	"/>
	<polygon class="st7" points="368.1,207.9 395.5,201.4 403.7,228.3 360,250.5 	"/>
	<polygon class="st8" points="296.9,434.5 312,412.4 344.3,425 331.5,468.2 	"/>
	<polygon class="st8" points="630.6,335.2 609.8,323.3 628.8,300.8 672.4,312.1 	"/>
	<polygon class="st8" points="258.1,35.2 274.5,63.7 230.8,83.8 184.7,42.9 	"/>
	<polygon class="st8" points="186.7,422.2 180.4,440.4 153.5,436.2 156.3,404.4 	"/>
	<polygon class="st9" points="486.8,411.9 514.2,405.4 522.4,432.3 478.7,454.5 	"/>
	<polygon class="st9" points="537.8,179.2 552.8,157.1 585.1,169.7 572.3,212.9 	"/>
	<polygon class="st9" points="371.9,97.7 351.1,85.8 370.1,63.3 413.7,74.6 	"/>
</g>
</svg>
