<?xml version="1.0" encoding="utf-8"?>
<!-- Generator: Adobe Illustrator 22.0.1, SVG Export Plug-In . SVG Version: 6.00 Build 0)  -->
<svg version="1.1" id="logo" xmlns="http://www.w3.org/2000/svg" xmlns:xlink="http://www.w3.org/1999/xlink" x="0px" y="0px"
	 viewBox="0 0 165.9 159" style="enable-background:new 0 0 165.9 159;" xml:space="preserve">
<style type="text/css">
	.st0{fill:url(#SVGID_1_);}
	.st1{fill:url(#SVGID_2_);}
	.st2{fill:#494949;}
	.st3{fill:url(#SVGID_3_);}
	.st4{fill:url(#SVGID_4_);}
	.st5{opacity:0.9;}
	.st6{fill:#FFFFFF;}
	.st7{fill:#FCFCFC;}
	.st8{fill:url(#SVGID_5_);}
	.st9{fill:#F9DB46;}
	.st10{fill:#FC6681;}
	.st11{fill:#4C83D3;}
	.st12{fill:#66443B;}
	.st13{opacity:5.000000e-02;fill:#4C83D3;}
	.st14{fill:#6C63FF;}
	.st15{fill:none;stroke:#F4F5F9;stroke-width:0.5307;stroke-miterlimit:10;}
	.st16{fill:none;stroke:#535461;stroke-width:1.0614;stroke-miterlimit:10;}
	.st17{fill:#FFD037;}
	.st18{fill:none;stroke:#D5D6E0;stroke-width:1.0614;stroke-miterlimit:10;}
	.st19{fill:#4695BC;}
	.st20{opacity:0.1;enable-background:new    ;}
	.st21{fill:#D2D2D8;}
	.st22{fill:#F1F2FB;}
	.st23{fill:#E8EAF8;}
	.st24{opacity:0.1;fill:none;stroke:#000000;stroke-width:2.1228;stroke-miterlimit:10;enable-background:new    ;}
	.st25{fill:#3D6AB2;}
	.st26{fill:url(#SVGID_6_);}
	.st27{fill:#FDC2CC;}
	.st28{fill:#5F5D7E;}
	.st29{opacity:0.15;enable-background:new    ;}
	.st30{fill:#D39999;}
	.st31{fill:#865A61;}
	.st32{fill:#FAFBFC;}
	.st33{fill:none;stroke:#4C83D3;stroke-miterlimit:10;}
	.st34{opacity:0.1;fill:#6C63FF;enable-background:new    ;}
	.st35{fill:#444053;}
	.st36{opacity:0.7;}
	.st37{opacity:0.3;fill:#6C63FF;enable-background:new    ;}
	.st38{opacity:0.3;enable-background:new    ;}
	.st39{fill:url(#SVGID_7_);}
	.st40{fill:#A5636D;}
	.st41{opacity:5.000000e-02;enable-background:new    ;}
	.st42{fill:#BEBED0;}
	.st43{fill:#5C5C8E;}
	.st44{fill:none;}
	.st45{opacity:0.1;}
	.st46{fill:#F7CDDD;}
	.st47{fill:#4C3E42;}
	.st48{opacity:0.1;fill:#FFFFFF;enable-background:new    ;}
	.st49{fill:#EFC8C4;}
	.st50{fill:#727A9C;}
	.st51{fill:#3ACC6C;}
	.st52{fill:#65617D;}
	.st53{fill:#9D9CB5;}
	.st54{fill:url(#SVGID_8_);}
	.st55{fill:url(#SVGID_9_);}
	.st56{fill:url(#SVGID_10_);}
	.st57{fill:#F5F5F5;}
	.st58{fill:url(#SVGID_11_);}
	.st59{fill:url(#SVGID_12_);}
	.st60{fill:url(#SVGID_13_);}
	.st61{fill:#7CFCFF;}
	.st62{fill:url(#SVGID_14_);}
	.st63{fill:#FFFFA5;}
	.st64{fill:url(#SVGID_15_);}
	.st65{fill:#FF69B4;}
	.st66{fill:url(#SVGID_16_);}
	.st67{fill:#4D8AF0;}
	.st68{fill:#BE7C5E;}
	.st69{fill:#333333;}
	.st70{fill:#E0E0E0;}
	.st71{fill:#F55F44;}
	.st72{opacity:0.1;fill:#333333;enable-background:new    ;}
	.st73{fill:url(#SVGID_17_);}
	.st74{fill:url(#SVGID_18_);}
	.st75{fill:url(#SVGID_19_);}
	.st76{fill:url(#SVGID_20_);}
	.st77{fill:url(#SVGID_21_);}
	.st78{fill:url(#SVGID_22_);}
	.st79{fill:url(#SVGID_23_);}
	.st80{opacity:3.000000e-02;fill:none;stroke:#FFFFFF;stroke-width:0.7405;stroke-miterlimit:10;enable-background:new    ;}
	.st81{fill:#3F3D56;}
	.st82{fill:url(#SVGID_24_);}
	.st83{fill:url(#SVGID_25_);}
	.st84{fill:url(#SVGID_26_);}
	.st85{fill:url(#SVGID_27_);}
	.st86{fill:url(#SVGID_28_);}
	.st87{fill:url(#SVGID_29_);}
	.st88{fill:url(#SVGID_30_);}
	.st89{fill:url(#SVGID_31_);}
	.st90{fill:url(#SVGID_32_);}
	.st91{fill:url(#SVGID_33_);}
	.st92{fill:url(#SVGID_34_);}
	.st93{fill:url(#SVGID_35_);}
	.st94{fill:url(#SVGID_36_);}
	.st95{fill:url(#SVGID_37_);}
	.st96{fill:url(#SVGID_38_);}
	.st97{fill:url(#SVGID_39_);}
	.st98{fill:url(#SVGID_40_);}
	.st99{fill:url(#SVGID_41_);}
	.st100{fill:url(#SVGID_42_);}
	.st101{fill:url(#SVGID_43_);}
	.st102{fill:url(#SVGID_44_);}
	.st103{fill:url(#SVGID_45_);}
	.st104{fill:url(#SVGID_46_);}
	.st105{fill:#EE8E9E;}
	.st106{fill:#E8EAF2;}
	.st107{fill:#303D5C;}
	.st108{fill:url(#SVGID_47_);}
	.st109{fill:#EFB7B9;}
	.st110{opacity:0.2;fill:#6C63FF;enable-background:new    ;}
	.st111{fill:url(#SVGID_48_);}
	.st112{fill:url(#SVGID_49_);}
	.st113{fill:url(#SVGID_50_);}
	.st114{fill:url(#SVGID_51_);}
	.st115{fill:url(#SVGID_52_);}
	.st116{fill:url(#SVGID_53_);}
	.st117{fill:url(#SVGID_54_);}
	.st118{fill:url(#SVGID_55_);}
	.st119{fill:url(#SVGID_56_);}
	.st120{fill:url(#SVGID_57_);}
	.st121{fill:url(#SVGID_58_);}
	.st122{fill:url(#SVGID_59_);}
	.st123{fill:url(#SVGID_60_);}
	.st124{fill:url(#SVGID_61_);}
	.st125{fill:url(#SVGID_62_);}
	.st126{fill:url(#SVGID_63_);}
	.st127{fill:url(#SVGID_64_);}
	.st128{fill:url(#SVGID_65_);}
	.st129{fill:url(#SVGID_66_);}
	.st130{fill:url(#SVGID_67_);}
	.st131{fill:url(#SVGID_68_);}
	.st132{fill:url(#SVGID_69_);}
	.st133{fill:url(#SVGID_70_);}
	.st134{fill:url(#SVGID_71_);}
	.st135{fill:none;stroke:#3F3D56;stroke-width:0.7405;stroke-miterlimit:10;}
	.st136{fill:#F2F2F2;}
	.st137{fill:#47465A;}
	.st138{fill:#7A799C;}
	.st139{fill:#9493B6;}
	.st140{fill:#FF6584;}
	.st141{fill:#FBBEBE;}
	.st142{fill:url(#SVGID_72_);}
	.st143{fill:url(#SVGID_73_);}
	.st144{fill:url(#SVGID_74_);}
	.st145{fill:url(#SVGID_75_);}
	.st146{fill:url(#SVGID_76_);}
	.st147{fill:url(#SVGID_77_);}
	.st148{fill:url(#SVGID_78_);}
	.st149{fill:url(#SVGID_79_);}
	.st150{fill:url(#SVGID_80_);}
	.st151{fill:url(#SVGID_81_);}
	.st152{fill:url(#SVGID_82_);}
	.st153{fill:url(#SVGID_83_);}
	.st154{fill:url(#SVGID_84_);}
	.st155{fill:url(#SVGID_85_);}
	.st156{fill:url(#SVGID_86_);}
	.st157{fill:url(#SVGID_87_);}
	.st158{fill:url(#SVGID_88_);}
	.st159{fill:url(#SVGID_89_);}
	.st160{fill:url(#SVGID_90_);}
	.st161{fill:url(#SVGID_91_);}
	.st162{fill:url(#SVGID_92_);}
	.st163{fill:url(#SVGID_93_);}
	.st164{fill:url(#SVGID_94_);}
	.st165{fill:url(#SVGID_95_);}
	.st166{fill:url(#SVGID_96_);}
	.st167{fill:url(#SVGID_97_);}
	.st168{fill:url(#SVGID_98_);}
	.st169{fill:url(#SVGID_99_);}
	.st170{fill:url(#SVGID_100_);}
	.st171{fill:url(#SVGID_101_);}
	.st172{fill:url(#SVGID_102_);}
	.st173{fill:#FFCF35;}
	.st174{fill:#FFB344;}
	.st175{fill:#983262;}
	.st176{fill:#662E57;}
	.st177{fill:#FF6838;}
	.st178{fill:#AE4E32;}
	.st179{fill:#0074A3;}
	.st180{fill:#005C83;}
	.st181{fill:#933D2A;}
	.st182{fill:#590F38;}
	.st183{fill:#3F0829;}
	.st184{fill:#EFEFEF;}
	.st185{fill:#338DEF;}
	.st186{fill:#54A0FF;}
	.st187{fill:#00263F;}
	.st188{fill:#FFDC00;}
	.st189{fill:#FFD863;}
	.st190{fill:#FFC000;}
	.st191{fill:#414952;}
	.st192{fill:#23272B;}
	.st193{fill:#E9EDF5;}
	.st194{fill:#19CFFC;}
	.st195{fill:#B5EFFF;}
	.st196{fill:#96E8FF;}
	.st197{fill:#F03049;}
	.st198{fill:#D1093A;}
	.st199{fill:#FF7D81;}
	.st200{fill:#FF636E;}
	.st201{display:none;fill:url(#SVGID_103_);}
	.st202{display:none;}
	.st203{display:inline;}
	.st204{display:inline;fill:#66443B;}
</style>
<g>
	<path class="st14" d="M120,106.6L120,106.6c25.4,0,45.9,20.6,45.9,45.9v0.8l0,0H74.1l0,0v-0.8C74.1,127.2,94.6,106.6,120,106.6
		L120,106.6z"/>
	
		<linearGradient id="SVGID_1_" gradientUnits="userSpaceOnUse" x1="-249.1484" y1="-392.2693" x2="-249.1484" y2="-378.1989" gradientTransform="matrix(1 0 0 -1 278.4 -352.2797)">
		<stop  offset="0" style="stop-color:#808080;stop-opacity:0.25"/>
		<stop  offset="0.5351" style="stop-color:#808080;stop-opacity:0.12"/>
		<stop  offset="1" style="stop-color:#808080;stop-opacity:0.1"/>
	</linearGradient>
	<rect x="22.2" y="25.9" class="st0" width="14.1" height="14.1"/>
	<rect x="22.2" y="26.7" class="st57" width="14.1" height="13.3"/>
	
		<linearGradient id="SVGID_2_" gradientUnits="userSpaceOnUse" x1="-229.1536" y1="-404.8586" x2="-229.1536" y2="-390.7881" gradientTransform="matrix(1 0 0 -1 278.4 -352.2797)">
		<stop  offset="0" style="stop-color:#808080;stop-opacity:0.25"/>
		<stop  offset="0.5351" style="stop-color:#808080;stop-opacity:0.12"/>
		<stop  offset="1" style="stop-color:#808080;stop-opacity:0.1"/>
	</linearGradient>
	<rect x="42.2" y="38.5" class="st1" width="14.1" height="14.1"/>
	<rect x="42.2" y="38.5" class="st57" width="14.1" height="13.3"/>
	
		<linearGradient id="SVGID_3_" gradientUnits="userSpaceOnUse" x1="-207.6778" y1="-389.3071" x2="-207.6778" y2="-375.2367" gradientTransform="matrix(1 0 0 -1 278.4 -352.2797)">
		<stop  offset="0" style="stop-color:#808080;stop-opacity:0.25"/>
		<stop  offset="0.5351" style="stop-color:#808080;stop-opacity:0.12"/>
		<stop  offset="1" style="stop-color:#808080;stop-opacity:0.1"/>
	</linearGradient>
	<rect x="63.7" y="23" class="st3" width="14.1" height="14.1"/>
	<rect x="63.7" y="23" class="st57" width="14.1" height="13.3"/>
	
		<linearGradient id="SVGID_4_" gradientUnits="userSpaceOnUse" x1="-229.8942" y1="-366.3501" x2="-229.8942" y2="-352.2797" gradientTransform="matrix(1 0 0 -1 278.4 -352.2797)">
		<stop  offset="0" style="stop-color:#808080;stop-opacity:0.25"/>
		<stop  offset="0.5351" style="stop-color:#808080;stop-opacity:0.12"/>
		<stop  offset="1" style="stop-color:#808080;stop-opacity:0.1"/>
	</linearGradient>
	<rect x="41.5" class="st4" width="14.1" height="14.1"/>
	<rect x="41.5" y="0.7" class="st61" width="14.1" height="13.3"/>
	
		<linearGradient id="SVGID_5_" gradientUnits="userSpaceOnUse" x1="-251.37" y1="-366.3501" x2="-251.37" y2="-352.2797" gradientTransform="matrix(1 0 0 -1 278.4 -352.2797)">
		<stop  offset="0" style="stop-color:#808080;stop-opacity:0.25"/>
		<stop  offset="0.5351" style="stop-color:#808080;stop-opacity:0.12"/>
		<stop  offset="1" style="stop-color:#808080;stop-opacity:0.1"/>
	</linearGradient>
	<rect x="20" class="st8" width="14.1" height="14.1"/>
	<rect x="20" class="st63" width="14.1" height="13.3"/>
	
		<linearGradient id="SVGID_6_" gradientUnits="userSpaceOnUse" x1="-271.3648" y1="-378.1989" x2="-271.3648" y2="-364.1284" gradientTransform="matrix(1 0 0 -1 278.4 -352.2797)">
		<stop  offset="0" style="stop-color:#808080;stop-opacity:0.25"/>
		<stop  offset="0.5351" style="stop-color:#808080;stop-opacity:0.12"/>
		<stop  offset="1" style="stop-color:#808080;stop-opacity:0.1"/>
	</linearGradient>
	<rect y="11.8" class="st26" width="14.1" height="14.1"/>
	<rect y="12.6" class="st65" width="14.1" height="13.3"/>
	
		<linearGradient id="SVGID_7_" gradientUnits="userSpaceOnUse" x1="128.5849" y1="-680.7742" x2="128.5849" y2="-536.4926" gradientTransform="matrix(1 0 0 -1 -29.572 -521.7585)">
		<stop  offset="0" style="stop-color:#808080;stop-opacity:0.25"/>
		<stop  offset="0.5351" style="stop-color:#808080;stop-opacity:0.12"/>
		<stop  offset="1" style="stop-color:#808080;stop-opacity:0.1"/>
	</linearGradient>
	<path class="st39" d="M142.5,51.6c-0.3-1.2-0.9-2.3-1.3-3.5c-0.6-1.7-0.8-3.5-0.9-5.3c0-2.9,0.5-5.9,1-8.7c0.4-2.4,0.7-4.9,0.7-7.3
		c0-2.5-0.4-5-1.5-7.3c-1.3-2.5-3.6-4.6-6.4-4.8c-2.6-0.2-5.1,1.4-7.7,1.8c-2.6,0.4-5.2-0.3-7.8-0.1c-2.5,0.2-4.8,1.2-6.7,2.8
		c-1.4,1.3-2.6,3-2.6,5c0,0.1,0,0.1,0,0.2c0,0,0,0.1,0,0.1c0,2.9,2.2,4,4.8,4.4c-0.9,5.7,3,10.9,8.7,11.8c0.1,0,0.1,0,0.2,0
		c0.1,0.2,0.2,0.5,0.4,0.7c0,0.4,0,0.7,0.1,1.1c0,2-0.5,3.9-1.3,5.7c-0.5,0.3-1.1,0.6-1.7,0.8l-6.6,7.6c-0.7,0.6-1.2,1.3-1.7,2.1
		c-0.2,0.1-0.4,0.2-0.7,0.4c0.1,0,0.3,0.1,0.4,0.1c0,0,0,0,0,0.1c-0.1,0.1-0.2,0.1-0.3,0.2l0.2,0.1c-0.7,1.3-1.1,2.9-1.1,4.4
		c0,1.4,0.3,2.9,1,4.1c0.4,0.9,0.8,1.8,1.2,2.7l-2.2,3.5l-7.4,11l-5.7,1.1c-1.3-0.2-2.6-0.2-3.8,0l1.2-2.2c0.1-0.3,0-0.6-0.3-0.8
		c-0.3-0.1-0.6,0-0.8,0.3c0,0,0,0,0,0l-1.6,3c-1.8,0.4-3.6,1.2-4.9,2.9c-1.4,1.8,0,2.4,2.1,2.5l-0.2,0.4c-0.1,0.2-0.1,0.4,0.1,0.6
		c-0.3,0.1-0.6,0.2-0.8,0.2h-4.7v2.2c-1.4,1-2.5,2.2-3.1,3.8c-3.8,3.2-4.1,9.4-4.1,9.4l-12.1,35.4c0,0-0.3,0.4-0.7,1
		c-3.3,2.1-9.9,10.4-8.2,13.8v0l7.3-3.7c0.1,0.1,0.2,0.1,0.2,0.1l0.5-0.4l14.7-7.5l-3.3-6.6l-0.5,0.2c-0.1-0.7-0.1-1.3,0.4-1.6
		c0.8-0.5,5.9-10.2,10-18.3c1.4,4.3,4.5,14.4,3.1,19.3l-0.5,0.4c-2.6,2.4-7.1,13-4.4,15.9v0l7.4-6.9l5.7-5.2l0.1-0.2l5.4-5.1l-5-5.4
		l-0.8,0.6c-0.5-1.3-1.4-4.3-1-5.4c0.4-1.1,1.5-11.8-0.2-19.1l1.2-0.1c4.1,5.3,9,10,10.4,10.4c0.1,0,0.3,0,0.4,0
		c2.8,0.4,7.9-10.7,7.9-10.7h14.2c12.5-1.8,10.4-11.8,7.9-17.9c0.1,0,0.2,0.1,0.2,0.1c0,0,0-0.1-0.1-0.4c0,0,0.1,0,0.1,0
		c-0.8-3.8-1.1-7.7-1.2-11.6c0-2.7,0.2-5.4,0.7-8.1c1,1.7,2.5,3.2,4.4,3.4c1-6.3,1.7-12.6,1.9-19c0-0.4,0-0.9,0-1.3
		C142.9,53.8,142.8,52.7,142.5,51.6z M106.2,91.3l0.7-0.8c3.4-0.5,6.9-1,9.3-1.6c-0.8,1.1-1.8,2-3,2.7
		C111.5,91.4,109,91.3,106.2,91.3z M115,81.3l-0.8,2.3l-1.4,0.3L115,81.3z M90.9,92.3c1.3,0,2.7-0.2,4-0.4c0,0-0.1,0-0.1,0.1
		c-1.1,0.2-2.1,0.5-3.1,0.8l0,0c0,0-0.4,0.1-1.1,0.2L90.9,92.3z"/>
	<path class="st67" d="M90,93.2L90,93.2c-0.3-0.1-0.4-0.5-0.3-0.7l0,0l4.5-8.4c0.1-0.3,0.5-0.4,0.7-0.3l0,0l0,0
		c0.3,0.1,0.4,0.5,0.3,0.7v0L90.7,93C90.6,93.3,90.3,93.4,90,93.2L90,93.2z"/>
	<path class="st68" d="M91.9,92.6c0,0-12.2,1.8-10.8,10.1l3.8,15.5c0,0,5.7,15.2,3.5,21.1c0,0-2.2,9.4-4.3,9s4.7,1.7,4.7,1.7l7.7-7
		l2.3-5.2c0,0,0.7-1.5-2.3-4c0,0-1.7-4.5-1.2-5.8c0.5-1.3,2-17.7-2.1-23.3L91.9,92.6z"/>
	<path class="st20" d="M91.9,92.6c0,0-12.2,1.8-10.8,10.1l3.8,15.5c0,0,5.7,15.2,3.5,21.1c0,0-2.2,9.4-4.3,9s4.7,1.7,4.7,1.7l7.7-7
		l2.3-5.2c0,0,0.7-1.5-2.3-4c0,0-1.7-4.5-1.2-5.8c0.5-1.3,2-17.7-2.1-23.3L91.9,92.6z"/>
	<path class="st57" d="M83.8,154.7l18-16.8l-4.8-5.2l-8.9,6.7C85.6,141.6,81.2,151.9,83.8,154.7L83.8,154.7z"/>
	<path class="st69" d="M115.3,91.5c0,0-18.1-1.7-24.4,1.5c0,0-0.5,2.7,2.2,5.8C95.8,102.1,115.3,91.5,115.3,91.5z"/>
	<path class="st38" d="M115.3,91.5c0,0-18.1-1.7-24.4,1.5c0,0-0.5,2.7,2.2,5.8C95.8,102.1,115.3,91.5,115.3,91.5z"/>
	<rect x="84.4" y="93.3" class="st70" width="17" height="2.2"/>
	<path class="st68" d="M95.4,96.6c0,0-9.7-0.7-13.7,2.3s-4.3,9.4-4.3,9.4l-11.7,34.3c0,0-3.6,5.4-4.2,8.7c-0.2,1,2.8,2.2,2.8,2.2
		l10.2-8.5l2-2.8c0,0-2-3.2-0.7-4c1.3-0.8,15-28.2,15-28.2l17.5-1.2L95.4,96.6z"/>
	<path class="st20" d="M133,87c0,0,12.2,19.4-5.3,21.9H114c0,0-5,11-7.7,10.4c-2.7-0.7-17.9-17-15.5-22.9l21.6-5c0,0,4-1.8,4.3-5.5
		L133,87z"/>
	<path class="st69" d="M133.4,87c0,0,12.2,19.4-5.3,21.9h-13.7c0,0-5,11-7.7,10.4c-2.7-0.7-17.9-17-15.5-22.9l21.6-5
		c0,0,4-1.8,4.3-5.5L133.4,87z"/>
	<path class="st57" d="M57.1,156.9l22-11.1l-3.2-6.4l-10.5,3.9C62.4,144.8,55.4,153.4,57.1,156.9L57.1,156.9z"/>
	<path class="st68" d="M114.7,68.3l-4.2,6.7l-10,14.9c0,0-8.2,0.3-7.2,6.9c1,6.5,10.7-3.3,10.7-3.3L120.2,75L114.7,68.3z"/>
	<path class="st20" d="M114.7,68.3l-4.2,6.7l-10,14.9c0,0-8.2,0.3-7.2,6.9c1,6.5,10.7-3.3,10.7-3.3L120.2,75L114.7,68.3z"/>
	<circle class="st68" cx="123.8" cy="32.6" r="10"/>
	<path class="st68" d="M118.8,37.9c0,0,8.9,8,3.8,16.2s12.4-5.5,12.4-5.5s-6-10-4.7-16L118.8,37.9z"/>
	<path class="st20" d="M125.5,46.2c0,0-2.3,3.7-5.5,4.7l-6.4,7.4c0,0-5.3,4.7-2.2,10.7c3.2,6,5,20.9,5,20.9s15.7,0,19.4,2
		c0,0-3.2-14.5,1.2-24.7s-3.3-24.2-3.3-24.2L125.5,46.2z"/>
	<path class="st71" d="M125.5,45.9c0,0-2.3,3.7-5.5,4.7l-6.4,7.4c0,0-5.3,4.7-2.2,10.7c3.2,6,5,20.9,5,20.9s15.7,0,19.4,2
		c0,0-3.2-14.5,1.2-24.7s-3.3-24.2-3.3-24.2L125.5,45.9z"/>
	<path class="st68" d="M132,62.6c0,0-11.5,23.9-14,25.4s-21.6,3.5-21.6,3.5s-11.7,2.2-8.5-1.8c3.2-4,9.9-3,9.9-3l15.9-3l9.2-25.9
		L132,62.6z"/>
	<path class="st20" d="M126.9,51.3c0,0-9.2,5.5-7.4,10.5c0,0,10.5-1.5,14.2,5.5c0,0,5.8-6.5,1.3-13.5
		C135.1,53.8,132.5,49.3,126.9,51.3z"/>
	<path class="st71" d="M126.9,50.9c0,0-9.2,5.5-7.4,10.5c0,0,10.5-1.5,14.2,5.5c0,0,5.8-6.5,1.3-13.5
		C135.1,53.4,132.5,48.9,126.9,50.9z"/>
	<path class="st72" d="M119.2,31.6c0.6,0,1.1,0.4,1.2,1.1c0,0,0,0,0,0c0.4,1.6,0.8,3.2,1.3,4.8c0.6,2.3,1.2,4.6,1.2,7
		c0,7-5.3,13-11.5,16.2l6.3,1.7c0.6,0.2,1.3,0.3,1.9,0.2c0.5-0.1,1-0.3,1.5-0.6c2.7-1.6,4.6-4.3,5.9-7.2s2-6,2.6-9.1
		c2.1,3.7,3.4,7.8,3.8,12c0.4,4.6-0.2,9.4,1.6,13.7c0.9,2.1,2.6,4.1,4.8,4.4c1-6.1,1.6-12.2,1.8-18.3c0-1.4,0.1-2.7-0.3-4.1
		c-0.3-1.2-0.8-2.3-1.2-3.4c-1.5-4.4-0.6-9.3,0.1-13.9s1.3-9.6-0.8-13.8c-1.2-2.4-3.5-4.5-6.2-4.7c-2.6-0.2-4.9,1.3-7.4,1.7
		c-2.5,0.4-5-0.3-7.6-0.1c-2.4,0.2-4.7,1.1-6.5,2.7c-1.4,1.2-2.5,2.9-2.5,4.8C109.2,31.8,115.9,31.2,119.2,31.6z"/>
	<path class="st69" d="M119.2,31.2c0.6,0,1.1,0.4,1.2,1.1c0,0,0,0,0,0c0.4,1.6,0.8,3.2,1.3,4.8c0.6,2.3,1.2,4.6,1.2,7
		c0,7-5.3,13-11.5,16.2l6.3,1.7c0.6,0.2,1.3,0.3,1.9,0.2c0.5-0.1,1-0.3,1.5-0.6c2.7-1.6,4.6-4.3,5.9-7.2s2-6,2.6-9.1
		c2.1,3.7,3.4,7.8,3.8,12c0.4,4.6-0.2,9.4,1.6,13.7c0.9,2.1,2.6,4.1,4.8,4.4c1-6.1,1.6-12.2,1.8-18.3c0-1.4,0.1-2.7-0.3-4.1
		c-0.3-1.2-0.8-2.3-1.2-3.4c-1.5-4.4-0.6-9.3,0.1-13.9s1.3-9.6-0.8-13.8c-1.2-2.4-3.5-4.5-6.2-4.7c-2.6-0.2-4.9,1.3-7.4,1.7
		c-2.5,0.4-5-0.3-7.6-0.1c-2.4,0.2-4.7,1.1-6.5,2.7c-1.4,1.2-2.5,2.9-2.5,4.8C109.2,31.5,115.9,30.9,119.2,31.2z"/>
</g>
</svg>
