<svg height="512pt" viewBox="-21 0 512 512.00062" width="512pt" xmlns="http://www.w3.org/2000/svg"><path d="m402.082031 57.726562h-195.9375c-4.144531 0-7.5 3.359376-7.5 7.5 0 4.144532 3.355469 7.503907 7.5 7.503907h195.9375c4.144531 0 7.5-3.359375 7.5-7.503907 0-4.140624-3.355469-7.5-7.5-7.5zm0 0"/><path d="m402.082031 94.664062h-195.9375c-4.144531 0-7.5 3.359376-7.5 7.5 0 4.144532 3.355469 7.5 7.5 7.5h195.9375c4.144531 0 7.5-3.355468 7.5-7.5 0-4.140624-3.355469-7.5-7.5-7.5zm0 0"/><path d="m402.082031 131.601562h-195.9375c-4.144531 0-7.5 3.359376-7.5 7.5 0 4.144532 3.355469 7.5 7.5 7.5h195.9375c4.144531 0 7.5-3.355468 7.5-7.5 0-4.140624-3.355469-7.5-7.5-7.5zm0 0"/><path d="m402.082031 168.539062h-195.9375c-4.144531 0-7.5 3.359376-7.5 7.5 0 4.144532 3.355469 7.5 7.5 7.5h195.9375c4.144531 0 7.5-3.355468 7.5-7.5 0-4.140624-3.355469-7.5-7.5-7.5zm0 0"/><path d="m402.082031 205.476562h-195.9375c-4.144531 0-7.5 3.359376-7.5 7.5 0 4.144532 3.355469 7.5 7.5 7.5h195.9375c4.144531 0 7.5-3.355468 7.5-7.5 0-4.140624-3.355469-7.5-7.5-7.5zm0 0"/><path d="m402.082031 242.414062h-195.9375c-4.144531 0-7.5 3.359376-7.5 7.5 0 4.140626 3.355469 7.5 7.5 7.5h195.9375c4.144531 0 7.5-3.359374 7.5-7.5 0-4.140624-3.355469-7.5-7.5-7.5zm0 0"/><path d="m37.140625 429.992188h28.035156l77.839844 77.835937c8.90625 8.90625 24.195313 2.617187 24.195313-10.019531v-67.816406h57.621093c4.144531 0 7.5-3.359376 7.5-7.5 0-4.144532-3.355469-7.5-7.5-7.5h-58.449219c-7.8125 0-14.171874 6.355468-14.171874 14.171874v66.644532l-76.667969-76.667969c-2.636719-2.636719-6.289063-4.152344-10.023438-4.152344h-28.378906c-12.207031 0-22.140625-9.929687-22.140625-22.136719v-274.007812c0-12.207031 9.933594-22.140625 22.140625-22.140625h101.234375v179.542969c0 18.601562 15.132812 33.734375 33.730469 33.734375h148.027343v59.160156c0 11.96875 14.503907 17.863281 22.886719 9.476563l14.554688-14.554688v28.785156c0 12.210938-9.929688 22.140625-22.136719 22.140625h-75.601562c-4.144532 0-7.503907 3.359375-7.503907 7.5s3.359375 7.5 7.503907 7.5h75.601562c20.476562 0 37.140625-16.660156 37.140625-37.140625v-43.785156l39.082031-39.085938h24.457032c18.601562 0 33.734374-15.132812 33.734374-33.730468v-102.140625c0-4.144531-3.359374-7.5-7.5-7.5-4.144531 0-7.503906 3.355469-7.503906 7.5v102.140625c0 10.332031-8.402344 18.734375-18.730468 18.734375h-25.117188c-3.582031 0-6.949219 1.394531-9.480469 3.925781l-66.382812 66.382812v-56.902343c0-7.394531-6.015625-13.40625-13.40625-13.40625h-149.621094c-10.332031 0-18.734375-8.40625-18.734375-18.734375 0-2.316406 0-239.496094 0-242.511719 0-10.332031 8.402344-18.734375 18.734375-18.734375h264.007813c10.328124 0 18.734374 8.40625 18.734374 18.734375v105.367187c0 4.144532 3.355469 7.5 7.5 7.5 4.140626 0 7.5-3.355468 7.5-7.5v-105.367187c0-18.601563-15.132812-33.734375-33.734374-33.734375h-264.007813c-18.601563 0-33.734375 15.132812-33.734375 33.734375v47.96875h-101.234375c-20.480469 0-37.140625 16.660156-37.140625 37.140625v274.007812c0 20.480469 16.664062 37.140626 37.140625 37.140626zm0 0"/></svg>