<svg height="511pt" viewBox="-21 0 511 511.99986" width="511pt" xmlns="http://www.w3.org/2000/svg"><path d="m343.78125 372.738281c-3.835938 3.835938-10.386719 1.121094-10.386719-4.300781v-62.585938c0-3.363281-2.722656-6.085937-6.085937-6.085937h-154.140625c-14.863281 0-27.023438-12.160156-27.023438-27.023437v-188.570313h-115.109375c-16.792968 0-30.535156 13.738281-30.535156 30.53125v282.28125c0 16.796875 13.742188 30.535156 30.535156 30.535156h29.238282c1.820312 0 3.570312.726563 4.859374 2.015625l80.4375 80.4375c4.332032 4.332032 11.734376 1.261719 11.734376-4.859375v-70.71875c0-3.796875 3.078124-6.875 6.875-6.875h174.160156c16.792968 0 30.53125-13.738281 30.53125-30.535156v-52.429687zm0 0" fill="#feca57"/><path d="m96.039062 429.535156c-1.289062-1.289062-3.035156-2.015625-4.859374-2.015625h-29.238282c-16.792968 0-30.535156-13.738281-30.535156-30.53125v-282.285156c0-16.792969 13.742188-30.53125 30.535156-30.53125h-30.90625c-16.792968 0-30.535156 13.738281-30.535156 30.53125v282.28125c0 16.796875 13.742188 30.535156 30.535156 30.535156h29.238282c1.820312 0 3.570312.722657 4.859374 2.011719l80.4375 80.441406c4.332032 4.328125 11.734376 1.261719 11.734376-4.863281v-14.308594zm0 0" fill="#f4b537"/><path d="m442.0625 0h-271.984375c-14.863281 0-27.023437 12.160156-27.023437 27.023438v249.839843c0 14.863281 12.160156 27.023438 27.023437 27.023438h154.140625c3.359375 0 6.085938 2.722656 6.085938 6.085937v62.585938c0 5.421875 6.550781 8.136718 10.382812 4.300781l71.195312-71.191406c1.140626-1.140625 2.6875-1.78125 4.300782-1.78125h25.878906c14.863281 0 27.023438-12.164063 27.023438-27.027344v-249.835937c0-14.863282-12.160157-27.023438-27.023438-27.023438zm0 0" fill="#54a0ff"/><g fill="#338def"><path d="m173.960938 276.863281v-249.839843c0-14.863282 12.160156-27.023438 27.023437-27.023438h-30.90625c-14.863281 0-27.023437 12.160156-27.023437 27.023438v249.839843c0 14.863281 12.160156 27.023438 27.023437 27.023438h30.90625c-14.863281 0-27.023437-12.160157-27.023437-27.023438zm0 0"/><path d="m361.210938 309.972656c0-3.363281-2.726563-6.085937-6.085938-6.085937h-30.90625c3.359375 0 6.085938 2.722656 6.085938 6.085937v62.585938c0 5.421875 6.550781 8.136718 10.382812 4.300781l20.523438-20.519531zm0 0"/><path d="m406.996094 67.195312h-201.855469c-4.265625 0-7.726563-3.457031-7.726563-7.726562 0-4.265625 3.457032-7.726562 7.726563-7.726562h201.855469c4.269531 0 7.726562 3.460937 7.726562 7.726562 0 4.269531-3.457031 7.726562-7.726562 7.726562zm0 0"/><path d="m406.996094 105.25h-201.855469c-4.265625 0-7.726563-3.460938-7.726563-7.726562 0-4.269532 3.457032-7.726563 7.726563-7.726563h201.855469c4.269531 0 7.726562 3.457031 7.726562 7.726563 0 4.265624-3.457031 7.726562-7.726562 7.726562zm0 0"/><path d="m406.996094 143.304688h-201.855469c-4.265625 0-7.726563-3.460938-7.726563-7.730469 0-4.265625 3.457032-7.726563 7.726563-7.726563h201.855469c4.269531 0 7.726562 3.460938 7.726562 7.726563 0 4.269531-3.457031 7.730469-7.726562 7.730469zm0 0"/><path d="m406.996094 181.355469h-201.855469c-4.265625 0-7.726563-3.460938-7.726563-7.726563 0-4.269531 3.457032-7.726562 7.726563-7.726562h201.855469c4.269531 0 7.726562 3.457031 7.726562 7.726562 0 4.265625-3.457031 7.726563-7.726562 7.726563zm0 0"/><path d="m406.996094 219.40625h-201.855469c-4.265625 0-7.726563-3.457031-7.726563-7.726562 0-4.265626 3.457032-7.726563 7.726563-7.726563h201.855469c4.269531 0 7.726562 3.460937 7.726562 7.726563 0 4.269531-3.457031 7.726562-7.726562 7.726562zm0 0"/><path d="m406.996094 257.460938h-201.855469c-4.265625 0-7.726563-3.457032-7.726563-7.726563 0-4.265625 3.457032-7.726563 7.726563-7.726563h201.855469c4.269531 0 7.726562 3.457032 7.726562 7.726563 0 4.265625-3.457031 7.726563-7.726562 7.726563zm0 0"/></g></svg>