<?xml version="1.0" encoding="iso-8859-1"?>
<!-- Generator: Adobe Illustrator 19.0.0, SVG Export Plug-In . SVG Version: 6.00 Build 0)  -->
<svg version="1.1" id="Capa_1" xmlns="http://www.w3.org/2000/svg" xmlns:xlink="http://www.w3.org/1999/xlink" x="0px" y="0px"
	 viewBox="0 0 512 512" style="enable-background:new 0 0 512 512;" xml:space="preserve">
<path style="fill:#D4E78A;" d="M348.836,86.08H40.562C18.196,86.08,0,104.324,0,126.69v219.037
	c0,22.366,18.196,40.515,40.562,40.515H86.3l95.093,79.268c5.19,4.326,13.305,0.514,13.305-6.208v-73.06h154.137
	c22.366,0,40.562-18.149,40.562-40.515V126.69C389.398,104.325,371.202,86.08,348.836,86.08z"/>
<path style="fill:#BFDC4F;" d="M110.638,370.017H56.787c-17.921,0-32.45-14.481-32.45-32.402V110.465
	c0-8.702,2.749-16.756,7.414-23.362C13.609,91.141,0,107.351,0,126.69v219.037c0,22.366,18.196,40.515,40.562,40.515H86.3
	l95.093,79.268c5.19,4.326,13.305,0.513,13.305-6.208v-19.186L110.638,370.017z"/>
<g>
	<path style="fill:#AAD015;" d="M137.912,175.318H97.35c-4.48,0-8.112-3.632-8.112-8.112s3.632-8.112,8.112-8.112h40.562
		c4.48,0,8.112,3.632,8.112,8.112S142.392,175.318,137.912,175.318z"/>
	<path style="fill:#AAD015;" d="M243.374,175.318h-73.012c-4.48,0-8.112-3.632-8.112-8.112s3.632-8.112,8.112-8.112h73.012
		c4.48,0,8.112,3.632,8.112,8.112S247.854,175.318,243.374,175.318z"/>
</g>
<g>
	<path style="fill:#EAF3C4;" d="M170.362,240.217H97.35c-4.48,0-8.112-3.632-8.112-8.112s3.632-8.112,8.112-8.112h73.012
		c4.48,0,8.112,3.632,8.112,8.112S174.842,240.217,170.362,240.217z"/>
	<path style="fill:#EAF3C4;" d="M129.799,280.78H97.35c-4.48,0-8.112-3.632-8.112-8.112s3.632-8.112,8.112-8.112h32.45
		c4.48,0,8.112,3.632,8.112,8.112S134.28,280.78,129.799,280.78z"/>
	<path style="fill:#EAF3C4;" d="M227.149,280.78h-64.9c-4.48,0-8.112-3.632-8.112-8.112s3.632-8.112,8.112-8.112h64.9
		c4.48,0,8.112,3.632,8.112,8.112S231.629,280.78,227.149,280.78z"/>
	<path style="fill:#EAF3C4;" d="M219.037,321.342H97.35c-4.48,0-8.112-3.632-8.112-8.112c0-4.48,3.632-8.112,8.112-8.112h121.687
		c4.48,0,8.112,3.632,8.112,8.112C227.149,317.71,223.517,321.342,219.037,321.342z"/>
	<path style="fill:#EAF3C4;" d="M235.261,240.217h-32.45c-4.48,0-8.112-3.632-8.112-8.112s3.632-8.112,8.112-8.112h32.45
		c4.48,0,8.112,3.632,8.112,8.112S239.742,240.217,235.261,240.217z"/>
</g>
<path style="fill:#F3F2ED;" d="M507.247,72.35l-22.946-22.946c-6.336-6.336-16.609-6.336-22.945,0l-21.612,21.612L273.273,237.487
	c-0.803,0.803-1.428,1.764-1.835,2.824l-26.425,68.708c-0.631,1.64,0.981,3.252,2.621,2.621l68.706-26.426
	c1.06-0.408,2.022-1.032,2.824-1.835l166.192-166.192l4.682-4.682l17.21-17.21C513.584,88.959,513.584,78.686,507.247,72.35z"/>
<path style="fill:#FFE340;" d="M444.147,66.614l-4.402,4.402L273.273,237.487c-0.411,0.411-0.773,0.864-1.085,1.35l45.627,45.627
	c0.486-0.312,0.939-0.675,1.35-1.085l170.874-170.874L444.147,66.614z"/>
<path style="fill:#FF66B2;" d="M467.092,89.559L295.002,261.65l22.813,22.813c0.486-0.312,0.939-0.675,1.35-1.085l170.874-170.874
	L467.092,89.559z"/>
<path style="fill:#6C8181;" d="M247.633,311.639l37.17-14.296l-25.495-25.495l-14.296,37.17
	C244.381,310.659,245.993,312.27,247.633,311.639z"/>
<g>
</g>
<g>
</g>
<g>
</g>
<g>
</g>
<g>
</g>
<g>
</g>
<g>
</g>
<g>
</g>
<g>
</g>
<g>
</g>
<g>
</g>
<g>
</g>
<g>
</g>
<g>
</g>
<g>
</g>
</svg>
