<?xml version="1.0" standalone="no"?>
<!DOCTYPE svg PUBLIC "-//W3C//DTD SVG 20010904//EN"
 "http://www.w3.org/TR/2001/REC-SVG-20010904/DTD/svg10.dtd">
<svg version="1.0" xmlns="http://www.w3.org/2000/svg"
 width="512.000000pt" height="512.000000pt" viewBox="0 0 512.000000 512.000000"
 preserveAspectRatio="xMidYMid meet">
<metadata>
Created by potrace 1.11, written by Peter Selinger 2001-2013
</metadata>
<g transform="translate(0.000000,512.000000) scale(0.100000,-0.100000)"
fill="#000000" stroke="none">
<path d="M1052 4963 c1 -5 -4 -21 -10 -36 -7 -16 -12 -34 -12 -42 0 -8 -4 -16
-10 -20 -5 -3 -7 -12 -3 -20 3 -8 0 -15 -6 -15 -7 0 -11 -6 -10 -12 2 -13 -1
-24 -32 -96 -10 -24 -18 -46 -17 -50 1 -4 -4 -20 -10 -35 -7 -16 -12 -35 -12
-43 0 -8 -4 -14 -8 -14 -4 0 -8 -8 -9 -17 -1 -19 -24 -84 -33 -93 -5 -5 -9
-27 -12 -57 -1 -7 -5 -13 -10 -13 -4 0 -7 -3 -6 -7 3 -14 -24 -98 -35 -112 -7
-8 -10 -15 -8 -15 2 -1 -6 -32 -19 -71 -14 -38 -25 -72 -25 -75 -1 -3 -7 -18
-14 -35 -7 -16 -15 -42 -18 -57 -3 -16 -10 -28 -15 -28 -5 0 -6 -4 -3 -10 3
-5 3 -16 -2 -22 -4 -7 -8 -15 -9 -18 0 -3 -4 -14 -8 -25 -4 -11 -12 -31 -16
-45 -4 -14 -12 -34 -16 -45 -4 -11 -8 -22 -9 -25 0 -3 -9 -30 -20 -60 -11 -30
-20 -58 -21 -62 -1 -5 -2 -9 -4 -10 -1 -2 -3 -10 -5 -18 -2 -8 -8 -28 -15 -45
-6 -16 -11 -31 -11 -32 0 -2 -6 -20 -14 -42 -7 -22 -11 -42 -8 -45 4 -3 2 -6
-4 -6 -10 0 -41 -90 -34 -99 1 -2 -1 -7 -6 -10 -7 -5 -31 -71 -48 -131 -1 -3
-4 -12 -8 -20 -18 -46 -49 -137 -52 -151 -2 -8 -11 -33 -20 -55 -9 -21 -16
-41 -17 -44 -1 -9 -6 -24 -28 -85 -12 -33 -23 -64 -24 -70 -2 -5 -9 -31 -17
-57 -7 -27 -17 -48 -22 -48 -4 0 -5 -5 -2 -10 4 -6 2 -16 -3 -23 -5 -7 -12
-24 -16 -39 -3 -15 -11 -40 -17 -55 -6 -15 -10 -30 -11 -33 0 -3 -4 -11 -10
-17 -6 -7 -8 -13 -4 -13 4 0 0 -13 -9 -30 -8 -16 -15 -31 -15 -32 1 -2 -1 -10
-4 -18 -36 -111 -48 -147 -53 -160 -3 -8 -8 -23 -10 -33 -1 -10 -12 -36 -22
-58 l-20 -40 27 -10 c28 -11 117 -48 189 -80 24 -11 50 -19 58 -19 8 0 15 -5
15 -10 0 -6 3 -9 8 -8 14 4 52 -13 52 -23 0 -6 4 -8 10 -4 5 3 17 1 27 -5 26
-14 77 -34 86 -32 4 1 7 -2 7 -8 0 -5 6 -10 14 -10 14 0 213 -81 258 -106 14
-8 33 -14 42 -14 9 0 16 -5 16 -11 0 -6 6 -9 13 -6 7 3 21 -1 32 -9 10 -8 27
-14 37 -14 10 0 18 -3 18 -8 0 -6 48 -26 85 -35 6 -1 16 -6 23 -10 20 -13 32
1 22 27 -5 13 -6 26 -3 29 9 9 10 67 0 67 -4 0 -5 5 -1 12 4 7 7 35 6 63 -1
27 -2 56 -2 63 0 6 0 19 0 27 0 8 0 22 0 30 0 8 0 22 0 30 0 8 0 21 0 28 0 6
1 31 3 55 2 23 0 42 -3 42 -5 0 -4 24 3 97 2 18 -1 33 -6 33 -4 0 -5 5 -1 11
10 17 11 129 0 129 -5 0 -5 5 0 12 11 16 11 39 1 56 -5 6 -4 12 1 12 10 0 9
30 -2 48 -4 6 -3 12 2 12 10 0 9 30 -2 48 -4 6 -3 12 2 12 6 0 7 14 2 34 -4
19 -6 37 -3 40 9 9 9 66 0 66 -4 0 -5 5 -1 12 4 7 7 35 6 63 -1 27 -2 56 -2
63 0 6 0 19 0 27 0 8 0 22 0 30 0 8 0 22 0 30 0 8 0 21 0 28 0 6 1 31 3 55 2
23 0 42 -3 42 -5 0 -4 24 3 98 2 17 -1 32 -6 32 -4 0 -5 5 -1 11 10 17 11 129
0 129 -5 0 -5 5 0 13 11 15 11 38 1 55 -5 6 -4 12 1 12 10 0 9 30 -2 48 -4 6
-3 12 2 12 10 0 9 30 -2 48 -4 6 -3 12 2 12 6 0 7 14 2 34 -4 19 -6 37 -3 40
9 9 9 66 0 66 -4 0 -5 5 -1 11 9 15 10 112 1 126 -4 6 -3 14 1 17 10 6 9 36
-2 54 -4 6 -4 12 1 12 4 0 8 11 8 25 0 14 -3 25 -7 25 -3 0 -1 11 5 24 26 54
-13 52 1005 52 518 -1 942 2 942 6 0 3 -14 9 -30 13 -17 4 -43 13 -58 20 -35
18 -85 38 -95 39 -4 1 -11 6 -15 11 -4 6 -14 11 -22 11 -23 3 -174 68 -182 79
-4 5 -8 6 -8 1 0 -5 -7 -3 -15 4 -8 7 -15 9 -15 4 0 -4 -5 -3 -12 4 -7 7 -20
12 -30 12 -10 0 -18 5 -18 10 0 6 -7 10 -15 10 -9 0 -35 9 -57 20 -23 11 -47
20 -54 20 -7 0 -20 8 -30 18 -10 9 -19 16 -21 14 -7 -6 -83 22 -83 31 0 6 -3
8 -6 4 -4 -3 -21 1 -38 10 -17 10 -37 16 -43 15 -7 -2 -13 2 -13 8 0 5 -4 10
-9 10 -5 0 -22 5 -38 12 -15 6 -30 12 -33 13 -13 4 -67 26 -85 35 -52 24 -114
50 -120 50 -3 0 -24 9 -48 19 -92 42 -140 61 -153 61 -8 0 -14 5 -14 12 0 6
-3 8 -7 5 -3 -4 -12 -2 -20 4 -7 6 -13 8 -13 4 0 -5 -9 0 -21 11 -12 10 -23
18 -25 17 -5 -3 -29 5 -79 27 -71 30 -100 42 -103 41 -1 -1 -16 6 -32 14 -16
8 -31 15 -32 14 -2 0 -33 13 -70 29 -36 17 -68 28 -71 26 -2 -2 -10 2 -16 10
-7 8 -18 13 -25 10 -7 -3 -19 2 -26 11 -7 8 -20 15 -29 15 -10 0 -26 7 -37 15
-20 15 -55 20 -52 8z"/>
<path d="M4326 4241 c-4 -6 -12 -9 -17 -6 -5 4 -9 1 -9 -5 0 -6 -4 -9 -9 -5
-5 3 -12 1 -15 -4 -3 -5 -18 -12 -33 -16 -15 -3 -52 -18 -81 -31 -29 -13 -58
-22 -63 -19 -5 4 -9 1 -9 -4 0 -6 -7 -11 -15 -11 -8 0 -15 -4 -15 -10 0 -5 -7
-7 -15 -4 -8 4 -15 2 -15 -3 0 -5 -6 -10 -12 -10 -7 0 -58 -18 -113 -40 -109
-43 -131 -52 -143 -54 -4 0 -20 -8 -37 -16 -60 -31 -66 -34 -74 -28 -5 3 -12
-2 -15 -11 -3 -8 -10 -13 -15 -9 -5 3 -28 -4 -50 -16 -22 -11 -46 -22 -53 -23
-12 -3 -32 -10 -98 -38 -14 -6 -29 -12 -35 -14 -5 -1 -23 -8 -40 -15 -16 -7
-32 -13 -35 -14 -3 -1 -18 -7 -35 -14 -16 -6 -50 -19 -75 -29 -25 -9 -56 -22
-70 -29 -14 -7 -31 -13 -37 -13 -7 0 -13 -5 -13 -11 0 -5 -5 -7 -10 -4 -6 4
-18 1 -27 -7 -9 -7 -18 -12 -19 -11 -9 4 -44 -11 -44 -19 0 -5 -4 -7 -9 -4 -5
3 -22 -1 -37 -9 -16 -8 -36 -15 -46 -15 -9 0 -18 -4 -20 -10 -1 -5 -12 -11
-23 -13 -11 -2 -42 -13 -69 -25 -27 -12 -55 -22 -63 -22 -8 0 -11 -5 -7 -11 4
-7 1 -10 -7 -7 -8 3 -27 -1 -42 -9 -29 -14 -60 -24 -84 -25 -7 -1 -13 -5 -13
-9 0 -3 -10 -10 -23 -14 -12 -4 -24 -8 -27 -10 -5 -2 -20 -7 -57 -22 -10 -3
-21 -5 -25 -5 -5 1 -8 -3 -8 -10 0 -6 -3 -9 -6 -6 -3 3 -45 -11 -94 -32 -49
-21 -91 -35 -94 -32 -3 3 -6 0 -6 -6 0 -7 -3 -11 -7 -10 -9 1 -34 -7 -78 -27
-31 -13 -64 -27 -77 -30 -5 -2 -10 -4 -13 -5 -3 -1 -8 -3 -12 -4 -5 -1 -26
-10 -48 -20 -22 -10 -44 -19 -50 -20 -5 -2 -23 -9 -40 -15 -16 -7 -36 -14 -43
-15 -7 -1 -17 -7 -23 -13 -6 -6 -17 -9 -24 -7 -29 12 -20 -66 16 -138 5 -10 9
-26 9 -36 0 -10 3 -22 7 -26 4 -3 8 -12 9 -19 1 -7 13 -44 27 -84 14 -39 23
-74 19 -77 -3 -3 0 -6 7 -6 7 0 10 -4 6 -9 -3 -5 -1 -12 4 -15 5 -4 8 -14 7
-23 -2 -10 3 -24 11 -31 7 -8 11 -17 8 -22 -3 -5 -1 -11 4 -15 5 -3 8 -14 6
-25 -2 -11 1 -20 6 -20 6 0 7 -4 4 -10 -3 -5 -2 -10 4 -10 5 0 12 -18 16 -40
4 -22 11 -42 16 -46 5 -3 7 -9 4 -14 -3 -5 -1 -17 4 -27 9 -16 41 -111 47
-138 1 -5 12 -37 24 -70 11 -33 22 -64 24 -70 1 -5 8 -29 15 -52 6 -23 16 -45
21 -48 6 -4 8 -10 6 -14 -3 -4 10 -51 29 -104 18 -53 31 -97 28 -97 -3 0 0 -6
6 -13 6 -8 12 -22 14 -33 2 -10 7 -26 10 -34 15 -39 40 -117 42 -135 2 -11 10
-38 20 -60 9 -22 19 -51 21 -65 3 -13 10 -30 16 -37 6 -7 7 -13 3 -13 -4 0 -2
-6 4 -13 6 -8 8 -16 5 -20 -3 -3 0 -16 7 -29 7 -12 14 -32 16 -43 2 -11 8 -24
13 -29 4 -4 6 -15 3 -22 -3 -8 -1 -14 4 -14 5 0 10 -6 11 -12 2 -23 7 -43 15
-55 5 -7 6 -17 3 -22 -4 -5 -1 -11 5 -13 5 -2 12 -15 14 -28 4 -33 43 -148 61
-181 7 -14 11 -29 8 -32 -3 -3 -2 -12 2 -19 5 -7 9 -17 10 -23 3 -12 62 -194
71 -215 3 -8 7 -20 9 -27 6 -29 27 -89 35 -99 5 -6 6 -14 2 -17 -3 -4 0 -13 7
-22 7 -8 9 -15 5 -15 -4 0 -3 -6 3 -12 5 -7 13 -28 17 -46 3 -17 10 -32 14
-32 4 0 7 -8 8 -17 2 -21 7 -41 17 -65 4 -9 5 -22 1 -28 -10 -16 32 -12 78 8
23 10 62 27 87 36 25 10 54 23 65 28 12 5 27 10 35 12 8 1 32 10 54 19 21 9
40 17 41 17 1 0 20 8 41 17 22 9 44 17 49 19 6 1 30 11 55 22 25 11 72 30 105
43 33 13 63 28 66 33 4 5 11 6 17 2 6 -3 14 -1 17 5 4 5 13 8 21 5 8 -3 14 -2
14 3 0 8 38 24 53 22 4 -1 7 4 7 9 0 5 3 9 8 8 4 -1 23 4 42 11 19 8 38 13 43
12 4 0 7 4 7 10 0 5 4 8 8 5 5 -3 20 1 35 9 14 7 28 11 31 7 3 -3 6 1 6 8 0 7
3 11 6 7 4 -3 24 3 45 14 22 11 39 17 39 14 0 -4 12 1 28 9 15 8 54 25 87 38
33 12 63 27 67 33 4 5 8 7 8 3 0 -4 24 3 54 16 30 13 57 22 60 18 3 -3 6 0 6
6 0 7 6 12 14 12 8 0 36 10 63 22 26 12 54 20 61 19 6 -1 12 3 12 9 0 5 8 10
18 10 10 0 22 3 26 7 3 4 12 8 19 9 7 1 29 9 50 18 20 9 37 13 37 9 0 -5 4 -2
9 6 5 8 20 16 33 18 13 2 24 8 26 13 2 5 9 7 17 4 7 -3 16 0 20 5 3 6 11 9 16
6 5 -4 9 -1 9 4 0 6 3 10 8 9 4 -1 21 5 37 12 39 18 35 16 73 25 17 4 32 12
32 17 0 5 4 7 9 3 6 -3 13 0 18 7 4 7 13 13 18 14 32 4 53 18 52 35 -1 10 -4
19 -7 19 -3 0 -6 28 -7 63 -2 56 -5 99 -17 214 -3 21 -5 38 -6 38 0 0 -3 27
-5 60 -3 49 0 66 18 92 12 18 27 33 32 33 6 0 22 10 37 23 14 12 36 29 48 37
12 8 28 21 36 27 7 7 15 13 18 13 6 0 36 24 61 48 8 6 17 12 22 12 5 0 16 8
25 18 26 27 46 42 58 42 5 0 10 6 10 13 0 13 -24 93 -38 127 -3 8 -7 20 -7 25
-1 6 -5 18 -9 27 -4 9 -9 22 -10 30 -2 7 -8 24 -13 38 -6 14 -9 28 -6 33 2 4
0 7 -6 7 -5 0 -10 8 -10 18 1 9 -29 103 -66 207 -36 105 -66 198 -66 207 0 10
-4 20 -10 23 -5 4 -9 16 -9 29 0 12 -3 26 -7 30 -5 4 -9 12 -9 17 -1 5 -3 11
-4 14 -1 3 -4 10 -5 15 -1 6 -4 12 -5 15 -1 3 -3 8 -4 13 -1 4 -10 34 -21 67
-10 33 -18 63 -17 68 1 4 -3 7 -10 7 -6 0 -9 3 -5 6 3 3 -4 31 -15 62 -11 32
-21 62 -22 67 -1 6 -9 30 -18 55 -27 74 -136 413 -140 435 -2 11 -7 23 -11 26
-4 3 -10 18 -13 34 -3 15 -9 36 -15 47 -5 10 -6 18 -2 18 4 0 2 5 -5 12 -7 7
-12 20 -12 30 0 10 -4 26 -9 36 -13 23 -24 56 -23 63 1 4 -8 31 -19 60 -11 30
-22 61 -24 69 -2 8 -4 16 -5 18 -2 1 -3 5 -4 10 -2 10 -36 113 -43 132 -3 8
-7 20 -8 27 -6 26 -22 45 -29 34z"/>
<path d="M1229 4003 c-1 -10 -1 -2996 0 -3004 1 -9 1171 -7 1171 3 0 4 -5 8
-11 8 -5 0 -7 5 -4 10 4 6 2 16 -3 23 -6 7 -12 24 -14 37 -2 14 -6 30 -10 35
-8 14 -32 98 -30 108 1 4 -2 7 -7 7 -4 0 -11 16 -14 34 -3 19 -13 50 -21 68
-9 18 -17 43 -19 55 -2 12 -6 26 -10 29 -4 4 -7 16 -7 26 0 10 -4 18 -9 18 -6
0 -8 9 -6 20 2 11 -1 20 -6 20 -5 0 -9 6 -8 13 3 19 -12 67 -22 67 -5 0 -6 7
-3 15 4 8 1 21 -5 29 -6 7 -8 16 -4 19 3 4 2 7 -3 7 -5 0 -11 10 -11 22 -1 13
-6 32 -12 43 -11 23 -25 77 -23 88 1 4 -3 7 -9 7 -5 0 -8 3 -6 8 3 4 -3 24
-13 45 -10 20 -14 37 -9 37 6 0 6 7 0 18 -19 36 -40 88 -46 117 -4 17 -9 37
-12 45 -3 8 -7 20 -9 25 -6 23 -29 80 -34 85 -5 5 -10 30 -12 60 -1 8 -5 17
-9 20 -4 3 -9 17 -11 32 -2 14 -9 32 -16 40 -6 8 -9 18 -5 21 3 4 0 13 -6 21
-7 8 -10 20 -7 25 4 5 2 12 -4 16 -6 4 -8 10 -5 15 3 5 1 11 -5 15 -5 3 -10
15 -10 26 0 10 -4 19 -10 19 -5 0 -7 6 -4 14 3 8 0 17 -5 21 -6 3 -9 11 -5 16
3 5 1 15 -4 22 -5 7 -13 27 -17 45 -3 17 -11 32 -16 32 -6 0 -7 5 -4 10 3 6 3
16 -2 23 -7 12 -12 27 -17 57 -1 8 -7 25 -14 36 -6 12 -8 24 -5 28 3 3 1 6 -5
6 -7 0 -11 3 -11 8 1 4 0 12 -1 17 -1 6 -3 15 -4 20 -11 51 -20 75 -26 75 -3
0 -7 6 -8 13 -1 18 -9 49 -21 80 -6 16 -9 33 -5 38 3 5 0 9 -5 9 -6 0 -11 9
-11 19 0 11 -4 22 -10 26 -5 3 -7 12 -3 20 3 8 1 15 -4 15 -5 0 -10 6 -11 13
-1 6 -7 36 -14 65 -10 43 -10 55 1 61 7 5 12 11 12 15 -1 3 2 6 7 7 4 1 16 6
27 12 11 6 23 10 28 9 4 -1 7 2 7 6 0 8 99 38 113 34 5 -1 6 2 3 7 -7 10 73
33 87 24 6 -3 7 -1 3 5 -4 7 -2 12 4 12 6 0 8 4 5 10 -3 6 1 7 10 4 8 -4 22
-1 30 6 8 7 15 9 15 5 0 -4 7 -2 15 5 8 6 19 9 25 5 5 -3 10 -1 10 4 0 6 7 11
15 11 8 0 15 4 15 9 0 6 9 8 20 6 11 -2 20 0 20 6 0 5 9 9 20 9 11 0 20 4 20
10 0 5 7 7 15 4 8 -4 15 -1 15 6 0 6 4 9 9 5 5 -3 12 -1 16 5 3 5 15 10 26 10
10 0 19 4 19 10 0 5 7 7 15 4 8 -4 15 -1 15 6 0 7 8 10 20 7 11 -3 18 -1 14 4
-3 5 4 9 15 9 12 0 21 4 21 10 0 5 7 7 15 4 8 -4 15 -2 15 4 0 9 55 27 73 23
4 0 7 3 7 8 0 9 48 26 63 23 4 -1 7 3 7 9 0 5 4 8 9 4 5 -3 12 -1 16 5 4 6 10
8 15 5 5 -3 11 -1 15 5 3 5 17 10 31 10 14 0 22 4 19 10 -3 6 5 10 19 10 14 0
28 5 32 11 3 6 17 9 29 7 16 -4 22 -1 18 9 -3 8 2 13 16 13 12 0 21 4 21 10 0
5 7 7 15 4 8 -4 15 -1 15 4 0 6 9 9 20 7 11 -2 18 0 15 6 -4 5 3 9 14 9 12 0
21 5 21 11 0 5 5 7 10 4 6 -4 22 1 36 10 14 9 32 14 39 11 7 -2 16 2 19 10 3
9 10 13 15 9 5 -3 13 0 16 6 4 5 13 8 21 5 8 -3 17 0 20 7 2 7 14 14 27 14 12
1 27 9 33 18 8 11 13 12 16 4 3 -9 8 -8 19 2 8 8 21 16 29 18 8 2 20 4 25 5 6
2 30 12 55 23 25 11 60 24 78 28 19 4 32 13 32 22 0 12 -3 13 -13 4 -10 -8
-17 -7 -25 1 -9 9 -12 9 -12 -1 0 -7 -5 -9 -12 -5 -19 12 -48 12 -48 1 0 -6
-5 -6 -12 0 -7 5 -22 8 -33 7 -24 -3 -59 -4 -102 -4 -18 0 -39 0 -45 0 -7 -1
-25 1 -40 3 -16 2 -28 0 -28 -5 0 -5 -6 -6 -12 -2 -19 12 -48 12 -48 1 0 -6
-5 -6 -12 0 -7 5 -22 8 -33 7 -24 -3 -59 -4 -102 -4 -18 0 -39 0 -45 0 -7 -1
-25 1 -40 3 -16 2 -28 0 -28 -5 0 -5 -6 -6 -12 -2 -18 11 -48 12 -48 2 0 -5
-6 -6 -12 -2 -18 11 -128 11 -128 0 0 -4 -6 -4 -12 1 -13 10 -55 10 -64 0 -3
-3 -19 -1 -35 3 -20 6 -29 5 -29 -3 0 -8 -3 -8 -8 -2 -8 12 -32 13 -49 2 -7
-5 -13 -4 -13 1 0 10 -30 9 -48 -2 -6 -4 -12 -3 -12 2 0 10 -30 9 -48 -2 -6
-4 -12 -4 -12 1 0 4 -34 8 -75 8 -41 0 -75 -4 -75 -9 0 -5 -6 -4 -12 1 -13 10
-55 10 -64 0 -3 -3 -19 -1 -35 3 -18 5 -29 5 -29 -1 0 -6 -6 -7 -12 -3 -18 11
-48 12 -48 2 0 -5 -6 -6 -12 -2 -18 11 -48 12 -48 2 0 -5 -6 -6 -12 -2 -18 11
-48 12 -48 2 0 -5 -8 -4 -18 1 -10 6 -24 6 -32 1 -8 -5 -19 -6 -24 -2 -17 10
-86 9 -86 -1 0 -6 -5 -6 -12 0 -13 10 -55 10 -64 0 -3 -3 -19 -1 -35 3 -20 6
-29 5 -29 -3 0 -8 -3 -8 -8 -2 -8 12 -32 13 -49 2 -7 -5 -13 -4 -13 1 0 9 -47
8 -57 -2 -3 -3 -14 -1 -24 5 -11 5 -19 6 -20 2z"/>
<path d="M4965 1754 c-21 -19 -42 -34 -45 -34 -4 0 -18 -10 -31 -21 -13 -12
-34 -28 -45 -36 -20 -12 -21 -20 -17 -81 3 -37 10 -72 15 -79 5 -7 5 -14 -2
-18 -6 -3 -7 -12 -3 -18 4 -7 6 -24 4 -39 -1 -16 2 -28 9 -28 6 0 9 4 5 9 -3
6 3 14 12 20 10 6 14 11 9 11 -4 0 -2 10 6 23 8 12 14 30 12 40 -1 9 2 17 7
17 5 0 9 5 9 10 0 6 7 27 17 48 9 20 15 40 15 45 -1 4 3 7 8 7 6 0 10 6 10 13
1 6 9 30 20 52 10 22 16 43 14 47 -3 5 -1 8 4 8 6 0 12 7 15 15 11 28 -10 24
-48 -11z"/>
</g>
</svg>
